<?xml version="1.0" encoding="UTF-8" standalone="no"?>
<svg
   xmlns:dc="http://purl.org/dc/elements/1.1/"
   xmlns:cc="http://creativecommons.org/ns#"
   xmlns:rdf="http://www.w3.org/1999/02/22-rdf-syntax-ns#"
   xmlns:svg="http://www.w3.org/2000/svg"
   xmlns="http://www.w3.org/2000/svg"
   xmlns:sodipodi="http://sodipodi.sourceforge.net/DTD/sodipodi-0.dtd"
   xmlns:inkscape="http://www.inkscape.org/namespaces/inkscape"
   id="svg"
   version="1.1"
   width="400"
   height="256"
   viewBox="0 0 400 256"
   sodipodi:docname="front.svg"
   inkscape:version="0.92.3 (2405546, 2018-03-11)">
  <metadata
     id="metadata74">
    <rdf:RDF>
      <cc:Work
         rdf:about="">
        <dc:format>image/svg+xml</dc:format>
        <dc:type
           rdf:resource="http://purl.org/dc/dcmitype/StillImage" />
        <dc:title></dc:title>
      </cc:Work>
    </rdf:RDF>
  </metadata>
  <defs
     id="defs72" />
  <sodipodi:namedview
     pagecolor="#ffffff"
     bordercolor="#666666"
     borderopacity="1"
     objecttolerance="10"
     gridtolerance="10"
     guidetolerance="10"
     inkscape:pageopacity="0"
     inkscape:pageshadow="2"
     inkscape:window-width="1920"
     inkscape:window-height="1052"
     id="namedview70"
     showgrid="false"
     inkscape:zoom="4.5714453"
     inkscape:cx="133.55225"
     inkscape:cy="113.44248"
     inkscape:window-x="0"
     inkscape:window-y="0"
     inkscape:window-maximized="1"
     inkscape:current-layer="svg" />
  <g
     transform="matrix(0.77678003,0,0,0.77678003,-157.50356,-95.65577)"
     id="svgg-7">
    <path
       style="fill:#ccecfc;fill-rule:evenodd;stroke:none"
       inkscape:connector-curvature="0"
       id="path0-5"
       d="m 201.85615,453.37046 c 315.20024,16.03423 187.84111,-32.0783 73.92125,-31.92915 -6.106,0.013 -12.487,0.577 -21.5,1.9 -1.192,0.175 -2.649,0.364 -3.237,0.42 -0.589,0.056 -1.12,0.133 -1.181,0.17 -0.061,0.038 -0.481,0.105 -0.933,0.149 -1.229,0.121 -7.24,1.155 -13.816,2.377 -5.855,1.088 -7.098,1.309 -8.333,1.479 -0.367,0.051 -3.142,0.573 -6.167,1.159 -8.72,1.692 -13.205,2.542 -15,2.842 -0.917,0.153 -2.604,0.456 -3.75,0.673"
       sodipodi:nodetypes="ccccccccccc" />
    <path
       style="fill:#ccf4fc;fill-rule:evenodd;stroke:none"
       inkscape:connector-curvature="0"
       id="path1-3"
       d="" />
    <path
       style="fill:#58b0c4;fill-rule:evenodd;stroke:none"
       inkscape:connector-curvature="0"
       id="path3-6"
       d="m 20.583,226.254 c -0.091,0.034 -0.493,0.145 -0.891,0.248 -0.399,0.103 -0.697,0.215 -0.662,0.25 0.034,0.035 0.586,-0.076 1.225,-0.246 0.639,-0.17 1.012,-0.31 0.828,-0.311 -0.183,-0.001 -0.408,0.026 -0.5,0.059 m 2.201,1.704 c -0.696,1.127 -1.332,2.295 -1.156,2.125 0.223,-0.215 1.712,-2.75 1.616,-2.75 -0.04,0 -0.247,0.282 -0.46,0.625 m 35.158,0.924 -0.642,0.868 0.678,-0.75 c 0.373,-0.412 0.761,-0.729 0.862,-0.704 0.102,0.025 0.137,-0.031 0.079,-0.125 -0.177,-0.287 -0.311,-0.19 -0.977,0.711 m 7.559,-0.285 c 0,0.084 0.194,0.378 0.43,0.653 l 0.43,0.5 -0.377,-0.583 c -0.482,-0.749 -0.484,-0.751 -0.483,-0.57 m -27.597,1.013 c -0.014,0.645 0.051,0.629 0.248,-0.06 0.098,-0.341 0.083,-0.494 -0.047,-0.494 -0.103,0 -0.194,0.25 -0.201,0.554 m -2.309,0.312 c -0.911,0.407 -1.729,0.812 -1.819,0.902 -0.146,0.146 3.543,-1.438 3.71,-1.593 0.212,-0.196 -0.42,0.035 -1.891,0.691 m 26.258,-0.407 c 0.216,0.137 1.617,0.223 1.466,0.091 -0.038,-0.034 -0.435,-0.101 -0.883,-0.149 -0.498,-0.054 -0.725,-0.031 -0.583,0.058 m -15.722,1.36 c -0.403,0.39 -0.504,0.513 -0.224,0.275 0.28,-0.238 0.695,-0.557 0.922,-0.708 0.226,-0.151 0.327,-0.275 0.224,-0.275 -0.103,0 -0.518,0.318 -0.922,0.708 m -8.557,0.393 c -0.231,1.845 0.235,4.594 0.918,5.424 0.262,0.317 0.246,0.233 -0.08,-0.442 -0.526,-1.085 -0.811,-3.006 -0.688,-4.625 0.115,-1.498 0.02,-1.722 -0.15,-0.357 m 17.218,3.649 c 0.047,1.375 0.113,2.531 0.147,2.569 0.103,0.117 0.027,-2.664 -0.106,-3.903 -0.079,-0.727 -0.094,-0.225 -0.041,1.334 m -12.292,-0.5 c -0.683,0.687 -1.204,1.25 -1.158,1.25 0.046,0 0.642,-0.563 1.325,-1.25 0.683,-0.688 1.204,-1.25 1.158,-1.25 -0.046,0 -0.642,0.562 -1.325,1.25 m 28.25,-1.091 c 0.183,0.083 0.471,0.156 0.639,0.162 0.168,0.007 0.618,0.264 1,0.572 0.65,0.524 1.796,1.29 1.611,1.076 -0.48,-0.554 -2.411,-1.777 -2.937,-1.86 -0.453,-0.071 -0.547,-0.056 -0.313,0.05 m -46.083,0.695 c -1.664,0.424 -3.814,0.585 -4.344,0.326 -0.384,-0.188 -0.389,-0.185 -0.083,0.06 0.558,0.447 4.713,0.029 5.75,-0.578 0.359,-0.21 0.123,-0.176 -1.323,0.192 m 89.262,5.13 c 0.081,0.818 0.452,1.849 0.664,1.849 0.047,0 -0.007,-0.169 -0.12,-0.375 -0.112,-0.206 -0.301,-0.825 -0.419,-1.375 l -0.215,-1 0.09,0.901 m 1.009,2.008 c 0.451,0.48 2.511,0.577 3.229,0.151 0.158,-0.093 0.066,-0.104 -0.25,-0.028 -0.782,0.187 -2.295,0.127 -2.753,-0.109 -0.293,-0.151 -0.359,-0.155 -0.226,-0.014 m -60.145,1.443 c -0.06,0.285 -0.316,0.772 -0.57,1.083 -0.371,0.455 -0.386,0.5 -0.075,0.232 0.488,-0.421 0.89,-1.188 0.813,-1.553 -0.035,-0.167 -0.103,-0.071 -0.168,0.238"
       sodipodi:nodetypes="cccsccccsccccccccccccccsccscccccccscscccccccccccscscccccccccccccscccccccccccccc" />
    <path
       style="fill:#5864c8;fill-rule:evenodd;stroke:none"
       inkscape:connector-curvature="0"
       id="path4-2"
       d="" />
  </g>
  <g
     id="svgg"
     transform="matrix(0.77678003,0,0,0.77678003,91.288211,58.260868)">
    <path
       id="path0"
       d="m 20.333,226.497 c -1.696,0.442 -3.355,0.921 -3.688,1.064 -0.509,0.219 -2.618,0.839 -3.478,1.022 -5.591,1.192 -7.893,1.547 -11.042,1.699 L 0,230.385 V 243.192 256 h 200 200 v -5.917 -5.916 h -1.062 c -3.826,0 -6.097,-0.975 -11.718,-5.033 -4.216,-3.044 -4.578,-2.963 -3.387,0.756 0.646,2.015 0.669,3.04 0.074,3.312 -1.281,0.583 -5.307,-1.262 -7.866,-3.605 -0.93,-0.852 -0.958,-0.707 -0.958,4.992 v 5.07 l -0.71,0.712 -0.711,0.712 -1.706,-0.011 c -3.056,-0.021 -3.188,-0.19 -3.263,-4.165 l -0.058,-3.042 -1.123,0.463 c -1.988,0.82 -5.068,1.433 -5.804,1.155 -0.615,-0.232 -0.45,-0.786 0.792,-2.65 1.481,-2.223 1.497,-2.134 -0.375,-2.106 -1.808,0.027 -1.924,-0.123 -1.303,-1.699 0.392,-0.994 0.358,-1.008 -1.044,-0.456 -4.048,1.594 -5.038,1.832 -7.644,1.839 -3.128,0.007 -3.316,-0.214 -1.852,-2.177 0.607,-0.813 0.523,-0.901 -0.859,-0.901 h -1.243 l -0.049,-1.442 -0.048,-1.442 -0.666,-0.228 c -0.367,-0.125 -0.894,-0.334 -1.171,-0.464 -1.221,-0.574 -3.12,-1.272 -3.21,-1.182 -0.055,0.055 0.028,0.454 0.183,0.887 0.156,0.433 0.282,1.004 0.282,1.269 l -10e-4,0.481 -1.583,-0.083 c -0.889,-0.046 -1.584,-0.017 -1.584,0.068 0,0.251 0.605,1.321 1.491,2.636 0.973,1.445 1.062,1.919 0.384,2.051 -0.778,0.152 -4.797,-0.665 -6.247,-1.271 l -0.596,-0.249 -0.06,2.943 c -0.081,3.912 -0.374,4.279 -3.421,4.274 -1.597,-0.003 -2.044,-0.24 -2.687,-1.427 l -0.399,-0.737 0.109,-4.593 c 0.128,-5.447 0.063,-5.778 -0.92,-4.724 -0.222,0.238 -1.191,0.899 -2.154,1.468 -5.667,3.351 -7.052,3.035 -5.666,-1.292 0.853,-2.665 0.522,-3.817 -0.763,-2.646 -0.54,0.493 -4.408,3.247 -5.821,4.145 -3.115,1.981 -4.892,2.635 -7.666,2.82 -3.372,0.224 -3.645,-0.384 -1.556,-3.467 1.007,-1.486 1.053,-1.442 -1.064,-1.014 -7.04,1.425 -18.573,1.321 -24.755,-0.223 -0.31,-0.078 -0.375,-0.025 -0.375,0.302 0,2.954 -4.622,2.483 -5.102,-0.52 -0.138,-0.862 -0.255,-1.004 -0.894,-1.085 -0.697,-0.088 -1.465,-0.27 -5.504,-1.301 -6.339,-1.619 -12.268,-3.082 -13.584,-3.352 -0.733,-0.151 -2.758,-0.568 -4.5,-0.928 -4.971,-1.027 -5.64,-1.091 -11.166,-1.08 -6.106,0.013 -12.487,0.577 -21.5,1.9 -1.192,0.175 -2.649,0.364 -3.237,0.42 -0.589,0.056 -1.12,0.133 -1.181,0.17 -0.061,0.038 -0.481,0.105 -0.933,0.149 -1.229,0.121 -7.24,1.155 -13.816,2.377 -5.855,1.088 -7.098,1.309 -8.333,1.479 -0.367,0.051 -3.142,0.573 -6.167,1.159 -8.72,1.692 -13.205,2.542 -15,2.842 -0.917,0.153 -2.604,0.456 -3.75,0.673 -18.315,3.466 -26.172,3.872 -41.542,2.143 -2.39,-0.269 -2.625,-0.247 -2.625,0.246 0,1.297 -0.972,2.058 -2.65,2.074 -1.839,0.016 -2.57,-0.624 -2.784,-2.441 l -0.102,-0.87 -6.523,-1.059 c -8.402,-1.364 -16.718,-3.073 -23.607,-4.853 -2.895,-0.748 -3.334,-0.79 -3.334,-0.32 0,1.225 -1.132,3.749 -1.795,4.001 -1.157,0.44 -4.099,-0.407 -5.76,-1.659 -0.604,-0.455 -1.372,-0.863 -1.861,-0.99 -1.653,-0.426 -4.494,-2.972 -5.469,-4.902 -0.257,-0.509 -0.649,-1.097 -0.87,-1.305 -0.455,-0.427 -0.43,-0.463 -0.745,1.089 -0.318,1.562 -1.024,1.853 -2.416,0.996 -0.367,-0.226 -0.839,-0.411 -1.049,-0.412 -0.21,0 -0.673,-0.149 -1.028,-0.331 l -0.648,-0.33 -0.714,0.872 c -0.392,0.479 -1.249,1.419 -1.904,2.089 l -1.191,1.217 0.077,5.199 0.076,5.2 -0.393,0.574 c -0.993,1.448 -3.671,1.835 -5.643,0.815 -1.708,-0.884 -1.666,-0.7 -1.666,-7.243 -0.001,-5.491 -0.061,-6.563 -0.371,-6.563 -0.09,0 -1.612,1.427 -3.383,3.17 -3.32,3.268 -4.103,3.841 -4.766,3.487 -1.089,-0.583 -1.644,-4.337 -1.003,-6.78 l 0.311,-1.185 -0.366,0.139 c -0.354,0.135 -2.477,1.05 -6.051,2.609 -5.974,2.605 -11.705,3.662 -11.705,2.159 0,-0.821 2.208,-5.301 3.334,-6.765 0.247,-0.321 0.581,-0.79 0.743,-1.042 l 0.295,-0.458 -0.478,0.013 c -0.262,0.007 -1.865,0.375 -3.561,0.817 m 377.095,9.704 c 0.088,0.63 0.96,2.741 1.224,2.966 0.054,0.046 0.232,0.345 0.396,0.666 0.164,0.321 0.445,0.771 0.624,1 l 0.326,0.417 -0.041,-2.833 -0.04,-2.834 -1.295,-0.048 -1.295,-0.049 0.101,0.715"
       inkscape:connector-curvature="0"
       style="fill:#ccecfc;fill-rule:evenodd;stroke:none" />
    <path
       id="path1"
       d=""
       inkscape:connector-curvature="0"
       style="fill:#ccf4fc;fill-rule:evenodd;stroke:none" />
    <path
       id="path2"
       d="m 48.705,52.072 c -0.43,0.547 -0.637,1.929 -1.038,6.941 -0.5,6.24 -0.842,7.811 -2.22,10.192 -0.475,0.82 -0.967,1.691 -1.093,1.935 -0.126,0.244 -0.434,0.668 -0.685,0.943 -1.141,1.251 -2.502,3.631 -2.502,4.377 0,0.977 0.787,1.125 2.416,0.453 0.55,-0.226 1.021,-0.412 1.045,-0.412 0.3,-0.005 -0.974,1.665 -2.251,2.95 -6.063,6.101 -6.537,9.228 -1.084,7.14 C 42.142,86.266 42.991,86 43.18,86 c 0.189,0 0.456,-0.112 0.594,-0.25 0.35,-0.35 0.741,-0.324 0.614,0.042 -0.117,0.334 -1.225,1.541 -1.415,1.541 -0.133,0 -1.098,0.848 -2.54,2.232 -0.467,0.449 -1.492,1.365 -2.277,2.036 -3.088,2.642 -2.294,3.598 2.344,2.821 0.871,-0.146 1.787,-0.299 2.035,-0.338 0.876,-0.141 1.148,0.595 0.543,1.471 -0.706,1.021 -4.172,4.278 -4.552,4.278 -0.104,0 -0.321,0.11 -0.482,0.244 -0.502,0.417 -1.584,1.22 -2.627,1.95 -4.289,2.998 -5.831,4.702 -5.004,5.529 0.409,0.409 2.413,0.372 3.849,-0.072 1.477,-0.456 2.071,-0.528 2.071,-0.252 0,0.837 1.406,0.978 3.5,0.351 2.047,-0.612 2.108,-0.542 0.53,0.623 -3.692,2.724 -4.131,4.473 -1.065,4.246 l 1.285,-0.095 -0.458,0.37 c -0.593,0.478 -4.222,2.45 -7.042,3.827 -0.366,0.179 -0.838,0.502 -1.047,0.718 -0.21,0.216 -0.728,0.48 -1.151,0.587 -0.447,0.112 -1.23,0.542 -1.866,1.023 -0.603,0.456 -1.431,0.973 -1.841,1.149 -2.386,1.022 -4.224,3.845 -2.704,4.153 0.797,0.162 3.834,-0.236 5.734,-0.752 4.209,-1.142 8.292,-1.277 8.292,-0.274 0,0.276 -0.649,1.009 -0.892,1.009 -0.13,0 -1.135,0.677 -1.275,0.858 -0.118,0.153 -3.555,2.054 -4.75,2.627 -2.675,1.283 -3.347,1.589 -3.507,1.596 -0.096,0.004 -0.283,0.106 -0.417,0.225 -0.133,0.119 -0.791,0.517 -1.461,0.883 -1.495,0.818 -1.69,1.514 -0.45,1.615 0.365,0.029 0.74,0.115 0.833,0.191 0.093,0.075 0.919,0.065 1.836,-0.022 3.195,-0.304 3.626,-0.056 2.419,1.388 -1.638,1.961 -0.85,2.367 3.02,1.557 4.691,-0.981 5.812,-1.049 5.537,-0.334 -0.112,0.292 -1.604,1.416 -1.88,1.416 -0.184,0 -1.007,0.47 -1.18,0.673 -0.155,0.183 -6.319,3.327 -6.523,3.327 -0.425,0 -5.087,2.708 -5.602,3.254 -1.069,1.134 -0.484,2.017 1.231,1.857 0.583,-0.054 1.061,-0.07 1.061,-0.035 0,0.17 -3.391,2.384 -4.654,3.039 -0.786,0.408 -1.541,0.837 -1.679,0.955 -0.138,0.117 -1,0.647 -1.917,1.177 -0.917,0.529 -1.817,1.098 -2,1.263 -0.183,0.166 -0.541,0.379 -0.795,0.476 -0.499,0.189 -2.933,1.785 -3.205,2.102 -0.092,0.107 -0.819,0.696 -1.616,1.309 -1.991,1.533 -2.301,1.929 -2.301,2.943 0,1.798 3.052,1.77 9.584,-0.087 4.455,-1.267 5.088,-1.354 3.791,-0.525 -4.661,2.979 -5.208,3.443 -5.208,4.415 0,1.156 2.024,1.161 8.5,0.02 1.384,-0.244 4.333,-0.213 4.333,0.045 0,0.392 -1.58,1.593 -3.242,2.465 -0.913,0.479 -1.762,0.974 -1.888,1.1 -0.126,0.126 -0.391,0.316 -0.59,0.422 -0.374,0.2 -2.478,1.702 -2.988,2.132 -0.378,0.32 -0.38,1.299 -0.003,1.715 0.274,0.303 0.272,0.328 -0.042,0.513 -0.442,0.261 -3.284,1.426 -3.505,1.436 -0.219,0.011 -4.628,2.332 -4.742,2.496 -0.114,0.166 -2.122,1.513 -2.256,1.513 -0.462,0 -5.384,4.78 -5.772,5.606 -0.988,2.101 1.14,2.762 6.112,1.898 1.154,-0.2 1.855,-0.257 1.892,-0.153 0.032,0.092 0.144,0.053 0.25,-0.086 0.324,-0.428 7.797,-2.465 8.063,-2.198 0.054,0.053 -0.669,0.848 -1.606,1.766 -1.62,1.589 -1.7,1.7 -1.651,2.293 l 0.052,0.624 1.166,0.046 c 0.98,0.039 1.58,-0.074 3.739,-0.708 3.097,-0.909 4.367,-0.948 4.633,-0.144 0.119,0.362 -4.394,2.37 -7.038,3.132 -1.226,0.353 -5.794,2.203 -7.834,3.172 -2.286,1.086 -3.068,1.418 -3.343,1.418 -0.138,0 -0.293,0.112 -0.346,0.249 -0.052,0.136 -0.544,0.521 -1.093,0.854 -4.01,2.436 -7.25,5.756 -7.103,7.277 0.073,0.757 0.947,0.782 4.266,0.121 4.485,-0.892 5.354,-0.782 4.628,0.583 -1.25,2.35 -0.272,2.589 5.491,1.341 2.181,-0.472 4.013,-0.226 3.442,0.461 -0.385,0.464 -2.897,1.57 -5.942,2.615 -1.65,0.567 -3.487,1.2 -4.083,1.407 -0.596,0.207 -1.442,0.463 -1.88,0.569 -1.68,0.404 -5.052,2.242 -5.828,3.176 C 0.047,211.781 0,212.185 0,214.003 v 2.166 l 1.458,-0.099 c 1.074,-0.073 2.25,-0.336 4.459,-0.999 4.638,-1.39 6.59,-1.756 7.5,-1.403 l 0.5,0.194 -1.234,1.152 c -0.678,0.634 -1.327,1.153 -1.44,1.153 -0.246,0 -1.932,1.788 -2.51,2.663 -0.454,0.685 -0.713,2.564 -0.415,3.003 0.362,0.531 2.37,0.304 4.765,-0.539 1.192,-0.42 2.505,-0.878 2.917,-1.018 1.296,-0.44 4.59,-1.11 5.437,-1.105 l 0.813,0.005 -0.667,0.588 c -0.366,0.323 -0.868,0.771 -1.115,0.996 -0.247,0.225 -0.997,0.847 -1.667,1.381 -1.511,1.207 -2.762,2.539 -2.867,3.053 -0.043,0.214 -0.117,0.727 -0.164,1.139 l -0.085,0.75 0.992,0.052 c 0.728,0.037 1.313,-0.06 2.199,-0.366 0.664,-0.229 1.698,-0.495 2.299,-0.59 0.6,-0.096 1.462,-0.287 1.916,-0.425 1.488,-0.451 1.581,-0.281 0.597,1.094 -2.159,3.018 -4.011,7.004 -3.446,7.417 1.135,0.829 7.742,-0.775 12.591,-3.057 5.601,-2.636 5.577,-2.631 5.135,-1 -0.734,2.709 0.07,6.792 1.337,6.792 0.626,0 0.968,-0.29 4.493,-3.812 1.676,-1.675 3.139,-3.015 3.25,-2.978 0.151,0.051 0.223,1.631 0.285,6.311 0.096,7.153 0.022,6.805 1.616,7.585 1.766,0.864 4.1,0.711 5.149,-0.337 0.958,-0.958 1.071,-2.231 0.719,-8.06 l -0.184,-3.04 1.233,-1.376 c 0.985,-1.101 2.595,-3.022 2.727,-3.255 0.014,-0.025 0.355,0.143 0.758,0.373 0.403,0.23 0.882,0.422 1.066,0.426 0.183,0.004 0.633,0.153 1,0.33 1.535,0.741 2.14,0.438 2.493,-1.248 0.129,-0.615 0.267,-1.151 0.306,-1.191 0.04,-0.039 0.691,0.83 1.446,1.932 2.003,2.921 3.302,4.058 5.171,4.525 0.605,0.151 1.286,0.508 2,1.049 1.912,1.446 4.28,2.196 5.58,1.767 0.745,-0.246 1.71,-2.348 1.991,-4.334 0.165,-1.17 0.204,-1.194 1.435,-0.877 0.89,0.228 2.005,0.278 6.411,0.285 l 5.333,0.008 1.265,-0.624 c 1.693,-0.834 2.319,-0.961 2.319,-0.469 0,1.327 0.912,1.426 4.166,0.451 3.076,-0.921 3.509,-0.848 2.917,0.491 -0.762,1.723 -0.411,2.729 0.868,2.489 0.771,-0.145 2.535,-0.868 2.895,-1.188 0.145,-0.128 0.364,-0.233 0.486,-0.233 0.123,0 0.765,-0.338 1.426,-0.75 1.452,-0.905 1.408,-0.901 1.408,-0.12 0,1.183 1.33,1.928 2,1.12 0.618,-0.744 0.694,-0.38 0.653,3.125 -0.062,5.383 0.241,6.055 2.72,6.023 2.503,-0.031 2.728,-0.491 2.664,-5.458 -0.053,-4.052 -0.016,-4.363 0.48,-4.098 0.822,0.44 2.015,0.128 2.394,-0.626 0.194,-0.385 0.402,-0.75 0.462,-0.811 0.061,-0.061 0.883,0.266 1.827,0.727 3.781,1.843 5.791,2.047 5.803,0.587 0.006,-0.716 0.231,-0.765 1.348,-0.293 3.569,1.509 5.358,1.374 4.501,-0.342 -0.204,-0.409 -0.442,-0.787 -0.528,-0.84 -0.295,-0.182 -0.157,-0.384 0.335,-0.492 1.064,-0.234 0.828,-0.873 -1.168,-3.169 -1.274,-1.466 -0.914,-1.613 1.426,-0.58 6.175,2.726 10.033,3.073 9.689,0.872 -0.1,-0.64 -0.224,-0.625 1.699,-0.206 1.798,0.393 3.807,0.59 4.426,0.434 0.507,-0.127 0.619,-0.91 0.182,-1.273 -0.41,-0.34 -0.243,-0.339 1.764,0.006 3.524,0.607 4.859,0.35 4.957,-0.955 0.097,-1.292 -4.452,-3.727 -8.8,-4.711 -1.449,-0.327 -5.73,-2.4 -6.555,-3.173 l -0.529,-0.495 0.531,-0.001 c 0.768,-0.001 2.598,0.408 4.401,0.985 5.191,1.659 7.485,1.548 7.485,-0.362 0,-0.733 0.343,-0.912 2.118,-1.104 2.029,-0.22 3.091,-0.999 2.822,-2.071 -0.196,-0.781 -1.164,-1.128 -5.69,-2.041 -3.79,-0.764 -9.044,-2.763 -14.554,-5.538 l -2.888,-1.453 1.381,-0.183 c 1.169,-0.154 1.43,-0.246 1.696,-0.603 0.277,-0.37 0.387,-0.405 0.923,-0.289 1.574,0.339 3.578,0.477 4.395,0.301 l 0.836,-0.179 -0.078,-0.815 c -0.043,-0.449 -0.061,-0.816 -0.04,-0.816 0.021,0 0.461,0.194 0.977,0.43 1.922,0.88 3.778,0.866 4.619,-0.034 0.579,-0.62 1.177,-0.885 2.612,-1.16 1.487,-0.284 1.777,-0.584 1.434,-1.479 -0.151,-0.392 -4.04,-2.133 -8.61,-3.855 -2.747,-1.034 -10.233,-5.516 -11.908,-7.129 -0.48,-0.462 -0.986,-0.903 -1.125,-0.981 -0.421,-0.236 -0.814,-1.131 -0.593,-1.352 0.122,-0.122 1.31,-0.22 3.306,-0.273 3.522,-0.094 3.59,-0.114 3.503,-1.02 -0.051,-0.535 -0.01,-0.647 0.24,-0.647 1.536,0 1.952,-1.137 0.628,-1.719 -1.186,-0.521 -1.107,-0.553 1.621,-0.66 3.011,-0.119 3.771,-0.326 3.841,-1.046 0.062,-0.632 -0.379,-1.07 -1.253,-1.242 -2.296,-0.452 -8.092,-2.524 -9.808,-3.506 -0.474,-0.271 -0.959,-0.493 -1.078,-0.493 -0.35,0 -2.646,-1.496 -2.834,-1.846 -0.163,-0.304 -0.103,-0.321 1.155,-0.321 1.146,0 1.39,-0.053 1.798,-0.391 0.259,-0.215 0.715,-0.438 1.014,-0.496 0.299,-0.058 0.749,-0.248 1,-0.423 0.412,-0.286 0.594,-0.301 1.873,-0.154 1.772,0.204 2.721,-0.037 2.8,-0.711 0.072,-0.62 -0.271,-0.847 -2.966,-1.966 -1.33,-0.552 -2.714,-1.159 -3.077,-1.348 -0.363,-0.189 -0.761,-0.344 -0.884,-0.344 -0.122,0 -0.458,-0.122 -0.746,-0.271 l -0.523,-0.271 0.448,-0.326 c 0.951,-0.693 0.575,-1.259 -1.468,-2.211 -0.734,-0.342 -1.786,-0.835 -2.338,-1.095 -0.588,-0.278 -1.468,-0.918 -2.123,-1.545 l -1.12,-1.071 1.253,-0.08 c 1.001,-0.065 1.334,-0.156 1.652,-0.456 0.272,-0.254 0.71,-0.412 1.371,-0.492 1.637,-0.199 2.102,-0.672 1.396,-1.424 l -0.326,-0.346 1.837,0.062 c 3.469,0.119 3.667,-1.583 0.314,-2.706 -0.504,-0.168 -1.366,-0.515 -1.916,-0.769 -0.55,-0.255 -1.3,-0.588 -1.667,-0.74 -1.537,-0.638 -2.133,-1.094 -1.846,-1.412 0.55,-0.608 0.079,-1.173 -3.207,-3.847 -1.218,-0.991 -2.669,-2.61 -2.48,-2.767 0.018,-0.015 0.764,0.053 1.657,0.151 l 1.625,0.179 0.496,-0.476 c 0.368,-0.352 0.739,-0.508 1.426,-0.601 1.717,-0.233 1.954,-1.002 0.537,-1.74 -0.481,-0.251 -0.912,-0.512 -0.958,-0.58 -0.046,-0.068 -0.571,-0.368 -1.167,-0.667 -1.355,-0.68 -2.426,-1.406 -3.12,-2.114 -0.599,-0.611 -0.655,-0.553 0.762,-0.79 0.307,-0.052 0.781,-0.282 1.054,-0.511 0.275,-0.231 0.708,-0.418 0.97,-0.418 1.6,0 1.343,-0.611 -0.707,-1.685 -0.94,-0.491 -1.999,-1.046 -2.354,-1.232 -0.773,-0.404 -0.791,-0.618 -0.07,-0.805 0.666,-0.173 1.465,-0.728 1.465,-1.018 0,-0.301 -1.331,-1.499 -2.108,-1.899 -0.695,-0.357 -2.725,-2.126 -2.725,-2.375 0,-0.084 0.15,-0.152 0.333,-0.152 0.418,0 0.46,-0.746 0.074,-1.297 -0.247,-0.352 -0.239,-0.37 0.146,-0.37 1.891,0 2.221,-1.026 0.611,-1.902 -0.975,-0.531 -1.497,-1.037 -1.497,-1.452 0,-0.16 -0.346,-0.796 -0.768,-1.413 l -0.768,-1.121 0.268,-0.562 c 0.351,-0.736 0.341,-0.874 -0.13,-1.737 -0.46,-0.844 -0.655,-1.658 -1.03,-4.312 -0.506,-3.582 -1.277,-3.475 -1.823,0.254 -0.353,2.404 -0.664,3.747 -1.19,5.133 -0.336,0.887 -0.41,1.311 -0.332,1.917 l 0.101,0.778 -1.164,1.068 c -0.641,0.587 -1.52,1.3 -1.954,1.584 -1.312,0.859 -1.136,1.391 0.529,1.597 0.616,0.076 1.156,0.174 1.199,0.218 0.135,0.135 -1.042,1.016 -2.478,1.855 -2.806,1.64 -3.31,2.108 -2.966,2.75 0.101,0.19 0.345,0.345 0.542,0.345 0.197,0 0.689,0.16 1.092,0.355 0.592,0.287 0.927,0.338 1.732,0.265 0.994,-0.09 0.997,-0.089 0.694,0.247 -0.409,0.453 -3.221,2.3 -3.504,2.3 -0.262,0 -1.577,0.799 -1.756,1.066 -0.517,0.775 0.117,1.267 1.634,1.267 0.681,0 1.238,0.041 1.238,0.091 0,0.179 -0.921,0.88 -1.58,1.203 -0.368,0.18 -1.57,0.763 -2.67,1.296 -3.579,1.733 -3.864,2.91 -0.705,2.91 0.79,0 1.482,0.075 1.539,0.167 0.155,0.251 1.502,0.185 3.041,-0.149 l 1.375,-0.299 -1.024,0.932 c -1.546,1.408 -4.587,3.148 -6.094,3.486 -2.168,0.487 -2.513,1.771 -0.644,2.397 0.356,0.119 0.71,0.347 0.788,0.508 0.077,0.16 0.205,0.423 0.284,0.583 0.177,0.363 2.357,0.602 4.107,0.45 l 1.167,-0.102 -0.608,0.472 c -0.334,0.259 -1.206,0.928 -1.936,1.486 -0.731,0.558 -1.492,1.167 -1.692,1.353 -0.2,0.186 -0.641,0.48 -0.98,0.652 -0.768,0.391 -2.755,1.595 -2.868,1.739 -0.046,0.058 -0.833,0.541 -1.75,1.074 -2.063,1.197 -2.25,1.357 -2.25,1.923 0,0.737 0.723,0.94 2.129,0.599 1.389,-0.337 1.809,-0.341 1.932,-0.021 0.052,0.137 0.229,0.252 0.392,0.254 0.898,0.011 -4.288,1.64 -6.119,1.922 -1.256,0.194 -1.5,0.34 -1.5,0.899 0,0.743 0.57,1.042 2.041,1.069 l 1.208,0.023 -0.052,0.6 c -0.056,0.642 0.158,0.809 1.386,1.083 0.275,0.061 0.64,0.233 0.811,0.381 0.245,0.212 0.618,0.259 1.778,0.223 l 1.468,-0.045 -0.195,0.517 c -0.231,0.612 0.064,0.927 1,1.072 0.305,0.047 0.826,0.128 1.158,0.18 l 0.604,0.095 -0.479,0.5 c -0.55,0.575 -1.905,1.636 -2.665,2.086 -0.286,0.169 -1.036,0.599 -1.666,0.956 -0.631,0.357 -1.466,0.828 -1.856,1.049 -0.765,0.433 -0.972,1.126 -0.46,1.551 0.261,0.217 2.414,0.167 2.948,-0.068 0.223,-0.099 0.261,-0.054 0.189,0.223 -0.05,0.191 -0.148,0.347 -0.219,0.347 -0.07,0 -0.568,0.293 -1.105,0.651 -1.267,0.844 -5.372,2.927 -7.394,3.753 -0.871,0.355 -2.221,0.944 -3,1.308 -2.337,1.093 -2.883,1.306 -3,1.169 -0.631,-0.743 -1.703,-2.234 -1.647,-2.29 0.04,-0.04 1.533,-0.125 3.318,-0.189 3.614,-0.129 3.995,-0.205 3.995,-0.792 0,-0.855 -2,-2.404 -5.416,-4.196 -1.009,-0.529 -1.871,-1.008 -1.917,-1.065 -0.046,-0.056 -0.898,-0.59 -1.893,-1.184 -0.996,-0.595 -1.7,-1.104 -1.566,-1.131 0.371,-0.075 2.926,0.816 5.626,1.961 4.566,1.936 7.177,2.606 7.444,1.909 0.414,-1.078 -2.079,-4.586 -4.584,-6.452 -0.519,-0.386 -1.088,-0.833 -1.265,-0.992 -0.176,-0.159 -0.476,-0.336 -0.666,-0.393 -0.19,-0.057 -1.471,-0.65 -2.846,-1.318 -1.375,-0.669 -3.073,-1.484 -3.774,-1.812 -0.821,-0.385 -1.504,-0.849 -1.917,-1.305 -0.353,-0.39 -0.966,-1.018 -1.362,-1.396 l -0.72,-0.687 1.637,0.334 c 2.26,0.462 5.287,0.49 5.928,0.056 1.212,-0.822 0.307,-2.413 -2.375,-4.179 -0.688,-0.452 -1.511,-1.033 -1.83,-1.291 -0.319,-0.258 -0.678,-0.469 -0.799,-0.469 -0.294,0 -2.453,-1.477 -3.288,-2.249 -0.367,-0.339 -1.135,-0.991 -1.708,-1.449 C 73.469,152.011 73,151.596 73,151.547 c 0,-0.275 5.254,0.501 7.583,1.121 5.302,1.409 6.324,0.756 3.98,-2.543 -0.31,-0.436 -0.563,-0.85 -0.563,-0.92 0,-0.183 -4.963,-4.729 -5.571,-5.103 -0.526,-0.323 -2.142,-1.643 -2.593,-2.118 -0.471,-0.497 -2.121,-1.817 -2.271,-1.817 -0.081,0 -0.823,-0.644 -1.648,-1.43 -0.825,-0.787 -1.867,-1.727 -2.316,-2.091 -1.376,-1.114 -2.174,-2.306 -1.796,-2.684 0.094,-0.095 1.058,-0.368 2.142,-0.609 l 1.97,-0.436 0.053,-0.551 c 0.073,-0.768 -1.719,-2.53 -5.199,-5.111 -1.454,-1.079 -2.774,-2.091 -2.931,-2.249 -0.158,-0.157 -0.693,-0.556 -1.189,-0.885 -1.055,-0.701 -1.735,-1.387 -1.894,-1.913 -0.161,-0.533 0.039,-0.499 2.775,0.471 5.806,2.059 7.1,0.963 3.242,-2.747 -0.563,-0.541 -0.938,-1.014 -0.834,-1.049 0.187,-0.064 1.822,0.436 2.81,0.859 1.38,0.591 4.34,1.031 5.146,0.765 1.358,-0.448 -0.171,-2.847 -2.743,-4.304 -0.313,-0.177 -1.17,-0.749 -1.903,-1.271 -2.059,-1.463 -3.973,-2.708 -4.35,-2.828 -0.188,-0.059 -0.486,-0.241 -0.662,-0.403 -0.177,-0.163 -0.959,-0.775 -1.738,-1.36 -1.493,-1.122 -5.455,-4.941 -5.294,-5.103 0.143,-0.143 2.028,0.652 4.193,1.767 1.062,0.547 2.063,0.996 2.224,0.998 0.162,0.001 0.594,0.11 0.96,0.242 3.265,1.176 3.59,-0.545 0.693,-3.662 -0.597,-0.641 -1.84,-2.001 -2.762,-3.022 l -1.678,-1.856 1.084,-0.116 c 2.735,-0.293 2.218,-1.583 -2.56,-6.383 -3.244,-3.259 -3.807,-3.975 -2.985,-3.798 3.957,0.853 4.714,0.876 4.896,0.15 C 61.512,88.6 59.448,86.048 56.596,83.775 56.268,83.514 56,83.225 56,83.133 56,83.041 55.656,82.584 55.237,82.117 54.817,81.65 54.328,80.982 54.15,80.634 L 53.827,80 h 1.992 C 58.5,80 58.661,79.417 56.903,76.064 56.406,75.118 55.997,74.247 55.994,74.13 55.99,74.013 55.732,73.504 55.421,73 52.345,68.017 51.974,67.15 52.977,67.285 54.08,67.433 54.049,66.412 52.832,62.493 52.449,61.259 52.073,59.913 51.996,59.5 51.919,59.087 51.619,57.962 51.33,57 c -0.29,-0.962 -0.675,-2.424 -0.855,-3.248 -0.449,-2.048 -1.039,-2.608 -1.77,-1.68 m 281.331,34.665 c -0.376,0.826 -0.686,2.378 -0.864,4.332 -0.196,2.146 -0.829,5.57 -1.246,6.744 -0.373,1.049 -0.345,1.687 0.074,1.687 0.8,0 -0.987,3.85 -2.166,4.667 -0.339,0.234 -0.681,1.25 -0.635,1.884 l 0.051,0.699 0.917,0.051 c 1.121,0.063 1.307,0.218 0.897,0.749 -0.173,0.224 -0.778,1.006 -1.345,1.738 -0.568,0.733 -1.194,1.624 -1.392,1.98 -0.198,0.357 -0.493,0.799 -0.657,0.982 -0.69,0.773 -0.996,1.807 -0.736,2.486 0.129,0.336 0.982,0.34 2.972,0.014 2.32,-0.38 2.212,-0.085 -1.253,3.438 -2.659,2.703 -3.32,3.575 -3.32,4.383 0,0.971 1.965,1.011 4.293,0.088 0.757,-0.3 1.427,-0.495 1.488,-0.434 0.337,0.337 -3.903,4.467 -6.27,6.108 -1.354,0.939 -4.317,4.158 -4.453,4.837 -0.239,1.196 0.523,1.247 2.863,0.19 2.459,-1.112 1.921,-0.354 -1.702,2.396 -5.192,3.939 -4.871,5.161 1.115,4.252 0.504,-0.077 1.959,-0.449 3.233,-0.827 1.274,-0.378 2.349,-0.655 2.389,-0.615 0.137,0.137 -1.552,1.685 -2.878,2.637 -0.73,0.524 -1.928,1.404 -2.661,1.956 -0.733,0.551 -1.408,1.007 -1.5,1.012 -0.284,0.017 -2.549,2.226 -2.653,2.588 -0.236,0.819 0.206,0.995 2.378,0.947 1.101,-0.025 2.042,0.019 2.09,0.098 0.245,0.397 -2.943,2.698 -5.814,4.195 -3.174,1.655 -6.126,4.108 -6.348,5.275 -0.303,1.586 0.997,1.707 5.213,0.486 6.578,-1.906 8.167,-1.356 2.384,0.825 -0.871,0.328 -2.012,0.819 -2.535,1.089 -0.523,0.271 -1.048,0.493 -1.167,0.493 -0.811,0.003 -4.699,3.657 -5.222,4.909 -0.728,1.742 0.957,1.927 4.424,0.485 2.565,-1.067 4.004,-1.448 4.608,-1.218 l 0.401,0.152 -0.322,0.628 c -0.575,1.117 -3.158,3.044 -4.082,3.044 -0.252,0 -3.296,1.339 -5.022,2.209 -2.39,1.205 -3.05,2.299 -1.666,2.765 0.767,0.259 5.726,0.161 7.166,-0.141 2.58,-0.542 5.088,-0.524 4.474,0.032 -0.524,0.474 -4.38,2.244 -6.225,2.857 -5.723,1.903 -9.999,4.372 -9.999,5.774 0,1.387 1.312,1.35 5.822,-0.163 4.004,-1.343 4.486,-1.423 4.099,-0.675 -0.375,0.725 -2.38,2.698 -3.427,3.373 -0.501,0.322 -1.098,0.771 -1.327,0.996 -0.502,0.495 -4.627,3.639 -4.774,3.639 -0.116,0 -3.312,-2.277 -3.615,-2.576 -0.313,-0.309 -2.295,-1.627 -3.134,-2.085 -0.991,-0.541 -4.223,-2.744 -4.954,-3.376 -0.308,-0.267 -0.72,-0.549 -0.917,-0.627 -0.582,-0.233 -3.196,-2.389 -2.982,-2.46 0.237,-0.079 3.117,1.127 4.313,1.806 0.469,0.267 0.948,0.485 1.063,0.485 0.115,0 0.86,0.261 1.657,0.579 3.31,1.325 5.206,0.755 4.011,-1.204 l -0.33,-0.542 h 0.539 c 0.297,0 1.448,0.121 2.559,0.27 2.229,0.298 2.929,0.173 3.031,-0.541 0.059,-0.414 -1.775,-2.395 -2.218,-2.395 -0.251,0 -2.976,-1.366 -6.525,-3.271 -0.747,-0.401 -1.46,-0.732 -1.583,-0.735 -0.379,-0.009 -5.129,-2.828 -5.48,-3.252 -0.344,-0.415 1.748,-0.252 4.256,0.331 3.693,0.86 6.583,0.919 6.583,0.135 0,-0.959 -3.459,-3.82 -5.881,-4.866 -3.805,-1.642 -8.089,-3.964 -6.952,-3.767 1.581,0.273 3.941,0.436 5.666,0.391 2.151,-0.056 2.357,-0.206 1.718,-1.256 -0.571,-0.939 -3.384,-3.71 -3.765,-3.71 -0.284,0 -4.863,-3.479 -4.741,-3.601 0.03,-0.03 1.063,0.016 2.296,0.101 3.535,0.244 3.493,0.247 3.489,-0.292 -0.01,-1.203 -1.057,-2.611 -4.488,-6.037 l -2.425,-2.421 h 2.083 2.083 l 0.05,-0.431 c 0.068,-0.58 -1.166,-2.04 -2.8,-3.312 -0.687,-0.535 -1.47,-1.206 -1.739,-1.49 l -0.49,-0.517 1.656,-0.015 c 4.768,-0.042 4.613,-0.886 -0.996,-5.406 -1.093,-0.88 -2.33,-1.903 -2.75,-2.274 l -0.764,-0.674 1.441,0.119 c 1.711,0.142 1.838,0.009 1.409,-1.467 -0.224,-0.77 -2.1,-4.045 -2.457,-4.29 -1.017,-0.695 -2.257,-5.717 -2.488,-10.077 -0.207,-3.908 -0.631,-5.486 -1.395,-5.193 -0.445,0.171 -0.598,0.886 -0.785,3.679 -0.421,6.295 -0.885,7.821 -3.401,11.184 -1.437,1.921 -1.283,3.239 0.28,2.403 0.665,-0.356 0.632,-0.048 -0.113,1.063 -1.027,1.53 -0.975,1.813 0.372,2.031 1.709,0.276 1.478,0.761 -1.69,3.556 -4.783,4.219 -6.609,6.89 -4.988,7.297 0.738,0.185 3.663,-0.097 4.685,-0.452 1.094,-0.38 2.88,-0.824 2.88,-0.716 0,0.039 -0.544,0.422 -1.208,0.849 -1.901,1.224 -5.311,4.75 -5.671,5.865 -0.478,1.48 0.061,1.838 1.919,1.274 l 0.79,-0.239 -0.277,0.422 c -0.152,0.232 -0.67,0.697 -1.152,1.033 -1.536,1.073 -4.096,3.047 -4.844,3.736 -2.092,1.929 0.369,2.45 4.229,0.896 1.939,-0.781 3.881,-1.169 3.881,-0.775 0,0.764 -4.066,3.742 -5.591,4.094 -2.055,0.475 -6.865,3.636 -7.893,5.187 -1.333,2.013 0.017,2.499 4.067,1.462 2.888,-0.74 3.917,-0.896 3.917,-0.596 0,0.174 -1.748,1.462 -2.713,1.998 -2.279,1.266 -3.86,2.194 -5.037,2.954 -0.734,0.473 -1.608,0.988 -1.943,1.144 -0.85,0.396 -3.592,3.092 -3.738,3.676 -0.25,0.994 2.04,1.26 4.931,0.574 0.779,-0.185 1.754,-0.403 2.166,-0.485 0.787,-0.155 2.515,-0.719 3.084,-1.005 1.763,-0.888 6.583,-2.025 6.583,-1.552 0,0.373 -1.972,1.754 -3.417,2.391 -3.353,1.478 -5.628,2.91 -7.291,4.587 -1.964,1.98 -0.982,2.695 2.625,1.909 4.958,-1.08 5.364,-1.03 3.825,0.463 -1.081,1.049 -8.182,5.37 -8.825,5.37 -0.112,0 -0.477,0.185 -0.81,0.411 -0.333,0.226 -1.408,0.874 -2.389,1.441 -0.981,0.566 -1.922,1.158 -2.092,1.316 -0.169,0.158 -0.586,0.429 -0.925,0.601 -1.425,0.724 -5.201,4.184 -5.201,4.765 0,1.272 6.423,1.296 10.083,0.038 0.917,-0.315 2.042,-0.679 2.5,-0.809 0.459,-0.129 1.921,-0.656 3.25,-1.171 2.426,-0.939 4.872,-1.663 5.224,-1.546 0.103,0.035 -0.298,0.414 -0.893,0.844 -0.594,0.429 -1.361,1.007 -1.704,1.286 -0.342,0.278 -0.867,0.612 -1.166,0.743 -0.299,0.131 -1.075,0.596 -1.724,1.034 -0.65,0.438 -2.225,1.5 -3.5,2.36 -7.539,5.081 -11.621,9.691 -8.578,9.686 0.943,-0.002 1.595,-0.205 4.872,-1.519 1.02,-0.41 1.054,-0.401 0.647,0.17 -0.794,1.116 -0.069,1.324 2.088,0.6 0.683,-0.229 1.356,-0.417 1.497,-0.417 0.141,0 0.584,-0.149 0.984,-0.332 0.894,-0.407 3.683,-1.219 3.919,-1.141 0.849,0.283 -1.894,2.13 -4.832,3.254 -0.596,0.228 -1.946,0.793 -3,1.256 -1.055,0.463 -2.267,0.973 -2.695,1.133 -3.188,1.194 -8.069,5.59 -7.939,7.15 l 0.05,0.597 1.084,-0.028 c 0.833,-0.021 1.791,-0.263 4.145,-1.048 3.475,-1.159 3.391,-1.155 2.606,-0.127 -1.526,1.998 0.378,2.189 5.332,0.533 1.192,-0.398 2.429,-0.769 2.75,-0.825 l 0.583,-0.102 -0.75,0.679 c -0.412,0.374 -1.509,1.048 -2.438,1.499 -0.929,0.45 -1.791,0.918 -1.917,1.039 -0.125,0.121 -0.64,0.479 -1.145,0.796 -2.719,1.71 -4.286,4.31 -3.075,5.104 0.944,0.619 5.063,-0.157 7.946,-1.497 5.891,-2.737 5.413,-2.535 5.118,-2.16 -0.131,0.167 -0.407,0.456 -0.613,0.642 -0.207,0.186 -0.376,0.399 -0.376,0.474 0,0.074 -0.682,0.859 -1.515,1.744 -2.593,2.754 -2.998,4.189 -1.262,4.471 1.185,0.193 4.232,-0.95 6.539,-2.452 0.556,-0.363 1.094,-0.659 1.195,-0.659 0.101,0 0.896,-0.337 1.767,-0.75 2.456,-1.163 2.616,-1.069 1.769,1.045 -0.396,0.988 -0.497,1.471 -0.458,2.194 l 0.049,0.928 0.852,0.049 c 0.852,0.05 2.109,-0.39 2.998,-1.048 l 0.351,-0.259 0.112,2.795 c 0.183,4.53 0.25,4.963 0.87,5.631 0.227,0.245 0.526,0.62 0.666,0.832 1.343,2.05 3.787,0.641 3.76,-2.167 -0.006,-0.642 -0.04,-3.21 -0.075,-5.708 L 277.888,223 h 0.617 c 0.639,0 1.495,-0.515 1.495,-0.899 0,-0.335 0.982,-2.268 1.153,-2.268 0.303,0 1.128,0.825 2.105,2.107 2.034,2.666 5.137,5.56 5.961,5.56 0.243,0 0.071,0.265 -0.715,1.105 -1.887,2.018 -2.472,3.18 -1.74,3.461 0.919,0.352 5.454,-0.068 10.403,-0.965 6.696,-1.214 9.571,-1.41 9.409,-0.643 -0.053,0.252 -0.135,0.642 -0.181,0.867 -0.047,0.225 -0.336,0.837 -0.643,1.361 -0.307,0.524 -0.525,0.985 -0.485,1.026 0.04,0.04 -0.186,0.44 -0.502,0.889 -1.131,1.603 -1.476,2.262 -1.557,2.978 l -0.081,0.725 0.947,0.119 c 3.241,0.405 6.582,-0.678 10.395,-3.368 3.964,-2.798 5.59,-3.888 5.796,-3.888 0.563,0 0.524,1.28 -0.098,3.223 -1.042,3.253 -0.529,3.839 2.445,2.79 1.355,-0.478 4.789,-2.569 5.455,-3.322 0.851,-0.96 0.847,-0.982 0.849,5.002 10e-4,4.732 0.015,4.964 0.344,5.407 0.856,1.152 2.302,1.492 4.243,0.996 1.748,-0.446 1.737,-0.422 1.804,-3.999 l 0.058,-3.061 0.978,0.397 c 1.898,0.772 4.388,1.31 5.782,1.249 0.612,-0.026 0.391,-1.356 -0.307,-1.849 -0.185,-0.13 -1.48,-2.56 -1.482,-2.781 -0.002,-0.145 0.396,-0.172 1.493,-0.1 1.958,0.126 1.991,0.052 1.048,-2.411 -0.135,-0.354 0.327,-0.239 2.808,0.698 l 2.398,0.906 0.048,1.427 0.049,1.428 h 1.233 c 1.541,0 1.566,0.047 0.753,1.438 -1.06,1.813 -0.861,1.976 2.251,1.843 2.328,-0.099 3.19,-0.309 5.884,-1.435 3.094,-1.292 3.152,-1.29 2.522,0.092 -0.188,0.414 -0.32,0.954 -0.291,1.199 l 0.051,0.446 1.542,-0.023 c 0.848,-0.012 1.542,0.035 1.542,0.105 0,0.311 -0.55,1.349 -1.325,2.501 -0.916,1.362 -1.047,1.908 -0.491,2.053 0.579,0.152 4.305,-0.542 5.587,-1.04 l 1.197,-0.465 0.058,2.991 0.057,2.99 0.461,0.397 c 1.304,1.121 3.88,1.183 5,0.119 1.01,-0.96 1.016,-0.998 0.887,-6.045 -0.143,-5.611 -0.126,-5.683 1.068,-4.603 1.196,1.08 5.037,3.13 6.496,3.467 1.792,0.414 2.085,-0.4 1.171,-3.254 -1.029,-3.212 -0.482,-3.821 1.852,-2.064 0.514,0.388 1.489,1.124 2.167,1.637 4.067,3.079 7.033,4.385 10.44,4.596 l 1.708,0.105 v -1.449 -1.45 l -0.809,-1.201 c -1.145,-1.699 -1.825,-3.092 -1.887,-3.867 l -0.054,-0.667 h 1.375 1.376 L 400,225.878 v -9.706 l -0.875,-0.439 c -2.212,-1.111 -4.272,-3.16 -3.602,-3.584 0.544,-0.345 1.977,-0.175 1.977,0.234 0,0.714 0.909,1.005 2.125,0.679 L 400,212.961 v -6.114 c 0,-4.533 -0.052,-6.165 -0.2,-6.314 -0.156,-0.155 -0.156,-0.2 0,-0.2 0.151,0 0.2,-1.122 0.2,-4.549 v -4.549 l -1.954,-1.576 C 395.183,187.35 394.029,186 394.918,186 c 0.334,0 3.66,0.994 4.874,1.456 0.159,0.061 0.208,-0.375 0.208,-1.851 v -1.93 l -0.458,-0.235 c -0.688,-0.353 -4.025,-1.702 -6.289,-2.543 -2.393,-0.888 -4.508,-1.868 -4.849,-2.245 -0.483,-0.533 1.673,-0.518 4.679,0.035 0.642,0.118 2.442,0.217 4,0.222 l 2.834,0.008 0.048,-1.085 c 0.049,-1.091 -0.332,-1.665 -1.104,-1.665 -0.094,0 -0.87,-0.333 -1.724,-0.739 -0.855,-0.406 -2.307,-1.067 -3.229,-1.469 -0.921,-0.402 -2.022,-0.969 -2.446,-1.261 -0.425,-0.292 -0.838,-0.531 -0.919,-0.531 -0.661,0 -1.699,-1.949 -1.15,-2.158 0.417,-0.159 2.454,0.171 2.834,0.458 1.558,1.177 5.847,1.996 6.274,1.198 0.844,-1.576 -6.287,-7.498 -9.028,-7.498 -0.664,0 -3.793,-1.569 -3.572,-1.79 0.327,-0.327 2.558,0.063 6.017,1.052 2.316,0.662 4.791,0.858 5.094,0.404 0.924,-1.384 -2.08,-4.092 -8.155,-7.354 -2.373,-1.273 -4.192,-2.738 -3.93,-3.162 0.053,-0.087 0.988,-0.136 2.098,-0.111 2.049,0.045 2.475,-0.087 2.475,-0.768 0,-0.424 -3.249,-3.152 -5.187,-4.355 -2.343,-1.454 -5.414,-4.398 -4.188,-4.014 7.269,2.278 9.695,2.511 9.846,0.945 0.075,-0.78 -2.064,-2.827 -4.94,-4.731 -0.735,-0.486 -1.864,-1.602 -1.864,-1.843 0,-0.126 0.643,0.119 1.964,0.75 3.232,1.541 3.37,-0.948 0.183,-3.287 -0.445,-0.327 -0.952,-0.775 -1.125,-0.996 -0.423,-0.537 -3.058,-2.733 -3.285,-2.737 -0.227,-0.004 -4.071,-3.955 -4.071,-4.183 0,-0.221 1.007,-0.036 2.081,0.382 1.046,0.407 2.895,0.578 3.39,0.313 0.905,-0.484 0.179,-1.744 -2.602,-4.515 -2.408,-2.401 -3.202,-3.36 -3.202,-3.866 0,-0.342 -0.104,-0.343 2.072,0.03 2.717,0.465 3.223,-0.056 2.011,-2.069 -0.321,-0.533 -0.583,-1.029 -0.583,-1.102 0,-0.073 -0.326,-0.515 -0.725,-0.982 -1.289,-1.511 -2.662,-3.524 -2.507,-3.678 0.082,-0.081 0.561,-0.171 1.065,-0.199 l 0.917,-0.051 0.049,-0.667 c 0.049,-0.671 -0.668,-2.112 -1.551,-3.118 -1.334,-1.518 -1.982,-3.465 -1.153,-3.465 0.277,0 0.305,-0.461 0.078,-1.314 -0.672,-2.529 -1.019,-4.158 -1.175,-5.519 -0.436,-3.795 -0.532,-4.43 -0.799,-5.234 -0.477,-1.437 -1.866,-1.127 -1.866,0.416 0,0.639 -1.164,6.493 -1.682,8.462 -0.489,1.856 -2.146,5.721 -2.903,6.772 -1.773,2.461 -1.667,3.021 0.629,3.344 1.106,0.155 1.158,0.5 0.346,2.292 -0.729,1.61 -0.505,1.297 -4.473,6.244 -3.937,4.908 -3.845,4.776 -4.262,6.096 l -0.36,1.143 0.342,0.342 c 0.424,0.424 2.59,0.076 3.763,-0.605 0.987,-0.572 3.401,-1.607 3.733,-1.599 0.586,0.013 -1.165,1.316 -4.736,3.526 -3.851,2.383 -5.444,3.793 -5.366,4.748 l 0.053,0.636 1.666,-0.022 c 1.139,-0.015 2.291,-0.164 3.635,-0.469 1.083,-0.246 2.04,-0.423 2.127,-0.394 0.186,0.062 -1.794,2.302 -2.035,2.302 -0.09,0 -0.804,0.543 -1.586,1.208 -2.739,2.325 -3.309,2.781 -3.486,2.786 -0.098,0.003 -0.591,0.399 -1.095,0.881 -0.503,0.481 -1.566,1.488 -2.361,2.237 -3.285,3.098 -1.708,3.735 4.656,1.882 2.014,-0.587 3.229,-0.786 3.229,-0.528 0,0.37 -2.935,2.274 -5.623,3.649 -3.908,1.998 -4.877,2.724 -4.877,3.651 0,0.62 0.529,0.777 2.384,0.71 l 1.67,-0.06 0.277,0.5 c 0.34,0.613 1.363,0.747 2.702,0.355 l 0.847,-0.249 -0.732,0.75 c -1.285,1.317 -3.098,2.619 -3.347,2.404 -0.12,-0.104 -0.914,-0.718 -1.765,-1.364 -0.851,-0.646 -1.771,-1.379 -2.043,-1.628 -0.273,-0.249 -0.799,-0.636 -1.17,-0.86 -1.084,-0.656 -2.189,-1.489 -3.747,-2.824 -2.276,-1.951 -2.377,-2.047 -1.993,-1.895 1.018,0.403 3.046,0.268 3.28,-0.219 l 0.226,-0.47 1.79,0.062 c 1.966,0.067 2.291,-0.046 2.281,-0.79 -0.013,-0.964 -0.493,-1.407 -2.744,-2.531 -1.843,-0.92 -4.494,-2.396 -5.539,-3.083 -0.48,-0.316 -0.916,-0.574 -0.969,-0.574 -0.196,0 -1.242,-0.878 -1.242,-1.043 0,-0.231 1.248,-0.048 3,0.44 4.526,1.261 7.165,1.197 6.45,-0.157 -0.389,-0.736 -2.745,-2.968 -5.366,-5.083 -1.284,-1.035 -2.359,-1.944 -2.389,-2.02 -0.031,-0.075 -0.133,-0.137 -0.227,-0.137 -0.28,0 -2.668,-2.087 -3.526,-3.081 -0.919,-1.064 -0.95,-1.055 1.559,-0.483 1.301,0.297 2.451,0.444 3.583,0.459 l 1.666,0.021 0.054,-0.555 c 0.09,-0.942 -2.578,-3.317 -5.174,-4.605 -0.524,-0.26 -1.088,-0.593 -1.252,-0.74 -0.165,-0.146 -0.823,-0.622 -1.464,-1.058 -3.51,-2.386 -3.058,-2.594 1.173,-0.537 3.95,1.921 5.178,1.491 3.822,-1.338 -0.422,-0.881 -1.874,-2.884 -2.899,-4 -0.337,-0.367 -0.813,-0.967 -1.057,-1.333 -0.245,-0.367 -1.079,-1.408 -1.854,-2.314 -0.774,-0.906 -1.588,-1.994 -1.809,-2.417 -0.221,-0.423 -0.647,-1.239 -0.947,-1.813 -0.704,-1.348 -0.624,-1.791 0.367,-2.036 2.353,-0.581 2.409,-0.697 1.207,-2.521 -0.413,-0.626 -0.75,-1.206 -0.75,-1.289 0,-0.083 -0.378,-0.836 -0.84,-1.673 -1.334,-2.418 -2.609,-6.995 -3.142,-11.282 -0.349,-2.8 -1.347,-4.228 -1.982,-2.835 M 35.413,108.01 c -0.06,0.192 -0.066,0.393 -0.012,0.447 0.055,0.054 0.099,-0.02 0.099,-0.165 0,-0.145 0.09,-0.294 0.2,-0.331 0.146,-0.049 0.149,-0.098 0.012,-0.183 -0.109,-0.067 -0.234,0.03 -0.299,0.232 m -1.805,4.735 c -0.051,0.134 -0.022,0.289 0.066,0.343 0.088,0.054 0.159,0.063 0.159,0.019 0,-0.044 0.046,-0.198 0.101,-0.343 0.056,-0.145 0.027,-0.264 -0.065,-0.264 -0.092,0 -0.209,0.11 -0.261,0.245 m 63.475,73.015 c -0.55,0.502 -1.581,1.3 -2.291,1.775 -0.711,0.475 -1.292,0.936 -1.292,1.024 0,0.087 -0.137,0.035 -0.305,-0.117 -0.167,-0.151 -0.364,-0.275 -0.436,-0.275 -0.072,0 -0.388,-0.225 -0.701,-0.5 l -0.57,-0.5 h 0.496 c 0.686,0 2.664,-0.736 4.315,-1.606 1.814,-0.955 1.999,-0.908 0.784,0.199 m 3.659,3.782 c -1.419,1.58 -2.054,2.198 -2.646,2.579 -0.359,0.231 -0.997,0.739 -1.417,1.129 -0.419,0.39 -1.201,1.015 -1.737,1.388 l -0.974,0.679 -1.31,-0.812 c -1.897,-1.177 -4.068,-2.338 -4.369,-2.338 -0.144,0 -0.286,-0.061 -0.317,-0.136 -0.03,-0.075 -0.618,-0.454 -1.305,-0.843 -3.12,-1.765 -2.219,-1.776 2.75,-0.034 3.195,1.12 5.996,2.013 6.317,2.013 0.581,0 0.34,-1.484 -0.399,-2.459 l -0.663,-0.875 h 2.144 c 1.875,0 2.276,-0.051 3.205,-0.408 0.584,-0.225 1.095,-0.412 1.135,-0.417 0.04,-0.004 -0.146,0.236 -0.414,0.534 m 188.841,2.032 c 1.192,0.224 2.968,0.533 3.947,0.688 l 1.781,0.28 -1.098,1.354 c -0.604,0.745 -1.151,1.376 -1.217,1.402 -0.295,0.12 -6.163,-3.251 -6.163,-3.539 0,-0.036 -0.045,-0.184 -0.101,-0.329 -0.14,-0.364 0.254,-0.345 2.851,0.144 m 14.335,3.758 c -0.239,0.25 -0.638,0.558 -0.885,0.685 -0.387,0.199 -1.908,1.291 -3.328,2.388 l -0.416,0.322 -1.061,-0.572 c -1.318,-0.71 -1.343,-0.62 0.397,-1.444 3.969,-1.88 6.373,-2.506 5.293,-1.379 m -9.348,10.979 c 0.275,0.446 -0.516,0.685 -0.904,0.272 l -0.391,-0.416 h 0.603 c 0.331,0 0.642,0.065 0.692,0.144 m 13.806,0.255 c 0.526,0.4 0.001,1.226 -1.403,2.206 -1.338,0.934 -4.424,2.609 -4.608,2.501 -0.203,-0.119 -3.754,-1.8 -4.532,-2.145 l -0.75,-0.333 0.917,-0.321 c 0.778,-0.273 1.022,-0.292 1.612,-0.13 0.776,0.214 1.055,0.122 1.055,-0.347 0,-0.64 1.952,-1.053 3.104,-0.657 1.734,0.597 2.729,0.4 2.729,-0.54 0,-0.532 1.274,-0.691 1.876,-0.234 m -5.542,10.309 c 10e-4,0.115 -0.618,0.792 -1.375,1.506 l -1.376,1.297 -0.049,-1.271 c -0.03,-0.794 0.025,-1.36 0.146,-1.506 0.259,-0.312 2.653,-0.336 2.654,-0.026 m -6.828,2.049 c 0.501,0.508 1.229,1.112 1.619,1.34 0.868,0.511 0.89,0.402 -0.23,1.145 -1,0.664 -0.966,0.67 -1.472,-0.242 -0.127,-0.229 -0.493,-0.661 -0.814,-0.96 -0.321,-0.299 -0.818,-0.839 -1.105,-1.201 l -0.521,-0.659 0.55,-0.158 c 0.917,-0.265 1.028,-0.223 1.973,0.735 m -198.457,4.847 c 0.315,0.315 -3.325,4.396 -3.92,4.396 -0.236,0 -0.623,-0.422 -1.018,-1.109 -0.068,-0.118 0.231,-0.39 0.764,-0.697 0.481,-0.277 1.316,-0.865 1.855,-1.307 1.315,-1.079 2.093,-1.509 2.319,-1.283 m 195.013,0.708 c 0.266,0.105 0.133,0.285 -0.912,1.229 -1.435,1.297 -1.373,1.295 -1.045,0.035 0.368,-1.41 0.828,-1.707 1.957,-1.264"
       inkscape:connector-curvature="0"
       style="fill:#34648c;fill-rule:evenodd;stroke:none" />
    <path
       id="path3"
       d="m 20.583,226.254 c -0.091,0.034 -0.493,0.145 -0.891,0.248 -0.399,0.103 -0.697,0.215 -0.662,0.25 0.034,0.035 0.586,-0.076 1.225,-0.246 0.639,-0.17 1.012,-0.31 0.828,-0.311 -0.183,-0.001 -0.408,0.026 -0.5,0.059 m 2.201,1.704 c -0.696,1.127 -1.332,2.295 -1.156,2.125 0.223,-0.215 1.712,-2.75 1.616,-2.75 -0.04,0 -0.247,0.282 -0.46,0.625 m 35.158,0.924 -0.642,0.868 0.678,-0.75 c 0.373,-0.412 0.761,-0.729 0.862,-0.704 0.102,0.025 0.137,-0.031 0.079,-0.125 -0.177,-0.287 -0.311,-0.19 -0.977,0.711 m 7.559,-0.285 c 0,0.084 0.194,0.378 0.43,0.653 l 0.43,0.5 -0.377,-0.583 c -0.482,-0.749 -0.484,-0.751 -0.483,-0.57 m -27.597,1.013 c -0.014,0.645 0.051,0.629 0.248,-0.06 0.098,-0.341 0.083,-0.494 -0.047,-0.494 -0.103,0 -0.194,0.25 -0.201,0.554 m -2.309,0.312 c -0.911,0.407 -1.729,0.812 -1.819,0.902 -0.146,0.146 3.543,-1.438 3.71,-1.593 0.212,-0.196 -0.42,0.035 -1.891,0.691 m 26.258,-0.407 c 0.216,0.137 1.617,0.223 1.466,0.091 -0.038,-0.034 -0.435,-0.101 -0.883,-0.149 -0.498,-0.054 -0.725,-0.031 -0.583,0.058 m -15.722,1.36 c -0.403,0.39 -0.504,0.513 -0.224,0.275 0.28,-0.238 0.695,-0.557 0.922,-0.708 0.226,-0.151 0.327,-0.275 0.224,-0.275 -0.103,0 -0.518,0.318 -0.922,0.708 m -8.557,0.393 c -0.231,1.845 0.235,4.594 0.918,5.424 0.262,0.317 0.246,0.233 -0.08,-0.442 -0.526,-1.085 -0.811,-3.006 -0.688,-4.625 0.115,-1.498 0.02,-1.722 -0.15,-0.357 m 17.218,3.649 c 0.047,1.375 0.113,2.531 0.147,2.569 0.103,0.117 0.027,-2.664 -0.106,-3.903 -0.079,-0.727 -0.094,-0.225 -0.041,1.334 m -12.292,-0.5 c -0.683,0.687 -1.204,1.25 -1.158,1.25 0.046,0 0.642,-0.563 1.325,-1.25 0.683,-0.688 1.204,-1.25 1.158,-1.25 -0.046,0 -0.642,0.562 -1.325,1.25 m 28.25,-1.091 c 0.183,0.083 0.471,0.156 0.639,0.162 0.168,0.007 0.618,0.264 1,0.572 0.65,0.524 1.796,1.29 1.611,1.076 -0.48,-0.554 -2.411,-1.777 -2.937,-1.86 -0.453,-0.071 -0.547,-0.056 -0.313,0.05 m 245.116,0.745 c -1.208,0.884 -1.679,1.28 -1.199,1.007 0.435,-0.248 2.5,-1.768 2.5,-1.841 0,-0.115 -0.033,-0.094 -1.301,0.834 m 11.967,-0.025 c -0.321,0.296 -0.771,0.671 -1,0.834 -0.389,0.277 -0.39,0.284 -0.027,0.111 0.215,-0.102 0.665,-0.431 1,-0.731 0.336,-0.3 0.723,-0.587 0.861,-0.639 0.222,-0.084 0.222,-0.096 0,-0.103 -0.138,-0.005 -0.513,0.233 -0.834,0.528 M 24.667,234.021 c -1.664,0.424 -3.814,0.585 -4.344,0.326 -0.384,-0.188 -0.389,-0.185 -0.083,0.06 0.558,0.447 4.713,0.029 5.75,-0.578 0.359,-0.21 0.123,-0.176 -1.323,0.192 m 321.756,-0.212 c 0.088,0.081 0.532,0.27 0.987,0.421 0.455,0.15 0.755,0.208 0.667,0.127 -0.088,-0.08 -0.532,-0.269 -0.987,-0.42 -0.455,-0.151 -0.755,-0.208 -0.667,-0.128 M 278,234.266 c 0,0.177 -0.154,0.621 -0.341,0.986 -0.336,0.653 -0.336,0.657 -0.007,0.248 0.354,-0.44 0.615,-1.289 0.447,-1.456 -0.054,-0.055 -0.099,0.045 -0.099,0.222 m -4.691,0.151 c 0.103,0.183 0.426,0.595 0.717,0.916 0.398,0.439 0.462,0.474 0.258,0.14 -0.335,-0.545 -1.243,-1.529 -0.975,-1.056 m 48.312,3.057 c -0.776,0.212 -1.065,0.225 -1.5,0.066 -0.487,-0.178 -0.507,-0.173 -0.214,0.048 0.476,0.361 2.419,0.162 2.689,-0.275 0.05,-0.081 0.067,-0.136 0.039,-0.124 -0.028,0.012 -0.485,0.14 -1.014,0.285 m 27.707,-0.187 c 0.712,0.036 1.307,0.148 1.388,0.263 0.101,0.141 0.123,0.127 0.075,-0.05 -0.053,-0.194 -0.363,-0.253 -1.388,-0.262 l -1.32,-0.013 1.245,0.062 m 35.686,0.261 c 0.038,0.027 0.369,0.257 0.736,0.512 l 0.667,0.464 -0.577,-0.512 c -0.318,-0.282 -0.649,-0.512 -0.736,-0.512 -0.088,0 -0.128,0.022 -0.09,0.048 m -76.43,0.474 c -1.469,0.391 -3.941,0.563 -4.896,0.341 -0.556,-0.13 -0.682,-0.124 -0.533,0.025 0.487,0.487 5.732,0.051 6.678,-0.556 0.327,-0.209 0.152,-0.183 -1.249,0.19 m 51.333,0.329 c -0.459,0.185 -0.984,0.409 -1.167,0.497 l -0.333,0.161 0.333,-0.077 c 0.6,-0.139 2.506,-0.915 2.25,-0.916 -0.137,0 -0.625,0.151 -1.083,0.335 m -24.584,-0.08 c 0,0.116 1.536,0.745 1.691,0.693 0.077,-0.026 -0.272,-0.209 -0.776,-0.407 -0.503,-0.198 -0.915,-0.326 -0.915,-0.286 m -221.404,0.88 c 0.081,0.818 0.452,1.849 0.664,1.849 0.047,0 -0.007,-0.169 -0.12,-0.375 -0.112,-0.206 -0.301,-0.825 -0.419,-1.375 l -0.215,-1 0.09,0.901 m 1.009,2.008 c 0.451,0.48 2.511,0.577 3.229,0.151 0.158,-0.093 0.066,-0.104 -0.25,-0.028 -0.782,0.187 -2.295,0.127 -2.753,-0.109 -0.293,-0.151 -0.359,-0.155 -0.226,-0.014 m 263.526,0.268 c 0.591,0.414 3.051,1.613 3.136,1.529 0.042,-0.043 -0.301,-0.24 -0.764,-0.439 -0.462,-0.199 -1.217,-0.584 -1.679,-0.856 -0.892,-0.526 -1.312,-0.668 -0.693,-0.234 m 11.788,-0.127 c 0.23,0.256 2.782,1.701 2.994,1.696 0.094,-0.002 -0.279,-0.246 -0.829,-0.543 -0.55,-0.297 -1.3,-0.72 -1.667,-0.94 -0.367,-0.22 -0.591,-0.316 -0.498,-0.213 m -28.064,2.001 c -0.974,1.484 -1.064,1.961 -0.415,2.208 0.242,0.092 0.476,0.131 0.52,0.087 0.044,-0.044 -0.117,-0.129 -0.357,-0.189 -0.6,-0.151 -0.565,-0.635 0.12,-1.659 0.965,-1.442 1.151,-1.748 1.068,-1.748 -0.045,0 -0.466,0.586 -0.936,1.301 M 54.793,242.602 c -0.06,0.285 -0.316,0.772 -0.57,1.083 -0.371,0.455 -0.386,0.5 -0.075,0.232 0.488,-0.421 0.89,-1.188 0.813,-1.553 -0.035,-0.167 -0.103,-0.071 -0.168,0.238 m 275.077,2.457 c 0.706,0.649 2.816,0.782 4.047,0.256 0.203,-0.087 0.073,-0.095 -0.334,-0.021 -1.37,0.252 -3.053,0.122 -3.631,-0.279 l -0.535,-0.373 0.453,0.417 m 33.213,0.274 -0.666,0.12 0.583,0.004 c 0.321,0.002 0.808,-0.054 1.083,-0.124 0.678,-0.172 -0.036,-0.172 -1,0 m 11.159,5.042 -0.659,0.708 0.709,-0.658 c 0.658,-0.613 0.785,-0.758 0.658,-0.758 -0.027,0 -0.345,0.318 -0.708,0.708 m -5.251,-0.156 c 0.266,0.343 1.05,0.784 1.376,0.774 0.119,-0.003 -0.044,-0.119 -0.362,-0.257 -0.318,-0.138 -0.729,-0.379 -0.914,-0.535 -0.32,-0.271 -0.324,-0.27 -0.1,0.018"
       inkscape:connector-curvature="0"
       style="fill:#58b0c4;fill-rule:evenodd;stroke:none" />
    <path
       id="path4"
       d=""
       inkscape:connector-curvature="0"
       style="fill:#5864c8;fill-rule:evenodd;stroke:none" />
  </g>
  <path
     inkscape:connector-curvature="0"
     style="fill:#34648c;fill-rule:evenodd;stroke:none;stroke-width:0.77678001"
     id="path2-6"
     d="m 36.908948,105.82855 c -0.334015,0.4249 -0.494809,1.49841 -0.806298,5.39163 -0.38839,4.84711 -0.654048,6.06743 -1.724451,7.91695 -0.368971,0.63696 -0.751147,1.31353 -0.849021,1.50307 -0.09787,0.18953 -0.337122,0.51888 -0.532094,0.7325 -0.886306,0.97175 -1.943504,2.82049 -1.943504,3.39997 0,0.75891 0.611326,0.87387 1.876701,0.35188 0.427229,-0.17556 0.793092,-0.32004 0.811735,-0.32004 0.233034,-0.004 -0.756584,1.29334 -1.748532,2.2915 -4.709617,4.73914 -5.077811,7.16813 -0.84203,5.54621 0.659487,-0.25245 1.318973,-0.45907 1.465784,-0.45907 0.146812,0 0.354212,-0.087 0.461408,-0.1942 0.271873,-0.27187 0.575594,-0.25167 0.476943,0.0326 -0.09088,0.25945 -0.951556,1.19702 -1.099144,1.19702 -0.103312,0 -0.852905,0.65871 -1.973021,1.73377 -0.362757,0.34878 -1.158956,1.06031 -1.768729,1.58153 -2.398696,2.05225 -1.781933,2.79485 1.820773,2.19129 0.676575,-0.11341 1.388106,-0.23225 1.580747,-0.26255 0.680459,-0.10952 0.891744,0.46219 0.421792,1.14265 -0.548407,0.79309 -3.240727,3.32306 -3.535903,3.32306 -0.08078,0 -0.249346,0.0854 -0.374408,0.18954 -0.389944,0.32391 -1.23042,0.94767 -2.040601,1.51472 -3.33161,2.32878 -4.529404,3.65242 -3.887007,4.29481 0.317703,0.31771 1.87437,0.28897 2.989826,-0.0559 1.147304,-0.35421 1.608711,-0.41014 1.608711,-0.19575 0,0.65017 1.092153,0.7597 2.718731,0.27265 1.590068,-0.47539 1.637452,-0.42101 0.411693,0.48394 -2.867872,2.11595 -3.208878,3.47453 -0.827271,3.2982 l 0.998163,-0.0738 -0.355766,0.28741 c -0.46063,0.3713 -3.279565,1.90311 -5.470085,2.97273 -0.284301,0.13905 -0.650941,0.38995 -0.813288,0.55773 -0.163124,0.16779 -0.565496,0.37286 -0.894074,0.45597 -0.347221,0.087 -0.95544,0.42102 -1.449472,0.79465 -0.468398,0.35421 -1.111572,0.75581 -1.430052,0.89252 -1.853397,0.79387 -3.281119,2.98672 -2.100413,3.22597 0.619094,0.12583 2.978175,-0.18332 4.454057,-0.58414 3.269467,-0.88709 6.44106,-0.99195 6.44106,-0.21284 0,0.21439 -0.50413,0.78377 -0.692888,0.78377 -0.100981,0 -0.881645,0.52588 -0.990395,0.66648 -0.09166,0.11885 -2.761453,1.5955 -3.689705,2.0406 -2.077886,0.99661 -2.599882,1.2343 -2.724167,1.23974 -0.07457,0.003 -0.219829,0.0823 -0.323918,0.17478 -0.103311,0.0924 -0.614433,0.40159 -1.134875,0.68589 -1.161286,0.63541 -1.312758,1.17605 -0.349551,1.2545 0.283525,0.0225 0.574817,0.0893 0.647058,0.14837 0.07224,0.0583 0.71386,0.0505 1.426168,-0.0171 2.481812,-0.23614 2.816604,-0.0435 1.879031,1.07817 -1.272366,1.52326 -0.660263,1.83864 2.345875,1.20944 3.643875,-0.76202 4.514646,-0.81484 4.301031,-0.25944 -0.087,0.22682 -1.245955,1.09992 -1.460346,1.09992 -0.142928,0 -0.782218,0.36509 -0.916601,0.52277 -0.1204,0.14215 -4.908473,2.58435 -5.066936,2.58435 -0.330131,0 -3.95148,2.10352 -4.351521,2.52764 -0.830378,0.88087 -0.375962,1.56677 0.956216,1.44248 0.452863,-0.0419 0.824163,-0.0544 0.824163,-0.0272 0,0.13205 -2.634061,1.85184 -3.615134,2.36063 -0.610549,0.31693 -1.197018,0.65017 -1.304214,0.74183 -0.107195,0.0909 -0.77678,0.50257 -1.489087,0.91427 -0.712307,0.41091 -1.411409,0.8529 -1.55356,0.98106 -0.142151,0.12895 -0.420238,0.2944 -0.61754,0.36975 -0.387613,0.14681 -2.2782959,1.38655 -2.4895801,1.63279 -0.071464,0.0831 -0.6361828,0.54064 -1.2552765,1.01681 -1.546569,1.1908 -1.7873708,1.4984 -1.7873708,2.28606 0,1.39665 2.3707326,1.3749 7.4446594,-0.0676 3.460555,-0.98418 3.952257,-1.05176 2.944773,-0.40781 -3.620571,2.31403 -4.04547,2.67445 -4.04547,3.42948 0,0.89796 1.572203,0.90185 6.60263,0.0155 1.075064,-0.18954 3.365788,-0.16546 3.365788,0.035 0,0.3045 -1.227312,1.23741 -2.518321,1.91477 -0.7092,0.37207 -1.368686,0.75658 -1.46656,0.85446 -0.09788,0.0979 -0.303721,0.24546 -0.458301,0.3278 -0.290515,0.15535 -1.92486,1.32208 -2.321018,1.65609 -0.293623,0.24857 -0.295177,1.00904 -0.0023,1.33218 0.212838,0.23536 0.211285,0.25478 -0.03262,0.39849 -0.343337,0.20274 -2.550946,1.10769 -2.722614,1.11545 -0.170115,0.009 -3.5949384,1.81145 -3.6834913,1.93885 -0.088553,0.12894 -1.6483272,1.17526 -1.7524158,1.17526 -0.3588723,0 -4.1821837,3.71301 -4.4835743,4.35463 -0.7674587,1.63202 0.8855292,2.14547 4.7476795,1.47433 0.8964042,-0.15535 1.440927,-0.19963 1.4696679,-0.11885 0.024857,0.0715 0.1118563,0.0412 0.194195,-0.0668 0.2516767,-0.33246 6.056554,-1.91476 6.263177,-1.70736 0.04195,0.0412 -0.519665,0.65871 -1.247508,1.37179 -1.258384,1.23431 -1.320526,1.32053 -1.282464,1.78116 l 0.04039,0.48471 0.905726,0.0357 c 0.761244,0.0303 1.227312,-0.0575 2.90438,-0.54996 2.405688,-0.70609 3.392199,-0.73639 3.598822,-0.11186 0.09244,0.2812 -3.413171,1.84097 -5.466978,2.43288 -0.952332,0.2742 -4.500663,1.71125 -6.0852943,2.46395 -1.7757192,0.84358 -2.3831612,1.10147 -2.5967757,1.10147 -0.1071956,0 -0.2275965,0.087 -0.2687659,0.19342 -0.040392,0.10564 -0.4225683,0.4047 -0.8490205,0.66337 -3.114888,1.89223 -5.6316553,4.47114 -5.5174686,5.65263 0.056705,0.58802 0.7356107,0.60744 3.3137436,0.094 3.4838585,-0.69289 4.1588803,-0.60744 3.594938,0.45286 -0.970975,1.82543 -0.2112842,2.01108 4.2652994,1.04166 1.694157,-0.36664 3.117218,-0.17555 2.673677,0.3581 -0.299061,0.36042 -2.250332,1.21954 -4.6156273,2.03128 -1.2816871,0.44043 -2.708632,0.93213 -3.1715929,1.09293 -0.4629609,0.16079 -1.1201168,0.35965 -1.4603464,0.44198 -1.3049905,0.31382 -3.9242928,1.74155 -4.5270741,2.46706 -0.1903111,0.22915 -0.2268197,0.54297 -0.2268197,1.95515 v 1.68251 l 1.1325452,-0.0769 c 0.8342618,-0.0567 1.7477551,-0.261 3.4636622,-0.77601 3.6027058,-1.07972 5.1189804,-1.36402 5.8258502,-1.08982 l 0.3883901,0.1507 -0.9585466,0.89485 c -0.5266569,0.49248 -1.0307871,0.89563 -1.1185633,0.89563 -0.1910878,0 -1.500739,1.38888 -1.9497178,2.06856 -0.3526582,0.5321 -0.5538442,1.99166 -0.3223637,2.33267 0.2811943,0.41247 1.8409686,0.23614 3.7013568,-0.41868 0.9259213,-0.32625 1.9458343,-0.68202 2.2658673,-0.79077 1.006707,-0.34178 3.56542,-0.86222 4.223353,-0.85834 l 0.631522,0.004 -0.518112,0.45674 c -0.284302,0.2509 -0.674245,0.5989 -0.86611,0.77368 -0.191864,0.17477 -0.774449,0.65793 -1.294892,1.07273 -1.173715,0.93757 -2.145467,1.97224 -2.227028,2.37151 -0.0334,0.16623 -0.09088,0.56472 -0.127392,0.88475 l -0.06603,0.58259 0.770565,0.0404 c 0.565496,0.0287 1.019912,-0.0466 1.708139,-0.2843 0.515782,-0.17789 1.318973,-0.38451 1.785818,-0.4583 0.466068,-0.0746 1.135652,-0.22294 1.48831,-0.33013 1.155849,-0.35033 1.228089,-0.21828 0.463738,0.84979 -1.677068,2.34433 -3.115665,5.44057 -2.676784,5.76138 0.881645,0.64395 6.013831,-0.602 9.780437,-2.37462 4.350745,-2.04759 4.332103,-2.0437 3.988766,-0.77678 -0.570157,2.1043 0.05437,5.27589 1.038555,5.27589 0.486264,0 0.751923,-0.22526 3.490072,-2.96108 1.301884,-1.30111 2.438313,-2.34199 2.524535,-2.31325 0.117294,0.0396 0.173222,1.26693 0.221383,4.90226 0.07457,5.5563 0.01709,5.28598 1.255276,5.89187 1.371794,0.67114 3.184798,0.55229 3.999641,-0.26177 0.744155,-0.74416 0.831931,-1.733 0.558505,-6.26085 l -0.142928,-2.36141 0.95777,-1.06885 c 0.765128,-0.85523 2.015744,-2.34743 2.118279,-2.52842 0.01088,-0.0194 0.275757,0.11108 0.588799,0.28974 0.313043,0.17866 0.68512,0.3278 0.828048,0.33091 0.14215,0.003 0.491701,0.11885 0.77678,0.25634 1.192357,0.57559 1.662309,0.34023 1.936512,-0.96943 0.100205,-0.47772 0.207401,-0.89407 0.237695,-0.92514 0.03107,-0.0303 0.536755,0.64473 1.123224,1.50074 1.55589,2.26897 2.564928,3.15217 4.016729,3.51493 0.469952,0.11729 0.99894,0.3946 1.553561,0.81484 1.485203,1.12322 3.324618,1.70581 4.334432,1.37257 0.578701,-0.19109 1.328294,-1.82388 1.546569,-3.36656 0.128169,-0.90884 0.158463,-0.92748 1.11468,-0.68124 0.691334,0.17711 1.557443,0.21594 4.979936,0.22138 l 4.142568,0.006 0.982627,-0.48471 c 1.315089,-0.64784 1.801353,-0.74649 1.801353,-0.36431 0,1.03078 0.708423,1.10768 3.236065,0.35032 2.389376,-0.71541 2.725722,-0.65871 2.265868,0.3814 -0.591907,1.33839 -0.319257,2.11984 0.674245,1.93341 0.598897,-0.11263 1.969137,-0.67425 2.248778,-0.92282 0.112633,-0.0994 0.282748,-0.18099 0.377515,-0.18099 0.09554,0 0.594237,-0.26255 1.107688,-0.58258 1.127885,-0.70299 1.093707,-0.69988 1.093707,-0.0932 0,0.91893 1.033117,1.49763 1.55356,0.86999 0.48005,-0.57793 0.539085,-0.29518 0.507237,2.42744 -0.04816,4.1814 0.187204,4.7034 2.112842,4.67854 1.94428,-0.0241 2.119056,-0.3814 2.069342,-4.23966 -0.04117,-3.14752 -0.01243,-3.38909 0.372854,-3.18325 0.638513,0.34179 1.565212,0.0994 1.859612,-0.48626 0.150695,-0.29906 0.312265,-0.58259 0.358872,-0.62997 0.04738,-0.0474 0.685897,0.20662 1.419177,0.56472 2.937005,1.4316 4.498337,1.59007 4.507657,0.45597 0.005,-0.55618 0.17944,-0.59424 1.0471,-0.2276 2.77233,1.17216 4.16199,1.0673 3.49629,-0.26566 -0.15847,-0.3177 -0.34334,-0.61132 -0.41014,-0.65249 -0.22915,-0.14138 -0.12196,-0.29829 0.26022,-0.38218 0.82649,-0.18176 0.64317,-0.67813 -0.90728,-2.46161 -0.98962,-1.13876 -0.70998,-1.25295 1.10769,-0.45054 4.79661,2.11751 7.79343,2.38705 7.52622,0.67736 -0.0777,-0.49714 -0.174,-0.48549 1.31975,-0.16002 1.39665,0.30527 2.9572,0.4583 3.43803,0.33712 0.39382,-0.0986 0.48082,-0.70687 0.14137,-0.98884 -0.31848,-0.2641 -0.18876,-0.26333 1.37024,0.005 2.73737,0.47151 3.77437,0.27187 3.8505,-0.74182 0.0754,-1.0036 -3.45823,-2.89506 -6.83567,-3.65941 -1.12555,-0.25401 -4.45095,-1.86428 -5.09179,-2.46473 l -0.41092,-0.3845 0.41247,-7.8e-4 c 0.59657,-7.8e-4 2.01808,0.31693 3.41861,0.76513 4.03227,1.28868 5.8142,1.20245 5.8142,-0.2812 0,-0.56938 0.26644,-0.70842 1.64522,-0.85756 1.57609,-0.17089 2.40103,-0.776 2.19207,-1.60871 -0.15224,-0.60667 -0.90417,-0.87621 -4.41987,-1.58541 -2.944,-0.59346 -7.0252,-2.14624 -11.30526,-4.30181 l -2.24334,-1.12866 1.07273,-0.14215 c 0.90806,-0.11962 1.1108,-0.19109 1.31742,-0.4684 0.21517,-0.28741 0.30062,-0.31459 0.71697,-0.22449 1.22265,0.26333 2.77932,0.37053 3.41395,0.23381 l 0.64939,-0.13904 -0.0606,-0.63308 c -0.0334,-0.34877 -0.0474,-0.63385 -0.0311,-0.63385 0.0163,0 0.35809,0.1507 0.75891,0.33402 1.49297,0.68356 2.93467,0.67269 3.58795,-0.0264 0.44975,-0.48161 0.91427,-0.68745 2.02895,-0.90107 1.15507,-0.2206 1.38033,-0.45364 1.1139,-1.14886 -0.1173,-0.30449 -3.13819,-1.65687 -6.68808,-2.99448 -2.13381,-0.80319 -7.94879,-4.28472 -9.24989,-5.53767 -0.37286,-0.35887 -0.76591,-0.70143 -0.87388,-0.76202 -0.32703,-0.18332 -0.6323,-0.87854 -0.46063,-1.05021 0.0948,-0.0948 1.01758,-0.17089 2.56803,-0.21206 2.73582,-0.073 2.78864,-0.0885 2.72106,-0.79231 -0.0396,-0.41558 -0.008,-0.50258 0.18643,-0.50258 1.19313,0 1.51627,-0.8832 0.48782,-1.33528 -0.92126,-0.40471 -0.8599,-0.42956 1.25916,-0.51268 2.33888,-0.0924 2.92924,-0.25323 2.98361,-0.81251 0.0482,-0.49093 -0.2944,-0.83116 -0.9733,-0.96476 -1.78349,-0.35111 -6.28571,-1.9606 -7.61866,-2.72339 -0.3682,-0.21051 -0.74494,-0.38296 -0.83737,-0.38296 -0.27188,0 -2.05536,-1.16206 -2.20139,-1.43393 -0.12662,-0.23614 -0.08,-0.24935 0.89717,-0.24935 0.89019,0 1.07973,-0.0412 1.39665,-0.30372 0.20119,-0.16701 0.5554,-0.34023 0.78766,-0.38528 0.23226,-0.0451 0.58181,-0.19264 0.77678,-0.32858 0.32003,-0.22216 0.46141,-0.23381 1.45491,-0.11962 1.37645,0.15846 2.11362,-0.0287 2.17498,-0.55229 0.0559,-0.48161 -0.2105,-0.65794 -2.30393,-1.52715 -1.03311,-0.42879 -2.10818,-0.90029 -2.39015,-1.0471 -0.28197,-0.14681 -0.59113,-0.26722 -0.68667,-0.26722 -0.0948,0 -0.35577,-0.0948 -0.57948,-0.2105 l -0.40626,-0.21051 0.348,-0.25323 c 0.73872,-0.53831 0.44665,-0.97797 -1.14031,-1.71746 -0.57016,-0.26566 -1.38733,-0.64861 -1.81611,-0.85058 -0.456751,-0.21594 -1.140318,-0.71308 -1.649109,-1.20012 l -0.869993,-0.83193 0.973305,-0.0621 c 0.777557,-0.0505 1.036225,-0.12118 1.283241,-0.35422 0.211286,-0.1973 0.551516,-0.32003 1.064966,-0.38217 1.27159,-0.15458 1.63279,-0.522 1.08438,-1.10614 l -0.25322,-0.26876 1.42694,0.0482 c 2.69465,0.0924 2.84845,-1.22965 0.24391,-2.10197 -0.3915,-0.1305 -1.06108,-0.40004 -1.48831,-0.59734 -0.42723,-0.19808 -1.00981,-0.45675 -1.29489,-0.57482 -1.193916,-0.49559 -1.656877,-0.8498 -1.433941,-1.09681 0.427229,-0.47229 0.06137,-0.91117 -2.491134,-2.98827 -0.946118,-0.76979 -2.073226,-2.02739 -1.926414,-2.14935 0.01398,-0.0117 0.59346,0.0412 1.287124,0.11729 l 1.262268,0.13905 0.385283,-0.36975 c 0.285855,-0.27343 0.57404,-0.3946 1.107688,-0.46684 1.333736,-0.18099 1.517836,-0.77834 0.417131,-1.3516 -0.373631,-0.19497 -0.708424,-0.39771 -0.744155,-0.45053 -0.03573,-0.0528 -0.443542,-0.28586 -0.906503,-0.51812 -1.052537,-0.52821 -1.884468,-1.09215 -2.423553,-1.64211 -0.465292,-0.47461 -0.508791,-0.42956 0.591906,-0.61365 0.238471,-0.0404 0.606665,-0.21906 0.818726,-0.39694 0.213615,-0.17944 0.54996,-0.32469 0.753477,-0.32469 1.242848,0 1.043215,-0.47462 -0.549184,-1.30888 -0.730173,-0.3814 -1.552783,-0.81251 -1.82854,-0.95699 -0.600451,-0.31382 -0.614433,-0.48005 -0.05437,-0.62531 0.517336,-0.13438 1.137983,-0.56549 1.137983,-0.79076 0,-0.23381 -1.033894,-1.16439 -1.637452,-1.47511 -0.539862,-0.27731 -2.116726,-1.65143 -2.116726,-1.84485 0,-0.0653 0.116517,-0.11807 0.258668,-0.11807 0.324694,0 0.357319,-0.57948 0.05748,-1.00748 -0.191865,-0.27343 -0.185651,-0.28741 0.11341,-0.28741 1.468891,0 1.725228,-0.79698 0.474612,-1.47744 -0.75736,-0.41247 -1.162839,-0.80552 -1.162839,-1.12788 0,-0.12429 -0.268766,-0.61832 -0.596568,-1.09759 l -0.596567,-0.87077 0.208177,-0.43655 c 0.27265,-0.57171 0.264882,-0.67891 -0.100981,-1.34927 -0.357319,-0.6556 -0.508791,-1.2879 -0.800083,-3.34948 -0.393051,-2.78242 -0.991948,-2.69931 -1.41607,0.19731 -0.274204,1.86738 -0.515782,2.91059 -0.924369,3.98721 -0.260998,0.689 -0.318479,1.01836 -0.257891,1.48909 l 0.07846,0.60433 -0.904172,0.8296 c -0.497916,0.45597 -1.180705,1.00982 -1.517828,1.23042 -1.019135,0.66726 -0.882422,1.0805 0.410917,1.24052 0.478496,0.059 0.897957,0.13516 0.931359,0.16934 0.104865,0.10486 -0.809405,0.78921 -1.924861,1.44092 -2.179645,1.27392 -2.571142,1.63746 -2.30393,2.13615 0.07846,0.14759 0.26799,0.26799 0.421015,0.26799 0.153026,0 0.535202,0.12428 0.848244,0.27576 0.459854,0.22293 0.720075,0.26255 1.345383,0.20584 0.772119,-0.0699 0.77445,-0.0691 0.539085,0.19187 -0.317703,0.35188 -2.502008,1.78659 -2.721837,1.78659 -0.203516,0 -1.224982,0.62065 -1.364026,0.82805 -0.401595,0.602 0.09088,0.98418 1.269259,0.98418 0.528987,0 0.961654,0.0318 0.961654,0.0707 0,0.13904 -0.715415,0.68356 -1.227313,0.93446 -0.285855,0.13982 -1.219544,0.59269 -2.074002,1.00671 -2.780096,1.34616 -3.001478,2.26043 -0.54763,2.26043 0.613656,0 1.151188,0.0583 1.195464,0.12972 0.120401,0.19497 1.166724,0.14371 2.362188,-0.11574 l 1.068073,-0.23226 -0.795423,0.72396 c -1.200902,1.09371 -3.56309,2.44531 -4.733698,2.70786 -1.684059,0.37829 -1.952048,1.37568 -0.500246,1.86194 0.276534,0.0924 0.551514,0.26954 0.612103,0.3946 0.05981,0.12429 0.15924,0.32858 0.220605,0.45287 0.13749,0.28196 1.830871,0.46761 3.190236,0.34954 l 0.906502,-0.0792 -0.472282,0.36664 c -0.259445,0.20118 -0.936797,0.72085 -1.503846,1.15429 -0.567826,0.43345 -1.158956,0.90651 -1.314312,1.05099 -0.155356,0.14448 -0.497916,0.37285 -0.761244,0.50646 -0.596568,0.30372 -2.140029,1.23896 -2.227806,1.35082 -0.03573,0.0451 -0.647057,0.42024 -1.359365,0.83426 -1.602497,0.92981 -1.747755,1.05409 -1.747755,1.49375 0,0.57248 0.561612,0.73017 1.653765,0.46529 1.078947,-0.26178 1.405195,-0.26488 1.500739,-0.0163 0.04039,0.10642 0.177883,0.19575 0.304498,0.1973 0.697548,0.009 -3.330833,1.27392 -4.753117,1.49297 -0.975636,0.1507 -1.16517,0.26411 -1.16517,0.69833 0,0.57714 0.442764,0.8094 1.585408,0.83037 l 0.93835,0.0179 -0.04039,0.46607 c -0.0435,0.49869 0.122732,0.62841 1.076618,0.84125 0.213614,0.0474 0.497139,0.18099 0.629968,0.29595 0.190311,0.16468 0.48005,0.20119 1.381115,0.17322 l 1.140313,-0.035 -0.151472,0.4016 c -0.179436,0.47538 0.04971,0.72007 0.77678,0.8327 0.236918,0.0365 0.64162,0.0994 0.899511,0.13982 l 0.469176,0.0738 -0.372078,0.38839 c -0.427229,0.44665 -1.479766,1.27081 -2.070119,1.62036 -0.222159,0.13128 -0.804744,0.46529 -1.294115,0.7426 -0.490149,0.27731 -1.13876,0.64318 -1.441704,0.81484 -0.594237,0.33635 -0.75503,0.87466 -0.357319,1.20479 0.20274,0.16856 1.875147,0.12972 2.289948,-0.0528 0.173221,-0.0769 0.202739,-0.042 0.146811,0.17322 -0.03884,0.14837 -0.114963,0.26954 -0.170115,0.26954 -0.05437,0 -0.441211,0.2276 -0.858342,0.50569 -0.98418,0.6556 -4.172862,2.27363 -5.743511,2.91525 -0.676576,0.27576 -1.725229,0.73328 -2.33034,1.01603 -1.815335,0.84902 -2.239457,1.01448 -2.330341,0.90806 -0.490148,-0.57715 -1.322856,-1.73533 -1.279356,-1.77883 0.03107,-0.0311 1.190804,-0.0971 2.577356,-0.14681 2.807283,-0.1002 3.103236,-0.15924 3.103236,-0.61521 0,-0.66415 -1.55356,-1.86738 -4.207041,-3.25937 -0.783771,-0.41092 -1.453355,-0.78299 -1.489087,-0.82727 -0.03573,-0.0435 -0.697548,-0.4583 -1.470444,-0.91971 -0.773673,-0.46218 -1.320526,-0.85756 -1.216438,-0.87854 0.288185,-0.0582 2.272858,0.63386 4.370164,1.52327 3.546778,1.50385 5.574951,2.02429 5.782351,1.48287 0.321587,-0.83737 -1.614926,-3.56231 -3.56076,-5.01178 -0.403148,-0.29984 -0.845136,-0.64706 -0.982626,-0.77057 -0.136714,-0.12351 -0.369748,-0.261 -0.517336,-0.30527 -0.147588,-0.0443 -1.142643,-0.50491 -2.210716,-1.0238 -1.068072,-0.51966 -2.387045,-1.15274 -2.931568,-1.40752 -0.637736,-0.29906 -1.168277,-0.65949 -1.489087,-1.0137 -0.274203,-0.30295 -0.750369,-0.79076 -1.057974,-1.08439 l -0.559282,-0.53364 1.271589,0.25944 c 1.755523,0.35887 4.106836,0.38062 4.604752,0.0435 0.941457,-0.63851 0.238471,-1.87437 -1.844853,-3.24616 -0.534424,-0.35111 -1.173714,-0.80242 -1.421507,-1.00283 -0.247793,-0.20041 -0.526657,-0.36431 -0.620647,-0.36431 -0.228374,0 -1.905442,-1.1473 -2.554053,-1.74697 -0.285078,-0.26333 -0.881645,-0.76979 -1.32674,-1.12556 -0.445095,-0.35576 -0.809405,-0.67812 -0.809405,-0.71618 0,-0.21362 4.081202,0.38916 5.890323,0.87076 4.118488,1.09448 4.912357,0.58725 3.091584,-1.97534 -0.240801,-0.33868 -0.437327,-0.66027 -0.437327,-0.71464 0,-0.14215 -3.855159,-3.67339 -4.327441,-3.96391 -0.408587,-0.2509 -1.663863,-1.27625 -2.014191,-1.64522 -0.365863,-0.38606 -1.64755,-1.41141 -1.764067,-1.41141 -0.06292,0 -0.63929,-0.50025 -1.280134,-1.11079 -0.640843,-0.61133 -1.450248,-1.3415 -1.799023,-1.62425 -1.068849,-0.86533 -1.688719,-1.79126 -1.395096,-2.08488 0.07302,-0.0738 0.821833,-0.28585 1.663862,-0.47306 l 1.530257,-0.33867 0.04117,-0.42801 c 0.0567,-0.59657 -1.335284,-1.96525 -4.038479,-3.97012 -1.129438,-0.83815 -2.154788,-1.62425 -2.276742,-1.74698 -0.122732,-0.12196 -0.538309,-0.43189 -0.923592,-0.68745 -0.819503,-0.54452 -1.347713,-1.0774 -1.471221,-1.48598 -0.125062,-0.41403 0.03029,-0.38761 2.155564,0.36586 4.509985,1.59939 5.515139,0.74804 2.518321,-2.13381 -0.437327,-0.42024 -0.728619,-0.78766 -0.647834,-0.81485 0.145258,-0.0497 1.415293,0.33868 2.182752,0.66726 1.071956,0.45908 3.371225,0.80086 3.99731,0.59424 1.054867,-0.348 -0.13283,-2.2115 -2.130708,-3.34327 -0.243132,-0.13749 -0.908833,-0.5818 -1.478212,-0.98728 -1.59939,-1.13643 -3.086147,-2.10352 -3.378993,-2.19674 -0.146035,-0.0458 -0.377516,-0.1872 -0.514229,-0.31304 -0.13749,-0.12661 -0.744932,-0.602 -1.350044,-1.05642 -1.159732,-0.87154 -4.237335,-3.83807 -4.112273,-3.96391 0.11108,-0.11107 1.57531,0.50647 3.257039,1.37258 0.82494,0.42489 1.602497,0.77367 1.727558,0.77522 0.125839,7.8e-4 0.461408,0.0854 0.745709,0.18798 2.536187,0.9135 2.788641,-0.42334 0.538309,-2.84457 -0.463738,-0.49791 -1.429275,-1.55433 -2.145467,-2.34743 l -1.303436,-1.4417 0.842029,-0.0901 c 2.124493,-0.2276 1.722898,-1.22964 -1.988557,-4.95819 -2.519874,-2.53152 -2.957201,-3.0877 -2.318688,-2.95021 3.073718,0.6626 3.661741,0.68046 3.803115,0.11652 0.187204,-0.74416 -1.41607,-2.7265 -3.631447,-4.49212 -0.254784,-0.20274 -0.462961,-0.42723 -0.462961,-0.49869 0,-0.0715 -0.267212,-0.42645 -0.592683,-0.78921 -0.326247,-0.36276 -0.706093,-0.88165 -0.84436,-1.15196 l -0.2509,-0.49248 h 1.547346 c 2.082547,0 2.207609,-0.45287 0.84203,-3.05741 -0.38606,-0.73483 -0.703763,-1.41141 -0.706093,-1.50229 -0.0031,-0.0909 -0.203517,-0.48627 -0.445095,-0.87776 -2.389376,-3.8707 -2.677561,-4.54417 -1.898451,-4.4393 0.856789,0.11496 0.832708,-0.67813 -0.112633,-3.72233 -0.297507,-0.95855 -0.589576,-2.00409 -0.649388,-2.3249 -0.05981,-0.32081 -0.292846,-1.19469 -0.517335,-1.94195 -0.225267,-0.74729 -0.524327,-1.88294 -0.664147,-2.52301 -0.348775,-1.59084 -0.807075,-2.02584 -1.374901,-1.30499 m -10.32496,43.45152 c -0.04661,0.14915 -0.05127,0.30528 -0.0093,0.34722 0.04272,0.0419 0.0769,-0.0155 0.0769,-0.12816 0,-0.11264 0.06991,-0.22838 0.155356,-0.25712 0.11341,-0.0381 0.11574,-0.0761 0.0093,-0.14215 -0.08467,-0.052 -0.181766,0.0233 -0.232257,0.18021 m -1.402088,3.67775 c -0.03962,0.10409 -0.01709,0.22449 0.05127,0.26643 0.06836,0.0419 0.123508,0.0489 0.123508,0.0148 0,-0.0342 0.03573,-0.1538 0.07846,-0.26643 0.0435,-0.11264 0.02097,-0.20507 -0.05049,-0.20507 -0.07146,0 -0.162347,0.0854 -0.202739,0.19031 m 49.306112,56.71659 c -0.427229,0.38994 -1.228089,1.00981 -1.779603,1.37878 -0.55229,0.36897 -1.0036,0.72707 -1.0036,0.79542 0,0.0676 -0.106418,0.0272 -0.236917,-0.0909 -0.129723,-0.11729 -0.282748,-0.21362 -0.338677,-0.21362 -0.05593,0 -0.30139,-0.17477 -0.544522,-0.38839 l -0.442765,-0.38839 h 0.385283 c 0.532871,0 2.069342,-0.57171 3.351806,-1.2475 1.409079,-0.74183 1.552783,-0.70532 0.608995,0.15458 m 2.842238,2.93778 c -1.10225,1.22731 -1.595506,1.70736 -2.05536,2.00331 -0.278864,0.17944 -0.774449,0.57404 -1.100697,0.87699 -0.325471,0.30294 -0.932913,0.78843 -1.349267,1.07817 l -0.756583,0.52743 -1.017582,-0.63074 c -1.473552,-0.91427 -3.159941,-1.81612 -3.393752,-1.81612 -0.111857,0 -0.222159,-0.0474 -0.24624,-0.10564 -0.0233,-0.0583 -0.48005,-0.35266 -1.013697,-0.65482 -2.423554,-1.37102 -1.723675,-1.37956 2.136145,-0.0264 2.481812,0.86999 4.657573,1.56365 4.906919,1.56365 0.451309,0 0.264105,-1.15274 -0.309935,-1.9101 l -0.515005,-0.67968 h 1.665416 c 1.456463,0 1.767951,-0.0396 2.48958,-0.31693 0.45364,-0.17477 0.850574,-0.32003 0.881645,-0.32391 0.03107,-0.003 -0.11341,0.18332 -0.321587,0.4148 m -2.480258,26.5884 c 0.244686,0.24469 -2.582794,3.41473 -3.044978,3.41473 -0.18332,0 -0.483934,-0.32781 -0.790762,-0.86145 -0.05282,-0.0917 0.179436,-0.30295 0.59346,-0.54142 0.373631,-0.21517 1.022242,-0.67191 1.440927,-1.01525 1.021466,-0.83815 1.625801,-1.17216 1.801353,-0.99661"
     sodipodi:nodetypes="cccscsccccsscscccccsccscsccccccccccccsscccccccccccscsccscccccccsccscscsccccccscccccccccccccsccccccccsccsccccccscccccccsccccccccccccscccccccccscccccccccccccsccccscsccccccccccccccccccccccccccscccccccccccscccccccsccscccccscscsccccssccccccccccccccccccccccccsccccscccscsscscscccccccccccccccscccscssccsccccccccccccscccsccccsccccccccccccccccccsccccscsccccccccsccccccccsscssccsccsccccccccccccccccccccccccccccccccscccscccccscccccsccccsscscccscsccsccccccccscccsccsccccscccc" />
</svg>
