<?xml version="1.0" encoding="UTF-8" standalone="no"?>
<!-- Created with Inkscape (http://www.inkscape.org/) -->

<svg
   xmlns:dc="http://purl.org/dc/elements/1.1/"
   xmlns:cc="http://creativecommons.org/ns#"
   xmlns:rdf="http://www.w3.org/1999/02/22-rdf-syntax-ns#"
   xmlns:svg="http://www.w3.org/2000/svg"
   xmlns="http://www.w3.org/2000/svg"
   xmlns:sodipodi="http://sodipodi.sourceforge.net/DTD/sodipodi-0.dtd"
   xmlns:inkscape="http://www.inkscape.org/namespaces/inkscape"
   width="210mm"
   height="297mm"
   viewBox="0 0 210 297"
   version="1.1"
   id="svg8"
   inkscape:version="0.92.3 (2405546, 2018-03-11)"
   sodipodi:docname="santa.svg">
  <defs
     id="defs2" />
  <sodipodi:namedview
     id="base"
     pagecolor="#ffffff"
     bordercolor="#666666"
     borderopacity="1.0"
     inkscape:pageopacity="0.0"
     inkscape:pageshadow="2"
     inkscape:zoom="3.959798"
     inkscape:cx="152.65818"
     inkscape:cy="665.26171"
     inkscape:document-units="mm"
     inkscape:current-layer="layer1"
     showgrid="false"
     inkscape:window-width="863"
     inkscape:window-height="417"
     inkscape:window-x="456"
     inkscape:window-y="363"
     inkscape:window-maximized="0" />
  <metadata
     id="metadata5">
    <rdf:RDF>
      <cc:Work
         rdf:about="">
        <dc:format>image/svg+xml</dc:format>
        <dc:type
           rdf:resource="http://purl.org/dc/dcmitype/StillImage" />
        <dc:title></dc:title>
      </cc:Work>
    </rdf:RDF>
  </metadata>
  <g
     inkscape:label="Calque 1"
     inkscape:groupmode="layer"
     id="layer1">
    <path
       id="path364"
       d="m 172.52887,97.910523 c 0.2408,-0.34905 0.55117,-0.81402 1.04267,-0.72898 -0.0166,0.27724 -0.0541,0.55558 -0.15684,0.81517 -1.31014,1.69819 -1.16494,3.901887 -0.12699,4.920777 -0.10275,-0.49707 -0.35455,-0.96428 -0.36561,-1.47676 0.39931,-1.582267 1.31647,-1.607717 3.15788,-2.306327 0.95336,-0.36587 0.91058,-0.42124 1.42267,-0.3899 -10e-4,0.0696 -0.002,0.20985 -0.003,0.27948 -1.14659,1.285137 -2.56773,0.73 -3.26397,1.704317 -0.5158,0.67381 -0.15352,1.55632 -0.0232,2.29969 0.18223,-0.47495 0.25845,-1.00406 0.55117,-1.42933 0.51011,-0.36861 1.67152,-0.60347 2.27096,-0.80187 0.21427,-0.19771 0.39982,-0.42412 0.59426,-0.64062 0.15244,-0.0917 0.32809,-0.11707 0.50367,-0.14802 0.0585,0.52578 -0.17674,1.03385 -0.63512,1.30559 0.264,0.0895 0.74445,0.30928 0.52022,0.66275 -0.77273,-0.0528 -1.03942,-0.72752 -2.51286,-0.0873 -0.57322,0.31702 -0.56549,1.0648 -0.7334,1.62147 0.62771,-0.6339 1.18866,-1.58125 1.49007,-0.75993 -0.52137,0.24189 -0.87592,0.78755 -0.9687,1.33648 0.21542,0.39099 0.73014,0.47163 1.12331,0.60308 0.81658,0.24061 0.7456,0.12367 1.24152,1.04159 0.60641,0.0431 1.19294,-0.12704 1.76731,-0.30154 0.57215,-0.042 1.06922,0.47827 1.63586,0.27833 0.74356,-0.22942 1.66475,-1.33571 1.55962,0.24854 -0.0884,0.41753 0.18889,0.7809 0.2419,1.1852 -0.34356,0.18664 -0.72899,0.22864 -1.11116,0.23747 -1.13725,1.02797 -1.13079,0.68557 -0.99516,1.24486 0.13964,0.41899 0.51631,1.11677 1.00622,1.6767 0.58467,0.67963 0.86441,0.69541 0.98858,2.62328 -0.13031,-0.21426 -0.25512,-0.43185 -0.37667,-0.6495 0.0641,0.71574 0.12705,1.46576 -0.18224,2.1395 -0.0762,-0.16675 -0.13919,-0.33357 -0.20984,-0.49924 -0.0399,1.00386 -0.33761,1.48565 -0.41753,1.63476 -0.0122,-0.1259 -0.0376,-0.37776 -0.0497,-0.50366 -0.33134,0.70692 -0.65392,1.52427 -1.45912,1.80817 0.0906,-0.19994 0.19879,-0.39541 0.29931,-0.59203 -0.13805,0.0994 -0.27616,0.1988 -0.41088,0.29823 0.14801,0.60858 0.57437,1.08026 0.91127,1.59057 0.78027,0.22821 0.83672,0.24451 1.47344,0.3612 1.44627,0.25442 0.67425,0.95674 2.15722,2.90826 -0.0144,0.12922 -0.022,0.25845 -0.0309,0.38882 -0.58032,0.7302 -0.95437,0.50405 -1.44806,0.95431 -0.58556,1.43879 0.0326,1.47114 -1.2382,2.29968 -1.15854,0.72189 -1.33214,1.9262 -3.97306,3.01766 0.13363,-0.55007 0.0873,-1.11339 0.0751,-1.67229 -0.0155,-0.44848 0.50033,-0.48045 0.82176,-0.56332 0.40206,-0.15908 0.89465,0.12705 1.22164,-0.23082 2.33165,-2.04027 1.69334,-1.25521 2.02908,-2.28312 -0.6793,0.37885 -1.36192,0.75002 -2.05005,1.10898 -0.65213,0.42278 -1.47548,1.23111 -2.55704,1.13769 0.2596,-0.64394 0.2463,-1.34863 0.4098,-2.01469 0.095,-0.13255 0.20435,-0.28275 0.3954,-0.22756 2.17244,0.20186 1.75018,0.1922 2.72271,-0.29164 0.42303,-0.22864 0.86262,-0.44291 1.23379,-0.7566 0.12655,-0.46836 -0.16931,-0.35788 -1.97716,-2.53824 -5.74484,-0.33434 -5.24451,0.0173 -5.24879,-1.2868 -5.63692,0.93756 -6.83957,-1.41295 -7.9992,-1.59832 -0.65832,0.2408 -0.99631,0.95322 -1.6292,1.25368 -1.82773,0.96153 -4.26443,-0.57092 -5.78007,1.20618 -1.79052,2.0175 -3.88361,2.45818 -3.43846,3.13249 0.17674,0.44848 0.54126,0.77873 0.8483,1.13769 0.2165,0.23307 0.20544,0.56773 0.24745,0.86269 -0.58877,0.19994 -1.21282,0.24188 -1.82697,0.28166 -1.09696,-2.4025 -1.10335,-2.16726 -0.67047,-3.75772 0.25294,0.0607 0.50032,0.16126 0.76657,0.16568 0.22642,-0.10052 0.41753,-0.26402 0.6263,-0.39765 0.62655,-0.37162 1.10553,-0.3667 1.68662,-1.50221 0.70679,-1.3847 0.75986,-2.46299 0.96978,-3.12144 2.72801,0.0724 3.29331,-0.88123 3.79192,-2.07327 -6.06231,0.58857 -6.78369,2.74304 -15.29581,9.94541 -0.29822,0.16126 -0.37993,0.46829 -0.38658,0.78423 -0.0884,-0.11375 -0.17673,-0.22533 -0.26286,-0.33799 0.0354,0.55448 0.0166,1.11115 -0.0662,1.66014 -0.0762,-0.1922 -0.14802,-0.38441 -0.21868,-0.5777 -0.10269,0.75993 -0.275,1.61929 -0.97643,2.06112 0.0431,-0.21318 0.10384,-0.42303 0.15684,-0.63404 -0.12039,0.14579 -0.23971,0.29157 -0.35678,0.43742 0.30819,0.49592 0.75328,0.88474 1.19844,1.25476 0.64745,0.34183 2.20338,-0.25761 2.64648,0.46836 0.57828,0.94504 1.42523,1.75645 1.7496,2.13401 -0.0674,0.71576 -0.77757,1.02612 -1.25144,1.45139 -0.0365,0.53901 -0.0176,1.07912 -0.0508,1.61705 -0.10601,0.56772 -0.65718,0.86927 -0.95655,1.32324 -1.28872,1.91534 -0.89235,1.90389 -2.89061,3.44402 -0.01,-1.34562 -0.59113,-1.83585 -0.1204,-2.12294 0.40871,-0.22533 0.83832,-0.5302 1.33207,-0.44292 0.67489,-0.68812 1.1476,-1.54525 1.78272,-2.26988 0,-0.23748 0,-0.47495 6.6e-4,-0.71243 -0.55226,0.48378 -1.09575,0.97753 -1.66456,1.44148 -0.67266,0.6981 -1.27689,1.60598 -2.31732,1.75516 0.0585,-0.57546 -0.003,-1.15093 -0.042,-1.72422 0.0329,-0.89695 -0.002,-0.49931 2.17045,-0.93001 0.65391,-0.48269 1.26359,-1.0272 1.82363,-1.61705 -0.0884,-0.19553 -0.16681,-0.41753 -0.37552,-0.51472 -0.75884,-0.4385 -1.42375,-1.01729 -2.15715,-1.49115 0,0 -2.0372,0.3869 -4.89316,0.76876 -0.42968,-0.0332 -0.4197,-0.58762 -0.50807,-0.9024 -1.13993,0.49925 -2.36598,0.771 -3.59198,0.95105 -2.70998,0.38141 -4.20957,-1.20157 -4.76835,-0.58543 -0.47718,0.55557 -0.77316,1.2912 -1.42925,1.67779 -1.77237,1.02145 -4.12198,0.25212 -5.14943,2.37922 -1.34467,2.34303 -2.55563,2.47039 -2.63658,3.48372 0.2408,0.5059 0.76543,0.76102 1.17963,1.10016 0.24745,0.18779 0.31701,0.50257 0.40315,0.78423 -0.54011,0.29272 -1.12555,0.48269 -1.70983,0.66274 -1.12375,-1.41117 -1.72601,-2.01272 -1.45688,-3.51576 0.24853,-0.0199 0.50807,0.0475 0.75219,-0.0243 0.34573,-0.28607 0.61523,-0.65609 0.98749,-0.91454 0.45398,-0.31037 0.67707,-0.83615 0.824,-1.34537 0.62035,-2.23746 -0.0757,-3.32585 0.49484,-3.39651 3.93527,-1.002 2.64917,-2.73261 3.27502,-5.10192 -1.85855,-0.51626 1.2829,0.41996 -8.03781,-4.14871 0.85341,1.97007 1.60548,1.53553 -0.56996,2.69624 -0.15685,0.48818 -0.25295,0.99191 -0.39982,1.48118 -0.17124,0.47162 -0.69145,0.63952 -1.04491,0.94215 -1.50752,1.30848 -1.00329,1.49583 -3.51467,2.68518 0.24559,-1.3299 -0.11734,-1.70292 0.25844,-1.95945 0.45289,-0.18223 0.95105,-0.28274 1.43814,-0.1977 0.28953,-0.14476 1.98382,-1.63176 2.06994,-1.72198 0.10717,-0.19438 0.10717,-0.42744 0.15685,-0.64062 -0.6362,0.38108 -1.30118,0.7091 -1.94954,1.06812 -0.72457,0.49707 -1.45471,1.14319 -2.40019,1.06372 0.36561,-0.99402 0.20442,-2.19904 0.68704,-2.13843 0.59643,0.0641 1.20175,0.0431 1.79493,0.15244 0.71684,-0.33467 1.426,-0.69478 2.07653,-1.1476 -0.0509,-0.18114 -0.0597,-0.39215 -0.21427,-0.52137 -0.6307,-0.59426 -1.16307,-1.28015 -1.75292,-1.9131 -1.57511,0.0354 -3.14573,-0.12705 -4.71093,-0.27283 -0.33249,-0.16235 -0.20768,-0.61299 -0.22315,-0.91127 -1.81207,0.28063 -4.02581,0.3149 -5.67963,-0.49267 -1.16857,-0.56938 -1.73866,-1.28993 -2.19367,-0.91569 -0.53012,0.40379 -0.60359,0.67349 -1.39728,1.14319 -1.80222,0.73871 -3.509239,-0.48019 -5.200199,0.89248 -0.0746,0.0746 -1.25835,1.4274 -2.46976,2.04564 -0.37559,0.22757 -0.82291,0.45289 -0.99741,0.88142 0.0442,0.59203 0.5832,0.9742 0.9201,1.41602 0.14291,0.42527 0.12117,0.40558 0.13479,0.71799 -0.37143,0.1486 -0.83404,0.19291 -1.70657,0.27725 -1.10879,-2.11138 -0.99824,-2.39496 -0.6362,-3.59422 0.20985,0.0674 0.42085,0.13479 0.63287,0.20103 0.43301,-0.23639 0.83506,-0.52687 1.28463,-0.73339 0.89689,-0.41702 1.44288,-2.05166 1.67339,-3.0066 0.0921,-0.40008 0.0658,-1.10061 0.44182,-1.05924 0.93001,0.0176 1.91527,-0.13146 2.66529,-0.7279 -6.57294,0.24483 -8.9659,2.13139 -13.53629,4.39391 -0.46312,0.22853 -0.4596,0.23006 -0.61632,0.32476 -0.26184,0.37264 -0.21881,0.44355 -0.73123,0.84388 0.0376,-0.19994 0.0873,-0.39541 0.13255,-0.59202 -0.11266,0.13146 -0.22641,0.26286 -0.33581,0.39656 0.28498,0.47386 0.69695,0.8472 1.11339,1.20393 0.29957,0.32405 1.76629,0.0457 2.49189,0.28498 0.35838,0.35564 0.87067,1.37696 1.91974,2.29744 0.075,0.7123 -0.50667,0.98244 -1.10124,1.44141 l -0.074,0.0983 c -0.20768,0.74777 0.18338,1.68444 -0.46057,2.27646 -1.39901,1.24518 -0.83505,2.08478 -3.50035,4.0824 -0.10339,-1.51168 -0.47328,-1.64582 -0.21541,-2.03899 0.32142,-0.22865 0.69037,-0.38326 1.05482,-0.52911 0.12481,0.003 0.25071,0.008 0.37668,0.0132 0.41203,-0.34522 0.97739,-1.26833 1.63584,-2.05447 0.24854,-0.23971 0.15353,-0.59867 0.17117,-0.90354 -0.61964,0.53019 -1.25035,1.05041 -1.85119,1.60273 -0.67675,0.71836 -1.15471,1.4079 -2.14176,1.54966 0.0895,-0.6749 -0.0917,-1.34755 -0.0343,-2.01911 0.007,-0.64452 1.82972,-0.28767 2.35377,-0.74114 0.57988,-0.45947 1.15425,-0.93224 1.648,-1.48673 -0.31932,-0.60955 0.19937,-0.0233 -2.54048,-2.03791 -1.50931,0.33102 -3.86756,0.66926 -5.03568,0.79746 -0.23198,-0.25844 -0.29713,-0.60085 -0.34905,-0.93116 -1.06601,0.48141 -2.72609,0.85834 -3.88361,0.95546 -2.67641,0.24035 -3.98776,-1.31103 -4.51649,-0.59535 -1.16454,1.37977 -0.57399,1.759 -4.11117,2.34719 -2.28971,0.34189 -2.10306,1.68348 -3.96533,3.59862 -0.46944,0.41088 -0.95763,0.83283 -1.20284,1.42485 0.25627,0.49151 0.71025,0.81402 1.15426,1.12113 0.2883,0.18338 0.37999,0.52578 0.48268,0.8295 -0.53352,0.3236 -1.13769,0.49259 -1.72972,0.67265 -1.23027,-1.62466 -1.63578,-1.86642 -1.42817,-3.56768 0.86205,0.11714 0.64932,0.11241 1.16749,-0.37552 0.57923,-0.66025 1.85107,-0.75309 1.68668,-4.98044 0.0111,-0.30046 0.40538,-0.28498 0.61632,-0.35896 3.27074,-0.75641 2.5314,-3.10891 2.75366,-4.46681 -3.72677,-1.54307 -7.38505,-3.25073 -11.15158,-4.69654 -1.21499,-0.47495 -2.4819,-0.79305 -3.70355,-1.24927 -4.19186,-1.49 -7.50365,-3.3093 -9.966376,-1.1609 0.248535,0.1734 0.473862,0.38109 0.609734,0.65833 -0.576296,0.75578 -0.292658,0.44093 -1.286799,0.54784 -0.209853,0.56555 -0.163495,1.18078 -0.166758,1.77281 -0.01493,1.59224 0.852197,2.35921 1.389555,2.97233 0.230819,0.24745 -0.18556,0.64836 -0.436332,0.433 -1.754075,-1.34306 -1.618012,-3.38589 -1.62261,-4.3707 -0.497077,0.20212 -1.052657,0.0662 -1.551899,0.25294 -0.51472,0.18339 -1.01064,0.41421 -1.52536,0.59868 0.02539,0.25295 -0.117078,0.71134 0.258449,0.74778 0.450653,-0.0243 0.839468,-0.41861 1.316592,-0.28056 0.251864,0.0144 0.2353,0.29821 0.275007,0.4805 0.501485,0.13032 1.212824,0.25737 1.294535,0.88251 0.0398,0.77207 -0.300453,1.49556 -0.426352,2.24667 -0.177816,1.02944 -0.254035,2.07544 -0.310366,3.11818 3.761606,-0.79932 2.668228,-4.39015 4.82468,-6.63618 0.71357,-0.76984 1.94622,-0.97419 2.86849,-0.47277 1.65465,0.91204 1.19051,3.60399 -0.34132,3.68366 -1.0091,0.053 -1.18154,-1.96213 0.14911,-1.35419 -0.10051,-0.23083 -0.15793,-0.59426 -0.47162,-0.613 -1.06397,0.0541 -1.67031,1.04294 -0.0309,2.96684 1.0139,1.22509 0.39439,4.04697 -1.58393,4.83133 0.0762,0.17008 0.19105,0.3424 0.16017,0.53901 -0.0972,0.55008 -0.95105,0.78532 -1.2868,0.32476 -0.17008,-0.18338 0.0188,-0.38991 0.0762,-0.57547 -0.2894,-0.18338 -0.629617,-0.14801 -0.854944,0.11708 0.477184,0.96319 0.899124,1.98931 1.713154,2.72827 0.52335,0.61939 3.02041,0.87477 3.73782,-0.40538 0.39656,-0.6075 -0.25512,-1.47901 -0.93999,-1.3641 -0.19661,0.0331 -0.38217,0.21426 -0.37002,0.42302 0.19662,0.1502 0.52137,0.17008 0.61082,0.43301 -0.007,0.27283 -0.25512,0.39764 -0.46389,0.50921 -0.22532,-0.12257 -0.47277,-0.22756 -0.64177,-0.42635 -0.47386,-0.53569 0.0376,-1.39396 0.63737,-1.55963 0.66382,-0.0309 1.30892,0.39432 1.63361,0.96313 0.2695,0.50481 0.0707,1.09018 -0.0729,1.60382 4.02709,-2.1975 3.80842,-5.95885 2.05447,-6.8427 0.0961,0.6605 0.17564,1.44147 -0.30819,1.97934 -0.55449,0.5589 -1.48009,0.62737 -2.18369,0.33907 -1.47459,-0.68262 -1.46794,-3.16012 0.0188,-3.82952 1.22606,-0.51804 2.75366,-0.005 3.52574,1.05598 1.22388,1.60989 1.22062,4.6117 -0.56882,6.42958 -2.81797,2.9004 -6.87518,2.44207 -7.966,2.46759 -18.061674,-0.39976 -18.431247,0.75226 -19.905137,-1.75292 -0.878729,-1.5354 -0.04842,-2.70513 1.030526,-2.67745 1.882343,-0.0248 1.681061,3.29031 -0.579874,1.84903 1.12906,2.06208 1.629906,1.75485 2.769129,1.80594 -1.208343,-1.03072 -0.955972,-2.84336 0.679302,-2.98889 0.398728,-0.0232 0.653921,0.36337 0.806351,0.68038 0.378974,0.7981 -1.110323,1.52511 -1.102331,0.60418 0.103842,-0.22309 0.392151,-0.23198 0.58544,-0.33908 -0.08396,-0.11042 -0.113749,-0.26842 -0.235306,-0.34464 -0.631792,-0.2706 -1.366339,0.58985 -0.963196,1.16422 0.287158,0.45174 0.863775,0.86927 1.413855,0.68372 1.008463,-0.75884 1.547478,-1.9418 2.085407,-3.04746 -0.125892,-0.0861 -0.254035,-0.17123 -0.381078,-0.25512 -0.114907,0.0497 -0.229741,0.0994 -0.344641,0.14911 0.03868,0.16458 0.175646,0.35122 0.04309,0.50922 -0.311452,0.44732 -1.178549,0.15019 -1.134368,-0.39982 -0.02098,-0.24745 0.219827,-0.37334 0.365613,-0.52911 -2.029082,0.0558 -4.074473,-0.0708 -4.96714,-1.90759 -1.051309,-2.23964 -0.812108,-4.44635 1.180786,-6.04965 1.191081,-0.93372 0.855071,-3.72299 -0.548995,-3.85707 -0.545666,-0.0475 -1.168636,0.14361 -1.474588,0.62405 -0.248535,0.39215 -0.143608,0.87368 -0.0718,1.30228 0.113749,-0.32693 0.162344,-0.6981 0.408708,-0.95987 0.533963,-0.57809 2.004077,-0.55635 2.035667,0.66823 0.03145,1.14473 -0.769393,2.44284 -2.338363,1.89539 -2.555966,-0.77381 -2.312286,-5.49824 0.853908,-5.86295 -0.117078,-0.32693 -0.166758,-0.77208 -0.595347,-0.81851 0.05631,-0.0585 0.111578,-0.11598 0.166758,-0.1734 -0.197703,-0.0785 -0.393236,-0.16017 -0.589853,-0.2408 0.513635,-0.45506 1.232703,-0.30378 1.841292,-0.48934 -0.04085,-0.11042 -0.08172,-0.22091 -0.122577,-0.33134 0.439588,-0.12148 0.912364,-0.021 1.34313,-0.12922 0.399821,-0.43959 1.019528,-0.16675 1.418263,0.12705 -0.27283,0.095 -0.543429,0.20653 -0.769841,0.38991 0.08613,0.0265 0.2596,0.0795 0.346811,0.10601 -0.0066,0.085 -0.01881,0.25404 -0.02539,0.33799 2.362217,1.15605 3.151044,2.04775 2.646493,5.29963 0.58544,0.70693 1.186286,1.40055 1.777218,2.10307 1.610914,-1.74136 0.577579,-3.83124 0.871512,-5.44989 -0.55008,0.16349 -1.02727,-0.26287 -1.149841,-0.77432 0.293809,-0.0607 0.476033,0.18114 0.701359,0.31593 0.210939,0.0199 0.33249,-0.21868 0.377763,-0.39215 -0.112663,-0.35014 -0.36229,-0.65168 -0.353462,-1.03717 -0.685505,0.0534 -0.415616,0.006 -0.680393,-0.391 0.08728,-0.084 0.174494,-0.16675 0.261778,-0.24962 -0.0013,-0.16458 0,-0.32917 0.0033,-0.49375 -0.40315,0.65941 -0.946579,1.22606 -1.607145,1.63029 -0.02427,0.22973 0.05743,0.56331 -0.215412,0.67265 -0.664914,0.23856 -1.411612,-0.59202 -0.97311,-1.20508 0.225326,-0.38109 0.692537,-0.1878 0.962045,0.0276 1.440254,-2.66735 1.246965,-4.35179 4.536374,-3.75657 0.498163,0.14246 0.605326,0.72899 0.756605,1.15317 0.170087,-0.0497 0.340233,-0.0994 0.510313,-0.15135 0.301538,0.26177 0.545666,0.63621 0.539015,1.04709 -0.09169,0.23856 -0.286072,0.41753 -0.444002,0.61191 0.174495,0.085 0.347963,0.17123 0.520221,0.25959 -0.06184,0.16791 -0.123729,0.33467 -0.186645,0.50149 0.779689,0.30231 0.637547,0.15135 1.032763,1.01397 0.161259,0.41088 0.447324,0.78972 0.448482,1.24811 0.03204,0.30596 -0.02539,0.63729 0.119307,0.92119 0.237477,0.28389 0.621885,0.0398 0.825088,-0.16017 0.191052,-0.27616 -0.1204,-0.51472 -0.264008,-0.72457 0.184467,0.095 0.411964,0.13804 0.551165,0.30378 -0.02322,0.084 -0.06957,0.25071 -0.09278,0.33466 0.02427,0.0519 0.04861,0.10493 0.07289,0.15684 0.301545,-0.18555 0.595347,0.0199 0.863769,0.14803 0.754053,-0.73462 0.918693,-0.63531 1.914182,-0.4197 2.914345,-2.9733 7.670475,-0.0883 12.331215,1.37074 1.55573,0.45533 3.56774,1.14754 12.28485,4.99592 0.007,-0.14029 0.0144,-0.27948 0.0232,-0.41862 0.15793,0.0795 0.31701,0.16126 0.47494,0.24298 -0.24962,-0.44075 -0.29713,-0.94332 -0.19661,-1.43374 0.12263,0.23747 0.2695,0.46389 0.43409,0.67598 -0.0364,-0.43959 -0.2408,-1.01953 0.24297,-1.2923 0.007,0.13588 0.0188,0.40755 0.0254,0.54234 0.26069,-0.27616 0.46504,-0.62629 0.824,-0.78973 0.0541,0.4871 -0.46171,0.72899 -0.47719,1.18738 -0.0364,0.444 -0.10601,0.98417 0.25186,1.32433 0.4286,-0.0817 0.76102,-0.40429 1.14319,-0.59759 0.96844,-0.49752 2.93205,-0.93877 4.94508,-0.39099 0.70348,0.1798 3.14242,0.43147 4.15421,-0.009 1.10706,-0.42782 1.14938,-0.64925 1.54415,-0.90021 0.76888,-0.44625 1.65625,0.0939 1.82473,-3.51359 -1.9542,-0.80175 -2.04922,-1.14965 -2.41566,-2.09532 -1.88758,0.76542 -1.60164,0.82681 -2.38364,0.8052 0.9953,-1.69627 1.59935,-1.45004 2.64433,-1.41161 -0.13147,-0.21542 -0.21427,-0.58429 -0.53679,-0.55449 -2.93556,-0.19649 -2.99605,0.0916 -4.24589,-0.80635 -0.77649,-0.98149 -2.76727,-0.83379 -3.03198,-2.14175 -0.12149,-0.61855 -0.2463,-1.28239 -0.0409,-1.89653 0.46062,0.44291 0.27948,1.14543 0.59643,1.66347 0.2651,0.60308 1.00405,0.61523 1.5033,0.92675 -0.59963,-1.77486 -0.73761,-4.11942 0.61082,-5.20135 0.43518,0.54125 -0.0232,1.18628 -0.16567,1.74301 -0.33133,1.4072 0.001,3.13915 1.25701,3.99735 -0.20103,-0.44847 -0.51249,-0.84829 -0.65833,-1.32107 -0.0608,-1.73034 1.14983,-1.99711 2.66637,-3.05078 0.3424,-0.23639 0.6848,-0.47719 1.0648,-0.65391 0.0541,0.0409 0.16458,0.12257 0.21868,0.16458 -0.0699,0.39777 -0.51204,0.79867 -0.88583,1.10898 -0.65392,0.43741 -1.57178,0.58985 -1.9374,1.36302 -0.38325,0.7754 0.16235,1.57951 0.45616,2.28644 0.20691,-1.66732 -0.18972,-1.49806 1.9606,-2.60564 0.69292,-0.29802 0.57763,-1.16173 1.24594,-1.16531 0.14361,0.49042 0.0188,1.02835 -0.3667,1.37408 0.24189,0.0773 0.63403,0.0861 0.67598,0.4087 0.0909,0.33933 -0.70053,0.0956 -1.04709,0.0309 -2.11444,0.23798 -1.80734,1.45989 -1.80375,2.29418 0.841,-1.31756 0.6793,-1.54934 1.28903,-1.06256 -0.49483,0.35013 -0.62297,0.95763 -0.73339,1.51436 0.53901,0.44732 1.27356,0.31145 1.91526,0.41197 0.37335,0.10384 0.58653,0.46503 0.84389,0.72681 0.3628,-0.10985 0.61837,-0.16343 1.08027,-0.40538 0.20544,-0.10825 0.39873,-0.24522 0.62406,-0.31369 0.42635,-0.0895 0.8527,0.10275 1.28015,0.0585 0.68793,-0.18102 0.9997,-0.90566 1.49665,-0.99632 0.21426,0.10275 0.28716,0.34022 0.37776,0.54125 -0.0795,0.45947 0.20327,0.81626 0.43409,1.17637 0.0166,0.48045 -0.63071,0.4871 -0.95655,0.64836 -0.26619,0.28607 -0.4816,0.61747 -0.74446,0.90795 -0.58997,0.53742 2.04686,2.43926 2.1108,2.5018 0.27091,0.29559 0.43703,0.68096 0.81076,1.78054 -0.17781,-0.17008 -0.35563,-0.3424 -0.53127,-0.51248 0.30051,1.01505 0.36056,0.92125 0.30928,2.06111 -0.14687,-0.11931 -0.25295,-0.27833 -0.36012,-0.43185 0.0762,0.39432 0.0806,0.79638 0.0707,1.19626 -0.0795,0.0718 -0.15684,0.14246 -0.23415,0.21427 l -0.0662,-0.20986 c -0.0176,0.095 -0.053,0.28716 -0.0696,0.38217 0,0 4.19039,-2.13937 4.19065,-2.1395 3.23883,-1.61942 6.65177,-2.39463 10.22041,-2.38913 0.60596,-1.08206 0.11944,-0.75591 0.997399,-2.70947 -0.291879,-0.0907 -0.362349,-0.0916 -0.716829,-0.34797 -0.1447,-0.22532 -0.15793,-0.48933 -0.0839,-0.74113 0.15019,0.11043 0.2993,0.22424 0.44841,0.33799 -0.20544,-0.43633 -0.10269,-0.90354 0.0508,-1.33648 0.095,0.22865 0.192199,0.4573 0.293799,0.68371 0.0497,-0.40538 -0.0298,-1.03941 0.49925,-1.13993 -0.042,0.17782 -0.0806,0.35679 -0.12258,0.53461 0.23856,-0.19329 0.47719,-0.38658 0.72566,-0.56664 l 0.22424,-0.0232 c -0.084,0.15908 -0.13031,0.35014 -0.27724,0.46721 -0.50482,0.38109 -0.64619,1.1079 -0.53129,1.70101 0.1502,0.21541 0.39982,0.0453 0.59536,0.005 1.47183,-0.6105 3.44625,-0.39796 4.6833,0.0785 0.97203,0.56114 2.05338,0.89024 3.14906,1.1178 0.96537,0.23531 2.00588,0.0497 2.8763,-0.41311 1.29018,-0.48787 1.34134,0.56625 2.51835,-2.91824 -1.5214,-1.14626 -1.59819,-1.20291 -1.81699,-2.45544 -2.2649,0.42572 -1.80433,0.43365 -2.37922,0.222 1.29261,-1.16959 1.43935,-1.07259 2.75915,-0.7323 -0.0994,-0.22201 -0.11375,-0.58653 -0.42086,-0.62189 -2.60007,-0.75066 -3.07386,-0.5573 -4.0526,-2.05223 -0.66274,-0.63735 -1.74077,-0.9256 -2.04455,-1.88323 -0.0685,-0.68371 -0.0386,-1.44915 0.33134,-2.04782 0.30595,0.51248 0.005,1.11116 0.1922,1.65242 0.12373,0.62187 0.81959,0.78089 1.20841,1.19625 -0.10601,-1.01396 -0.10051,-2.07767 0.30378,-3.0309 0.27283,-0.66606 0.61747,-1.41161 1.33539,-1.68885 0.32917,0.64285 -0.34796,1.13327 -0.56114,1.6822 -0.54342,1.21391 -0.59202,2.85308 0.40315,3.85049 -0.34906,-1.28117 -0.61748,-1.27414 0.1016,-2.35268 0.41861,-0.62962 1.23155,-0.70693 1.87441,-0.98859 0.67597,-0.19994 1.29677,-0.62073 2.01693,-0.64503 -0.0144,0.12923 -0.0364,0.25628 -0.0651,0.38326 -0.43959,0.4087 -0.98967,0.70693 -1.5817,0.81626 -2.18528,0.4442 -1.75112,1.54691 -1.45911,2.91824 0.14911,-0.47053 0.21983,-0.98967 0.51696,-1.39505 0.58211,-0.35014 1.2625,-0.48269 1.90976,-0.66824 0.49062,-0.10524 0.91455,-1.082 1.2769,-0.76767 0.0894,0.47495 -0.20327,0.91787 -0.58871,1.16864 0.23972,0.12372 0.63954,0.24854 0.51914,0.60532 -0.37667,0.11931 -0.70028,-0.24521 -1.07254,-0.27616 -1.81424,-0.15051 -1.83917,0.79274 -2.00919,1.74078 0.32916,-0.37003 0.64394,-0.75552 1.02061,-1.08027 0.13696,0.11158 0.2596,0.23856 0.37335,0.37552 -0.5357,0.22641 -0.77541,0.77208 -0.99299,1.27024 0.40755,0.46062 1.03826,0.5401 1.59166,0.71907 0.39215,0.11707 0.5401,0.54234 0.71466,0.86927 0.52463,0.0254 1.03494,-0.10716 1.53092,-0.26401 0.48934,-0.15908 0.92675,0.23306 1.40056,0.27725 0.7199,-0.021 1.33513,-0.85239 1.67894,-0.53685 0.28057,0.39432 -0.053,0.89472 0.17891,1.30227 0.0442,0.1745 0.20767,0.38767 0.0685,0.55558 -0.26841,0.2353 -0.65717,0.16126 -0.97975,0.24189 -0.34349,0.26177 -0.65942,0.55999 -1.01729,0.80303 0.41101,1.74064 1.53277,2.18163 1.74742,2.92373 0.13696,0.48818 0.19221,0.99408 0.25404,1.49665 -0.1392,-0.19112 -0.27501,-0.38326 -0.40871,-0.57546 0.12705,0.67706 0.11931,1.3829 -0.14361,2.02908 -0.0707,-0.16458 -0.13696,-0.32808 -0.20212,-0.49266 -0.0166,0.55449 -0.16016,1.09575 -0.38767,1.5994 -0.0254,-0.17123 -0.0497,-0.34131 -0.0718,-0.51248 -0.28831,0.68813 -0.63179,1.42159 -1.36743,1.7308 0.0641,-0.15135 0.19329,-0.45289 0.25736,-0.60417 -0.0829,0.0751 -0.24962,0.22424 -0.33357,0.29821 0.0243,0.41753 0.2938,0.78865 0.56996,1.08578 7.08356,3.5187 -4.80927,-2.76037 10.12987,5.0986 -0.0287,-0.32584 -0.042,-0.65277 -0.031,-0.97976 0.15909,0.20103 0.31261,0.40756 0.46945,0.61191 -0.0718,-0.44956 -0.22865,-1.0162 0.22865,-1.31992 0.0132,0.19112 0.0254,0.38217 0.0353,0.57438 0.23971,-0.2949 0.4683,-0.6075 0.78314,-0.8295 0.0651,0.36561 -0.16899,0.63729 -0.36561,0.91013 -0.14694,0.5534 -0.18555,1.20949 0.1922,1.68444 0.4605,-0.23063 2.39387,-1.75619 5.46198,-1.24485 1.15425,0.36561 2.37813,0.40538 3.57983,0.38108 1.54914,0.008 2.58709,-1.18724 3.09272,-1.30777 0.41197,-0.1149 0.83174,-0.33907 0.9985,-0.7577 0.29629,-0.73237 0.41529,-1.83425 0.41861,-2.63101 -1.60234,-0.57227 -2.04519,-1.04025 -2.40678,-2.06553 -2.02671,0.86415 -1.72856,0.87067 -2.39353,0.7809 1.09081,-1.4852 1.15571,-1.44422 2.64981,-1.39396 -0.10269,-0.18997 -0.21983,-0.37226 -0.34349,-0.54784 -0.92893,-0.0199 -1.85568,-0.10601 -2.7846,-0.11707 -0.66165,-0.001 -1.27356,-0.34023 -1.75734,-0.76876 -1.10968,-1.19191 -3.46339,-0.29029 -3.05519,-3.87478 0.13146,0.0983 0.30596,0.18888 0.33025,0.37226 0.43524,2.18855 0.71262,1.4783 1.83464,2.16936 -0.9242,-2.69227 -0.14636,-5.11458 0.70692,-5.14502 0.29049,0.73014 -0.31701,1.3641 -0.34796,2.07986 -0.17782,1.31 0.20435,2.86407 1.3884,3.60194 -0.28274,-0.57987 -0.87592,-1.13219 -0.67706,-1.83022 0.1259,-0.53685 0.34349,-1.11557 0.84279,-1.41052 2.93244,-1.87391 2.45275,-1.71585 3.01875,-1.77947 -0.021,0.16791 0.0254,0.36562 -0.10383,0.50034 -1.39205,1.8448 -3.91801,0.98909 -2.17263,4.38068 0.0519,-0.49708 0.01,-1.02394 0.20211,-1.49333 0.56223,-0.57988 1.35419,-0.85053 2.01802,-1.28904 0.30595,-0.34349 0.40979,-0.87592 0.89581,-1.0405 0.21982,0.50257 0.0785,1.0836 -0.32034,1.44915 0.20544,0.0585 0.46945,0.0387 0.62297,0.21982 0.0751,0.10934 0.0287,0.25404 0.0442,0.37885 -0.44342,-0.0545 -1.66494,-0.48556 -2.63983,0.57438 -0.26951,0.4573 -0.17674,1.02394 -0.18224,1.52983 0.81812,-1.24652 0.64765,-1.52095 1.23156,-1.12554 -0.0176,0.20327 -0.20768,0.31919 -0.3126,0.47278 -0.18556,0.33581 -0.31145,0.73895 -0.31702,1.13104 0.55782,0.50697 1.38731,0.23414 2.05114,0.45729 0.27724,0.1502 0.45615,0.42195 0.65833,0.65719 0.52354,-0.1204 1.01838,-0.33691 1.47459,-0.62189 0.50149,-0.31369 1.08686,0.0651 1.61814,-0.0762 0.53128,-0.19661 0.83174,-0.72681 1.32433,-0.98966 0.26318,0.13159 0.1814,0.0886 0.30154,0.1546 0.13479,0.31702 0.14803,0.66383 0.23307,0.99409 0.28824,0.56394 0.5706,0.5651 0.14693,0.97201 -1.00635,0.38659 -0.44803,-0.0999 -1.62261,1.35311 0.44202,0.83148 1.06441,1.4595 1.85676,1.97608 0.73781,0.43076 0.9499,1.32657 1.20617,2.07876 -0.18006,-0.16235 -0.35014,-0.32693 -0.52137,-0.49375 0.095,0.27284 0.18671,0.54676 0.27283,0.824 8.00808,-6.75101 9.31752,-9.57557 15.83815,-10.1144 0.17871,-0.63524 0.33453,-0.97548 0.61082,-1.53975 -1.0669,-0.38581 -0.91166,-0.69567 -0.87368,-1.10457 0.0519,0.01 0.15794,0.0287 0.21101,0.0387 0.0939,0.0928 0.19328,0.18555 0.2938,0.27616 -0.29764,-0.78007 0.0154,-1.30106 0.0751,-1.4315 0.0751,0.23972 0.15576,0.47936 0.24963,0.71467 0.0419,-0.25845 0.0762,-0.51914 0.1248,-0.77649 0.0563,-0.11491 0.11932,-0.22757 0.18997,-0.33576 0.0563,-0.0132 0.17008,-0.0398 0.22641,-0.053 -0.0343,0.18006 -0.0651,0.36011 -0.0928,0.54126 0.24738,-0.20653 0.49483,-0.41529 0.75552,-0.60858 0.053,0.0122 0.15908,0.0353 0.21209,0.0464 -0.22636,0.54963 -0.45769,0.47092 -0.67157,0.87151 -0.15793,0.48933 -0.36446,1.05373 -0.0519,1.52759 0.6064,-0.18663 1.19843,-0.433 1.83022,-0.52136 1.48898,-0.12149 3.07732,0.0475 4.37736,0.83391 2.89003,1.23679 4.42371,0.96063 5.5128,0.3711 0.43627,-0.22973 0.98859,-0.0641 1.39729,-0.37552 0.63608,-0.47162 0.92905,-1.56122 1.32107,-2.71279 -1.68457,-1.24984 -1.70695,-1.36449 -1.91968,-2.58684 -2.02364,0.33492 -1.86833,0.50782 -2.50512,0.23748 1.348,-1.22196 1.5315,-1.15668 2.90935,-0.77432 -0.26043,-0.59324 0.32278,-0.57866 -2.84975,-1.30777 -1.2822,-0.28754 -1.65663,-1.45464 -2.14066,-1.75516 -1.79826,-1.24422 -2.18049,-1.15617 -1.73413,-3.572087 0.0563,-0.11375 0.14138,-0.19879 0.25845,-0.25512 0.24188,0.56555 -0.0607,1.194017 0.18223,1.762827 0.15576,0.60309 0.85495,0.73014 1.23155,1.15867 -0.13344,-1.58931 -0.0419,-2.730697 0.8038,-4.139057 M 37.783277,115.70501 c -0.08505,0.57546 -0.612997,0.99849 -1.191786,0.85494 0.04197,0.084 0.0398,0.20545 0.144694,0.24298 0.414208,-0.14029 0.805201,-0.33691 1.203936,-0.51581 -0.04085,-0.19662 -0.07398,-0.39656 -0.156844,-0.58211 m -4.671161,7.14424 c 1.207258,1.08028 2.455434,2.17487 3.941021,2.8575 0.01322,-1.09793 0.143608,-2.18702 0.239713,-3.27829 -1.395047,0.14137 -2.762478,0.666 -4.180734,0.42079 z"
       inkscape:connector-curvature="0"
       style="stroke-width:0.06394031" />
    <g
       transform="matrix(0.09323413,0,0,0.09323413,18.038246,83.957499)"
       id="layer1-6"
       inkscape:label="Calque 1">
      <g
         inkscape:export-ydpi="300"
         inkscape:export-xdpi="300"
         style="fill:#d7e3f4;fill-opacity:1;stroke:none;stroke-opacity:1"
         transform="translate(1.4893489e-8,2.4841431)"
         id="g5004">
        <g
           id="g4995"
           style="fill:#d7e3f4;fill-opacity:1;stroke:none;stroke-opacity:1">
          <path
             inkscape:connector-curvature="0"
             id="rect4904"
             transform="translate(0,308.26772)"
             d="m 135,164.09375 v 5 h 5 v 25.0332 h 5 v -25.0332 -0.0117 -4.98828 h -10 z"
             style="color:#000000;clip-rule:nonzero;display:inline;overflow:visible;visibility:visible;opacity:0.97000002;isolation:auto;mix-blend-mode:normal;color-interpolation:sRGB;color-interpolation-filters:linearRGB;solid-color:#000000;solid-opacity:1;fill:#d7e3f4;fill-opacity:1;fill-rule:nonzero;stroke:none;stroke-width:1px;stroke-linecap:butt;stroke-linejoin:miter;stroke-miterlimit:4;stroke-dasharray:none;stroke-dashoffset:0;stroke-opacity:1;color-rendering:auto;image-rendering:auto;shape-rendering:auto;text-rendering:auto;enable-background:accumulate" />
          <path
             inkscape:connector-curvature="0"
             id="rect4924"
             transform="translate(0,308.26772)"
             d="m 150,164.09375 v 5 5 h 5 v -5 h 5 v -5 h -5 z"
             style="color:#000000;clip-rule:nonzero;display:inline;overflow:visible;visibility:visible;opacity:0.97000002;isolation:auto;mix-blend-mode:normal;color-interpolation:sRGB;color-interpolation-filters:linearRGB;solid-color:#000000;solid-opacity:1;fill:#d7e3f4;fill-opacity:1;fill-rule:nonzero;stroke:none;stroke-width:1px;stroke-linecap:butt;stroke-linejoin:miter;stroke-miterlimit:4;stroke-dasharray:none;stroke-dashoffset:0;stroke-opacity:1;color-rendering:auto;image-rendering:auto;shape-rendering:auto;text-rendering:auto;enable-background:accumulate" />
          <rect
             y="477.36221"
             x="160"
             height="5"
             width="5"
             id="rect4928"
             style="color:#000000;clip-rule:nonzero;display:inline;overflow:visible;visibility:visible;opacity:0.97000002;isolation:auto;mix-blend-mode:normal;color-interpolation:sRGB;color-interpolation-filters:linearRGB;solid-color:#000000;solid-opacity:1;fill:#d7e3f4;fill-opacity:1;fill-rule:nonzero;stroke:none;stroke-width:1px;stroke-linecap:butt;stroke-linejoin:miter;stroke-miterlimit:4;stroke-dasharray:none;stroke-dashoffset:0;stroke-opacity:1;color-rendering:auto;image-rendering:auto;shape-rendering:auto;text-rendering:auto;enable-background:accumulate" />
          <rect
             y="482.36221"
             x="155"
             height="5"
             width="5"
             id="rect4930"
             style="color:#000000;clip-rule:nonzero;display:inline;overflow:visible;visibility:visible;opacity:0.97000002;isolation:auto;mix-blend-mode:normal;color-interpolation:sRGB;color-interpolation-filters:linearRGB;solid-color:#000000;solid-opacity:1;fill:#d7e3f4;fill-opacity:1;fill-rule:nonzero;stroke:none;stroke-width:1px;stroke-linecap:butt;stroke-linejoin:miter;stroke-miterlimit:4;stroke-dasharray:none;stroke-dashoffset:0;stroke-opacity:1;color-rendering:auto;image-rendering:auto;shape-rendering:auto;text-rendering:auto;enable-background:accumulate" />
          <path
             inkscape:connector-curvature="0"
             id="rect4940"
             transform="translate(0,308.26772)"
             d="m 160,179.09375 v 10 h -5 v 5 h 5 5 v -15 z"
             style="color:#000000;clip-rule:nonzero;display:inline;overflow:visible;visibility:visible;opacity:0.97000002;isolation:auto;mix-blend-mode:normal;color-interpolation:sRGB;color-interpolation-filters:linearRGB;solid-color:#000000;solid-opacity:1;fill:#d7e3f4;fill-opacity:1;fill-rule:nonzero;stroke:none;stroke-width:1px;stroke-linecap:butt;stroke-linejoin:miter;stroke-miterlimit:4;stroke-dasharray:none;stroke-dashoffset:0;stroke-opacity:1;color-rendering:auto;image-rendering:auto;shape-rendering:auto;text-rendering:auto;enable-background:accumulate" />
        </g>
        <rect
           style="color:#000000;clip-rule:nonzero;display:inline;overflow:visible;visibility:visible;opacity:0.97000002;isolation:auto;mix-blend-mode:normal;color-interpolation:sRGB;color-interpolation-filters:linearRGB;solid-color:#000000;solid-opacity:1;fill:#d7e3f4;fill-opacity:1;fill-rule:nonzero;stroke:none;stroke-width:1px;stroke-linecap:butt;stroke-linejoin:miter;stroke-miterlimit:4;stroke-dasharray:none;stroke-dashoffset:0;stroke-opacity:1;color-rendering:auto;image-rendering:auto;shape-rendering:auto;text-rendering:auto;enable-background:accumulate"
           id="rect4944"
           width="5"
           height="10"
           x="150"
           y="487.36221" />
      </g>
      <g
         inkscape:export-ydpi="300"
         inkscape:export-xdpi="300"
         transform="translate(1.7677669,3.4092649)"
         id="text4949"
         style="font-style:normal;font-variant:normal;font-weight:normal;font-stretch:normal;font-size:34.45580292px;line-height:125%;font-family:'Kaushan Script';-inkscape-font-specification:'Kaushan Script';letter-spacing:0px;word-spacing:0px;fill:#aaccff;fill-opacity:1;stroke:none;stroke-width:1px;stroke-linecap:butt;stroke-linejoin:miter;stroke-opacity:1">
        <path
           style="fill:#aaccff"
           inkscape:connector-curvature="0"
           id="path4954"
           d="m 192.43545,480.98389 c 0,-4.03132 -3.23885,-6.78779 -8.51058,-6.78779 -4.4448,0 -9.92327,1.37823 -12.61083,3.20439 0.10337,1.06813 1.1715,2.92874 1.96398,3.48004 1.20596,-0.99922 3.10103,-1.96398 5.23729,-2.6531 -0.68912,2.79092 -1.30932,4.30698 -2.79092,7.85592 -3.27331,7.82147 -4.82382,11.43933 -5.75412,13.23103 0.89585,1.55051 1.92952,2.61864 3.65231,3.03211 0.82694,-3.92796 2.23963,-8.06266 4.51371,-13.02429 0.82694,0.86139 1.34378,1.10258 2.48082,1.10258 6.44324,0 11.81834,-4.37588 11.81834,-9.44089 z m -6.13313,-4.13469 c 3.13548,0 4.78935,1.58497 4.78935,3.96242 0,3.5834 -4.85826,6.44323 -11.99062,6.44323 2.17072,-4.61708 3.99688,-8.40722 4.92718,-9.57871 l -0.41347,-0.62021 c 0.93031,-0.13782 1.82616,-0.20673 2.68756,-0.20673 z" />
        <path
           style="fill:#aaccff"
           inkscape:connector-curvature="0"
           id="path4956"
           d="m 190.67174,497.24703 c 0,2.0329 2.17072,2.92875 2.51528,2.92875 0.20673,0 0.20673,-0.31011 0.20673,-1.13704 0.0345,-0.99922 0.55129,-2.48082 1.03368,-3.75569 1.17149,-3.03211 1.7917,-5.47847 3.8935,-7.82146 -0.89585,-1.34378 -2.44636,-2.10181 -3.20439,-2.27409 -2.06735,1.03368 -3.06656,4.61708 -3.2733,5.51293 -0.89585,4.1347 -1.1715,5.75412 -1.1715,6.5466 z m 6.58106,-14.95381 c 0,0.37901 0.48238,0.82693 1.03368,0.9303 0.34455,-0.75803 2.85983,-3.82459 3.8935,-4.78935 -0.68911,-1.03368 -3.10102,-2.41191 -4.16915,-2.41191 -0.58575,1.4816 -1.06813,3.72123 -1.06813,4.51371 0,0.37901 0.17228,0.89585 0.41347,1.13704 -0.0689,0.27565 -0.10337,0.48238 -0.10337,0.62021 z" />
        <path
           style="fill:#aaccff"
           inkscape:connector-curvature="0"
           id="path4958"
           d="m 209.49592,499.34884 c -1.10259,-2.10181 -2.06735,-4.06579 -2.68755,-5.82303 3.61785,-3.61786 6.09867,-7.02899 6.61551,-9.13079 -0.20674,-0.51684 -1.13704,-0.99922 -2.27408,-1.20595 -1.65388,3.68677 -3.16994,6.16758 -5.06501,8.3383 -0.68911,-2.13626 -0.96476,-3.96242 -0.96476,-5.75412 0,-0.68911 0,-0.96476 0.0689,-1.44714 -1.03367,-0.34456 -2.82537,-0.72357 -3.79014,-0.72357 -0.58574,0 -0.68911,0.17227 -0.68911,0.79248 0,1.7917 1.1715,6.30541 2.72201,9.95773 -1.72279,1.99843 -5.20283,4.47925 -7.02899,5.47847 0.0345,0.72357 0.41347,1.20595 0.89585,1.30932 1.99844,-1.1715 4.4448,-2.9632 6.7878,-5.065 0.86139,2.1018 1.92952,3.75568 2.68755,4.65153 0.96476,-0.0689 2.23963,-0.58575 2.72201,-1.37823 z" />
        <path
           style="fill:#aaccff"
           inkscape:connector-curvature="0"
           id="path4960"
           d="m 225.51679,485.29087 c -0.93031,-1.1715 -1.92952,-1.82616 -2.9632,-1.96398 -4.54816,0 -9.71653,6.64997 -9.71653,12.30072 0,2.75647 1.86061,4.92718 5.03054,5.27174 2.17072,-0.48238 4.82382,-2.44636 6.89116,-5.16837 -0.17228,-0.20674 -0.34455,-0.37902 -0.58574,-0.58575 -1.44715,1.55051 -3.8246,4.03133 -6.30542,4.03133 -1.30932,0 -1.58496,-1.58497 -1.58496,-2.75647 0,-0.3101 0.0345,-0.6202 0.0345,-0.89585 5.85749,-2.34299 8.85514,-4.58262 9.1997,-10.23337 z m -2.37745,1.13704 c -0.17228,3.13548 -2.89429,5.96086 -6.5466,7.78701 1.10258,-4.27252 4.03133,-7.44245 6.5466,-7.78701 z" />
        <path
           style="fill:#aaccff"
           inkscape:connector-curvature="0"
           id="path4962"
           d="m 227.07753,497.3504 c 0,1.4816 0.3101,2.79092 0.72357,3.06657 0.3101,0.20673 0.82694,0.75803 0.93031,0.99922 0.13782,0.3101 0.65466,0.58574 1.27486,0.65466 -0.0344,-0.17228 -0.0344,-0.20674 -0.0344,-0.99922 0,-2.89429 1.03367,-7.37354 2.9632,-12.74865 2.27408,-6.30541 4.85826,-10.95694 8.44167,-15.19501 -0.37902,-0.58575 -2.75647,-1.96398 -3.85905,-2.17071 -2.37745,2.89428 -4.85827,8.0282 -7.68365,15.7463 -1.75724,4.82381 -2.75646,8.6484 -2.75646,10.64684 z" />
      </g>
    </g>
  </g>
</svg>
