<?xml version="1.0" encoding="UTF-8" standalone="no"?>
<!-- Created with Inkscape (http://www.inkscape.org/) -->

<svg
   xmlns:dc="http://purl.org/dc/elements/1.1/"
   xmlns:cc="http://creativecommons.org/ns#"
   xmlns:rdf="http://www.w3.org/1999/02/22-rdf-syntax-ns#"
   xmlns:svg="http://www.w3.org/2000/svg"
   xmlns="http://www.w3.org/2000/svg"
   xmlns:sodipodi="http://sodipodi.sourceforge.net/DTD/sodipodi-0.dtd"
   xmlns:inkscape="http://www.inkscape.org/namespaces/inkscape"
   width="210mm"
   height="297mm"
   viewBox="0 0 210 297"
   version="1.1"
   id="svg16227"
   inkscape:version="0.92.3 (2405546, 2018-03-11)"
   sodipodi:docname="sapin1.svg">
  <defs
     id="defs16221" />
  <sodipodi:namedview
     id="base"
     pagecolor="#ffffff"
     bordercolor="#666666"
     borderopacity="1.0"
     inkscape:pageopacity="0.0"
     inkscape:pageshadow="2"
     inkscape:zoom="1.4"
     inkscape:cx="409.31969"
     inkscape:cy="415.24514"
     inkscape:document-units="mm"
     inkscape:current-layer="layer1"
     showgrid="false"
     inkscape:window-width="1920"
     inkscape:window-height="1025"
     inkscape:window-x="1920"
     inkscape:window-y="27"
     inkscape:window-maximized="1" />
  <metadata
     id="metadata16224">
    <rdf:RDF>
      <cc:Work
         rdf:about="">
        <dc:format>image/svg+xml</dc:format>
        <dc:type
           rdf:resource="http://purl.org/dc/dcmitype/StillImage" />
        <dc:title></dc:title>
      </cc:Work>
    </rdf:RDF>
  </metadata>
  <g
     inkscape:label="Calque 1"
     inkscape:groupmode="layer"
     id="layer1">
    <path
       style="fill:#000000;stroke-width:0.46561345"
       d="m 104.87144,279.33839 c -0.56127,-0.22602 -1.37363,-0.94996 -1.80522,-1.60867 -0.69375,-1.0588 -0.74577,-2.10764 -0.4493,-9.05005 0.20897,-4.89587 0.16718,-7.95643 -0.11164,-8.12873 -0.24582,-0.15178 -0.82183,0.13804 -1.27987,0.64398 -1.834974,2.02762 -4.257944,0.68368 -3.804524,-2.11016 0.14518,-0.8942 0.0885,-1.62573 -0.12593,-1.62573 -0.21448,0 -1.49105,0.74121 -2.8373,1.64717 -3.98693,2.68304 -9.17471,5.00031 -10.46772,4.67579 -1.79252,-0.44985 -1.96542,-2.27102 -0.42675,-4.49172 2.24506,-3.23963 0.31401,-3.53786 -7.40441,-1.14349 -4.73039,1.46745 -6.35282,1.22686 -6.35282,-0.94198 0,-0.92978 -0.18643,-1.15003 -0.81479,-0.96333 -0.44819,0.13309 -1.44342,0.38496 -2.21168,0.55956 -0.76826,0.17488 -1.71454,0.59173 -2.10279,0.92698 -0.38826,0.33546 -1.73373,0.8398 -2.98996,1.12137 -1.89156,0.424 -2.40344,0.39266 -2.97895,-0.18313 -0.88721,-0.88716 -0.25187,-1.74159 2.68529,-3.61066 2.83597,-1.80479 8.33408,-7.10662 8.89232,-8.57479 1.02112,-2.68584 -0.56583,-2.71328 -3.83703,-0.0665 -4.00623,3.24166 -5.36623,4.08768 -8.1367,5.0614 -3.36292,1.18198 -4.80216,0.87929 -4.80216,-1.0099 0,-1.65614 -0.32831,-1.69304 -3.89823,-0.4383 -1.4861,0.52244 -3.08328,0.82859 -3.54935,0.68065 -1.12908,-0.35856 -1.51062,-1.48307 -0.89403,-2.63519 0.27606,-0.51529 0.391,-1.04823 0.25517,-1.18379 -0.13529,-0.13584 -1.80688,0.4031 -3.71417,1.19721 -4.58147,1.90729 -8.3354,2.8539 -11.31765,2.8539 -2.480822,0 -3.475163,-0.59844 -2.543075,-1.53053 1.016999,-1.01705 0.504293,-1.38788 -1.532565,-1.10867 -2.228455,0.30521 -3.319035,-0.36351 -2.799675,-1.71674 0.157832,-0.4119 2.676049,-1.92374 5.595391,-3.35951 2.919394,-1.43578 5.307994,-2.80149 5.307994,-3.03489 0,-0.60317 -0.21393,-0.56407 -4.433099,0.8099 -4.350388,1.4168 -6.096658,1.27206 -6.552226,-0.54279 -0.271119,-1.07986 -0.486695,-1.1569 -3.240395,-1.1569 -2.458659,0 -3.167693,-0.18918 -4.256459,-1.13474 -1.152888,-1.00139 -1.224325,-1.21223 -0.60801,-1.7939 0.384406,-0.36241 2.751775,-1.32705 5.261358,-2.14338 5.947131,-1.9344 12.998591,-4.95741 20.882051,-8.95215 7.40589,-3.75272 18.31252,-10.2064 19.86543,-11.7548 l 1.07717,-1.07403 -1.46421,0.21503 c -0.80538,0.11824 -1.95283,-0.044 -2.54995,-0.36626 -0.9289,-0.49714 -1.54851,-0.39925 -4.29111,0.67659 -3.8253,1.50078 -6.19416,1.46778 -6.8802,-0.0957 -0.5704,-1.30011 -0.56693,-1.30022 -4.05326,0.11659 -4.5614,1.85345 -6.59606,1.51348 -6.96644,-1.16406 -0.15453,-1.11901 -0.27167,-1.15783 -3.03109,-1.00347 -2.498143,0.13969 -2.935508,0.0385 -3.374798,-0.7825 -0.674993,-1.26134 0.307415,-2.22989 2.890138,-2.84994 4.78522,-1.14876 17.08776,-6.00196 18.45342,-7.27957 0.70524,-0.65976 0.79262,-0.58734 -1.63464,-1.35477 -1.50589,-0.47625 -0.20347,-1.47824 6.04959,-4.65588 3.52768,-1.79258 8.22794,-4.55744 10.44507,-6.14401 4.68991,-3.35627 12.56457,-10.58712 12.07964,-11.09201 -0.18258,-0.19028 -1.54477,0.14958 -3.02647,0.75506 -1.79384,0.73329 -3.47197,1.07128 -5.02208,1.01145 -1.28047,-0.0495 -3.2939,-0.094 -4.47429,-0.099 -2.27514,-0.011 -3.42033,-0.79774 -2.94805,-2.02856 0.15179,-0.39595 1.94458,-1.80412 3.98342,-3.12881 3.43023,-2.22873 5.54177,-4.33202 4.94652,-4.92727 -0.13639,-0.13639 -1.68391,0.4636 -3.43876,1.33343 -7.53045,3.73292 -10.95002,4.4595 -11.24566,2.38942 -0.12924,-0.90602 -0.28817,-0.94374 -2.16494,-0.51419 -2.59136,0.593 -3.68898,0.21118 -3.26168,-1.13545 0.29422,-0.92736 0.20073,-0.97845 -1.2483,-0.68236 -5.17447,1.05692 -7.38665,0.73433 -7.38665,-1.07728 0,-0.67598 1.92539,-1.68786 8.91773,-4.68656 15.07268,-6.46407 21.88244,-9.94067 24.10495,-12.30644 1.24099,-1.32095 0.67544,-1.84229 -1.26474,-1.16592 -0.7742,0.27002 -2.21256,0.42455 -3.1964,0.34371 -1.41433,-0.11604 -1.81842,-0.35526 -1.9305,-1.1409 -0.11934,-0.83602 0.54829,-1.33189 4.20482,-3.12238 3.98094,-1.94942 10.13809,-6.66942 10.13809,-7.77166 0,-0.22107 -1.07843,-0.46524 -2.39652,-0.54278 -2.96333,-0.17378 -3.87029,-1.17538 -2.47284,-2.73017 l 0.91168,-1.0143 -3.30254,0.32831 c -2.70151,0.26892 -3.43688,0.19413 -4.04088,-0.4097 -0.40585,-0.40586 -1.23703,-0.73835 -1.84663,-0.73835 -0.60955,0 -1.51502,-0.30026 -2.01211,-0.66707 -0.72438,-0.53454 -0.78828,-0.78421 -0.32172,-1.25716 1.06556,-1.08029 0.60543,-1.34311 -2.13997,-1.22218 -2.91461,0.12814 -4.26223,-0.50429 -4.26223,-2.00094 0,-0.91295 0.52189,-1.13914 3.72489,-1.61352 4.71632,-0.69864 13.9684,-3.76657 13.9684,-4.6319 0,-0.10944 -0.63809,0.022 -1.41806,0.29532 -1.15834,0.40365 -1.57876,0.34866 -2.29533,-0.29972 -0.81853,-0.74077 -1.05115,-0.74335 -3.47494,-0.0385 -1.92973,0.56099 -2.83609,0.62759 -3.52483,0.25902 -1.22526,-0.65569 -1.17505,-1.68754 0.12044,-2.47785 0.57622,-0.35141 3.4051,-2.03444 6.28644,-3.73985 6.17288,-3.65362 12.09015,-7.79761 15.01538,-10.51562 2.06451,-1.91824 2.07474,-1.94244 0.69842,-1.64762 -3.26971,0.7004 -4.93393,0.76651 -5.59006,0.22218 -0.4009,-0.33271 -1.18644,-0.44105 -1.89822,-0.26232 -1.39755,0.35086 -2.5224,-0.37781 -2.5224,-1.63364 0,-0.60757 -0.47239,-0.94177 -1.64227,-1.1612 -1.68512,-0.31621 -2.73209,-1.476962 -2.1628,-2.398052 0.17653,-0.285417 1.74671,-1.055384 3.48996,-1.711514 5.00982,-1.88568 9.4653,-4.41836 12.0626,-6.856837 1.31814,-1.237523 2.27234,-2.374244 2.12055,-2.526081 -0.15178,-0.151783 -1.73301,0.157832 -3.51371,0.688191 -3.85055,1.146784 -4.92507,1.197378 -5.69619,0.26837 -0.43555,-0.524641 -1.16576,-0.629843 -2.96708,-0.427302 -1.75199,0.196878 -2.63794,0.07974 -3.32068,-0.440499 -1.41983,-1.081727 -0.4757,-2.095426 3.5191,-3.777464 3.96109,-1.667904 10.21646,-5.272027 10.21646,-5.886252 0,-0.433351 -1.58245,-0.612795 -3.99442,-0.453148 -1.78383,0.118236 -2.92429,-1.01172 -2.06551,-2.046482 0.31512,-0.379456 2.08212,-1.415978 3.927,-2.303356 3.19491,-1.53669 7.754,-5.019772 7.25059,-5.539353 -0.13034,-0.134734 -1.10472,-0.011 -2.16538,0.27002 -1.61561,0.43115 -2.12226,0.387705 -3.12243,-0.26782 -0.65663,-0.430051 -1.73165,-0.78223 -2.38893,-0.78223 -1.39173,0 -1.99176,-1.10004 -1.15201,-2.111924 0.32116,-0.386606 2.17781,-1.53262 4.12623,-2.546319 3.58378,-1.864562 7.034694,-4.381295 7.034694,-5.130309 0,-0.224924 -1.202714,-0.471296 -2.672754,-0.548287 -3.41973,-0.17873 -3.88135,-1.257157 -1.13732,-2.657077 2.03735,-1.039326 6.138124,-4.919133 6.138124,-5.807226 0,-0.312914 -0.21393,-0.782781 -0.47625,-1.044606 -0.32446,-0.324463 -0.18753,-1.133145 0.42895,-2.537575 1.04197,-2.373804 2.1876,-7.642477 2.64944,-12.184683 0.32006,-3.14476 1.17191,-4.68068 2.08838,-3.76421 0.25352,0.253521 0.67313,2.434022 0.93286,4.845937 0.50429,4.681835 1.08878,7.009334 2.18327,8.692197 0.60443,0.929338 0.59426,1.18055 -0.0896,2.22477 -0.83316,1.271565 -0.77701,1.457774 1.21063,4.014982 0.74209,0.954691 1.2692,2.160263 1.20233,2.749795 -0.0973,0.857297 0.37176,1.294443 2.5582,2.384363 3.30193,1.645962 3.50464,3.155374 0.4273,3.183641 -0.4273,0.0039 -1.08272,0.200727 -1.45668,0.4372 -0.58348,0.369008 -0.56049,0.561926 0.16223,1.360325 0.89189,0.985487 0.67731,1.920215 -0.44104,1.920215 -0.36901,0 -0.67093,0.167181 -0.67093,0.371208 0,0.650906 3.39267,3.667861 6.48261,5.764606 1.64475,1.116098 3.07354,2.278555 3.17511,2.58322 0.20568,0.61681 -2.71124,1.990168 -4.22698,1.990168 -0.91845,0 -0.92868,0.04399 -0.17928,0.794824 0.4372,0.4372 2.59892,1.808043 4.87234,2.910102 6.87089,3.330726 5.04755,3.108319 2.30603,3.334933 -0.89629,0.08469 -1.65546,0.781677 -1.86026,1.145571 -0.22217,0.394305 -1.10416,0.661189 -2.18418,0.661189 -0.99649,0 -1.96509,0.248022 -2.15246,0.551147 -0.54883,0.888534 3.3709,3.920392 8.0298,6.210496 2.33861,1.149533 4.51191,2.403225 4.82955,2.785981 0.92609,1.115878 -0.24472,2.092731 -2.50799,2.092731 -1.4559,0 -2.07618,0.240323 -2.54021,0.983178 -0.54444,0.871925 -0.93902,0.95865 -3.4877,0.766667 -1.58058,-0.119336 -3.2404,-0.374507 -3.68854,-0.567315 -1.51002,-0.650301 -0.88749,0.96404 1.31743,3.41643 1.17274,1.304396 3.84422,3.657522 5.93657,5.229244 4.52202,3.39674 4.85088,3.84351 3.51679,4.77796 -0.99412,0.69633 -0.99197,0.7026 0.57601,1.65674 1.51419,0.92148 2.81677,1.49127 10.80703,4.72776 4.0879,1.6558 4.73452,2.46009 3.06695,3.8148 -0.99171,0.80566 -1.56546,0.87765 -4.83296,0.60675 l -3.70768,-0.30742 1.05616,1.12418 c 0.97531,1.03823 0.99819,1.18215 0.29861,1.88161 -0.46305,0.46305 -1.53047,0.75743 -2.74726,0.75743 -1.39855,0 -2.24028,0.27662 -2.83262,0.93127 -0.66295,0.73257 -1.4481,0.93483 -3.68068,0.9482 l -2.83789,0.0165 2.6568,2.50463 c 2.45948,2.31859 5.1071,3.86029 10.7296,6.24778 2.46053,1.04483 2.87029,2.16098 1.04763,2.85396 -0.64023,0.24362 -1.16405,0.56709 -1.16405,0.71926 0,0.43775 9.22437,4.6402 12.65274,5.76422 3.35665,1.10042 4.28676,1.82469 3.8396,2.9899 -0.3943,1.02756 -2.71691,1.37017 -5.8923,0.86906 -2.35488,-0.37175 -2.76481,-0.31676 -3.47379,0.4669 -0.50099,0.5539 -1.1613,0.79367 -1.75336,0.63699 -0.63694,-0.16828 -1.20854,0.0896 -1.73626,0.78416 -0.68654,0.90366 -1.17538,1.02459 -3.84131,0.95051 -1.68001,-0.044 -3.05463,0.0863 -3.05463,0.29587 0,0.20952 0.68099,0.89403 1.51326,1.52129 4.76328,3.58982 12.69354,7.10079 20.99066,9.29322 5.5844,1.47559 7.76099,2.42 7.76099,3.36738 0,1.50979 -1.50061,1.90624 -8.10178,2.14035 l -6.56504,0.23263 2.40861,0.8403 c 3.07745,1.0737 3.96302,2.02822 2.72296,2.93496 -0.48724,0.35636 -1.63194,0.6547 -2.54329,0.66284 -1.47752,0.011 -1.56875,0.0819 -0.84223,0.63336 1.13919,0.86478 1.0154,2.07744 -0.24417,2.3936 -0.58255,0.14629 -2.83498,0.24472 -5.00537,0.21888 -6.92739,-0.0819 -8.16035,0.0962 -7.97508,1.15421 0.28267,1.61329 1.8446,3.35098 5.45456,6.06795 7.23673,5.44647 21.91362,13.16522 30.83987,16.21902 5.57537,1.9074 7.70957,3.04495 7.93796,4.23078 0.21612,1.12269 -0.4977,1.50776 -3.48688,1.88128 -1.89332,0.23647 -2.95514,0.70348 -4.46137,1.9619 -1.86335,1.55676 -2.12578,1.63793 -4.57806,1.41554 -1.43077,-0.12979 -3.4684,-0.67819 -4.52802,-1.21877 -2.4564,-1.25315 -3.08366,-1.27426 -2.44573,-0.0819 1.70145,3.17918 -0.79878,4.05083 -7.43345,2.59146 -3.79022,-0.8337 -3.72489,-0.83321 -3.72489,-0.0275 0,1.05725 -0.92477,1.4063 -4.42331,1.66972 l -3.25931,0.24527 8.14826,4.00734 c 12.47455,6.13504 17.69142,8.05889 28.30367,10.43775 8.91074,1.99748 10.34222,2.56342 10.34222,4.089 0,1.4581 -2.97818,2.99853 -6.58137,3.40417 -2.84625,0.32061 -3.82047,0.89425 -3.51316,2.06941 0.31016,1.186 -0.84036,2.57558 -2.38887,2.88525 -1.64184,0.32831 -6.06361,-0.56556 -11.82277,-2.3902 -4.83681,-1.53245 -9.43901,-2.25248 -9.8761,-1.54521 -0.80313,1.29945 8.03903,5.71203 17.83528,8.90057 8.09733,2.63552 10.65493,3.78835 12.36545,5.57372 1.49319,1.55858 1.32606,2.85962 -0.4724,3.67919 -1.60328,0.73048 -3.69013,0.67395 -8.12752,-0.21997 -2.06468,-0.41576 -3.88354,-0.62688 -4.04193,-0.46855 -0.15838,0.15838 0.0803,0.69507 0.53069,1.19265 1.1475,1.26804 0.54554,1.8947 -1.81985,1.8947 -1.86275,0 -7.32604,-0.9223 -9.95969,-1.68133 -1.0247,-0.29531 -1.07832,-0.22052 -0.78779,1.10246 0.4405,2.00469 -0.97206,2.90692 -4.55078,2.90692 -2.22736,0 -3.75145,-0.42455 -8.16107,-2.27399 -8.25543,-3.46224 -10.19446,-4.08191 -10.81886,-3.45751 -0.39815,0.39815 0.24857,1.36241 2.58212,3.84681 3.11529,3.317 3.51839,4.31986 1.84471,4.58922 -2.11478,0.34041 -2.17533,0.52959 -0.70546,2.20349 1.63689,1.86434 1.71999,2.19744 0.74918,3.00315 -0.9273,0.76958 -3.37744,0.27882 -7.1505,-1.43187 -3.76476,-1.707 -4.26212,-1.70909 -4.26212,-0.0165 0,3.18562 -2.6716,3.07751 -9.56209,-0.38715 -2.57019,-1.2923 -4.88526,-2.34961 -5.14461,-2.34961 -0.25957,0 -0.73642,0.73268 -1.06028,1.6282 -0.6558,1.81369 -2.1728,2.49594 -3.71482,1.67065 -2.36847,-1.26755 -2.41076,-1.11934 -2.09169,7.33127 0.16278,4.31002 0.15178,8.40959 -0.022,9.11015 -0.52794,2.10241 -4.73871,3.28873 -7.59283,2.13909 z M 67.862146,244.31146 c 6.39401,-2.22839 -11.381482,7.48725 1.1e-4,-6.4e-4 z"
       id="path16019"
       inkscape:connector-curvature="0"
       sodipodi:nodetypes="ccccccsscccsccccccccsscccccsscccsccscccssccccccccccccscccccccscccccsscccccssccscscssssscccscsccccsscsccccscssccccccscssssscccccccccccccssscscsccscccsccccsccscscccscccsscsccsccccsccsscccccccccccccccccsscccscscscccccscsccssscccccscscsccccccc" />
  </g>
</svg>
