<?xml version="1.0" encoding="UTF-8" standalone="no"?>
<!-- Created with Inkscape (http://www.inkscape.org/) -->

<svg
   xmlns:dc="http://purl.org/dc/elements/1.1/"
   xmlns:cc="http://creativecommons.org/ns#"
   xmlns:rdf="http://www.w3.org/1999/02/22-rdf-syntax-ns#"
   xmlns:svg="http://www.w3.org/2000/svg"
   xmlns="http://www.w3.org/2000/svg"
   xmlns:sodipodi="http://sodipodi.sourceforge.net/DTD/sodipodi-0.dtd"
   xmlns:inkscape="http://www.inkscape.org/namespaces/inkscape"
   width="210mm"
   height="297mm"
   viewBox="0 0 210 297"
   version="1.1"
   id="svg16317"
   inkscape:version="0.92.3 (2405546, 2018-03-11)"
   sodipodi:docname="sapin3.svg">
  <defs
     id="defs16311" />
  <sodipodi:namedview
     id="base"
     pagecolor="#ffffff"
     bordercolor="#666666"
     borderopacity="1.0"
     inkscape:pageopacity="0.0"
     inkscape:pageshadow="2"
     inkscape:zoom="1.4"
     inkscape:cx="386.25526"
     inkscape:cy="148.16591"
     inkscape:document-units="mm"
     inkscape:current-layer="layer1"
     showgrid="false"
     inkscape:window-width="1920"
     inkscape:window-height="1025"
     inkscape:window-x="1920"
     inkscape:window-y="27"
     inkscape:window-maximized="1" />
  <metadata
     id="metadata16314">
    <rdf:RDF>
      <cc:Work
         rdf:about="">
        <dc:format>image/svg+xml</dc:format>
        <dc:type
           rdf:resource="http://purl.org/dc/dcmitype/StillImage" />
        <dc:title></dc:title>
      </cc:Work>
    </rdf:RDF>
  </metadata>
  <g
     inkscape:label="Calque 1"
     inkscape:groupmode="layer"
     id="layer1">
    <path
       style="fill:#000000;stroke-width:0.524629"
       d="m 116.23948,289.10404 c -2.32328,-0.93758 -2.81044,-2.45985 -2.81044,-8.78204 v -5.92098 l -2.7543,1.51651 c -6.75532,3.71939 -8.9825,2.13869 -6.18984,-4.393 1.44928,-3.38956 1.7213,-4.97008 0.90908,-5.28176 -1.16988,-0.44862 -6.548798,1.80018 -12.304888,5.14506 -8.149884,4.73592 -13.934229,6.52284 -16.066846,4.96345 -0.940739,-0.68793 -0.935472,-0.79147 0.168542,-3.2867 0.727334,-1.64421 2.838945,-4.30916 5.835713,-7.36505 2.582786,-2.63365 4.695946,-5.17443 4.695946,-5.64616 0,-0.47155 -0.121449,-0.85758 -0.270163,-0.85758 -0.148714,0 -3.158742,1.45057 -6.68902,3.22355 -6.954164,3.49254 -12.152825,5.3066 -18.062647,6.30292 -6.503314,1.09633 -8.275796,-0.95319 -4.614278,-5.33566 1.012741,-1.2122 2.016063,-2.50781 2.229653,-2.8791 0.56945,-0.98975 5.986038,-4.44146 11.518251,-7.3397 2.65894,-1.39295 5.477127,-3.20342 6.262583,-4.02327 l 1.428086,-1.4906 -1.54086,0.005 c -1.602577,0.005 -5.160615,1.03053 -11.630158,3.35474 -3.932425,1.41278 -9.059703,1.85216 -9.059703,0.77641 0,-0.32284 0.708249,-1.3932 1.573887,-2.37911 0.865638,-0.98585 1.573887,-2.12574 1.573887,-2.53297 0,-0.8359 -1.083442,-0.57441 -9.648486,2.32768 -6.105504,2.06879 -9.626612,2.5624 -10.068292,1.41135 -0.639841,-1.66739 5.452899,-8.56814 10.798043,-12.23021 3.580283,-2.45285 9.014531,-5.09308 16.54366,-8.03767 9.251358,-3.61827 10.50737,-4.18493 12.446349,-5.61543 1.587333,-1.17112 2.952773,-3.01251 2.993793,-4.03733 0.03718,-0.88188 -4.458995,0.18217 -10.47397,2.4798 -9.370143,3.57929 -11.506602,3.77336 -9.34449,0.84897 0.625961,-0.84674 0.971286,-1.70637 0.767301,-1.91035 -0.203862,-0.20387 -1.721734,0.29495 -3.372766,1.10915 -9.263937,4.56744 -14.400695,4.55839 -11.349089,-0.0186 3.560145,-5.3413 13.306534,-13.42302 25.561661,-21.19586 10.039851,-6.36779 16.286757,-10.701 16.525815,-11.46328 0.488896,-1.55815 -6.916862,0.33646 -17.334322,4.43414 -11.258188,4.42857 -14.273669,5.14011 -21.914643,5.17072 -7.23703,0.031 -9.443322,-0.35072 -9.443322,-1.62594 0,-1.40677 6.767466,-7.57511 12.335247,-11.24319 2.881886,-1.89877 9.961466,-6.00339 15.732365,-9.12148 5.77096,-3.1181 12.065641,-6.70396 13.988262,-7.96858 3.853545,-2.53476 6.948402,-5.70609 6.413404,-6.57178 -0.433748,-0.70193 -4.440097,-0.25654 -10.27488,1.1423 -5.260811,1.26116 -7.928363,1.33322 -8.836757,0.23856 -0.573787,-0.69102 -0.288132,-1.21226 1.903103,-3.475 3.358947,-3.46863 7.431473,-6.10898 15.168925,-9.83432 6.563543,-3.16017 9.705617,-5.33665 9.705617,-6.7231 0,-1.33192 -5.827968,-0.48642 -11.831604,1.71616 -13.363726,4.90321 -18.630052,6.20954 -23.842778,5.91416 -3.756261,-0.21254 -3.897477,-1.05228 -0.763583,-4.53794 2.792658,-3.10613 8.279699,-6.86401 17.323044,-11.86407 6.525435,-3.60792 11.267606,-6.87646 11.64317,-8.02509 0.352576,-1.07917 -3.198584,-0.78354 -8.720945,0.72597 -4.834002,1.32132 -10.115013,1.86462 -10.862238,1.1174 -0.852935,-0.85288 0.610966,-3.51795 3.459516,-6.29772 2.55707,-2.49542 4.50677,-3.69169 11.373379,-6.97864 11.404051,-5.45885 11.527545,-5.52577 13.855716,-7.50626 1.77106,-1.50666 3.61263,-4.07396 3.61263,-5.03644 0,-0.15863 -0.67132,-0.28814 -1.49172,-0.28814 -1.55846,0 -4.890636,1.08438 -10.458541,3.4035 -3.588215,1.49452 -8.478604,1.69745 -8.916318,0.36993 -0.316637,-0.96013 3.066415,-4.03888 8.930446,-8.127331 7.192912,-5.014937 9.677543,-8.332121 5.026524,-6.710769 -6.652399,2.319005 -5.877477,-1.743359 1.776138,-9.310038 2.605771,-2.57628 6.004251,-5.47911 7.552121,-6.45083 5.18602,-3.255716 3.21358,-3.544159 -5.19296,-0.759432 -4.840883,1.603568 -10.179025,1.862578 -10.69469,0.518639 -0.90071,-2.34726 3.847224,-8.376363 11.34773,-14.409865 5.32977,-4.287294 8.43405,-8.111901 7.63428,-9.405897 -0.18094,-0.29247 -1.37709,-0.531651 -2.65851,-0.531651 -2.95172,0 -3.01938,-0.758254 -0.40648,-4.552252 2.0626,-2.994909 2.02994,-3.852677 -0.10968,-2.877797 -3.66672,1.670675 -3.73172,0.06692 -0.20944,-5.161048 5.9431,-8.820646 6.72887,-11.297969 7.28016,-22.95124 0.43437,-9.178178 0.94346,-11.3049703 2.41462,-10.0840305 0.86408,0.717172 1.81604,6.2254055 1.81796,10.5192045 0.005,10.299418 2.21546,18.610843 6.81357,25.613339 4.00418,6.098069 5.35394,8.768163 5.15119,10.189866 -0.17288,1.209848 -0.15863,1.208237 -4.82192,0.557057 -2.06588,-0.288133 -2.51506,-0.215635 -2.32222,0.374882 0.13136,0.402767 3.40883,3.266002 7.28294,6.362346 3.87412,3.096406 7.92923,6.569492 9.01125,7.717995 1.94338,2.062722 2.58514,4.163985 1.31159,4.294543 -1.23705,0.127027 -3.80769,0.247857 -7.73832,0.364969 l -3.93471,0.117112 2.39615,2.217508 c 1.31791,1.219638 3.87479,3.487647 5.6821,5.03997 6.09801,5.237946 5.73285,6.829741 -1.36841,5.965652 -2.53619,-0.308581 -4.72154,-0.452957 -4.85631,-0.319735 -0.13447,0.132603 2.50378,2.829341 5.86335,5.99273 6.35571,5.984303 10.38282,11.209543 10.38282,13.471603 v 1.31909 l -6.95107,-0.38417 -6.95107,-0.38418 0.96689,1.06838 c 0.53165,0.58742 3.83682,3.07082 7.34454,5.51821 3.50772,2.44734 7.48297,5.51307 8.83397,6.8127 2.8755,2.76639 4.45106,5.4573 3.65904,6.24933 -0.59052,0.59051 -10.50025,0.21501 -15.29633,-0.57875 -6.50591,-1.07743 -4.03373,0.79351 8.91868,6.74962 4.47244,2.05665 9.7809,4.85619 11.79653,6.2212 3.83756,2.59883 6.98378,6.31519 6.29276,7.4332 -0.56202,0.90951 -8.30622,0.33275 -13.58804,-1.01162 -5.37011,-1.36705 -11.063,-1.94629 -11.54012,-1.17422 -0.49324,0.79748 4.11937,3.69039 14.12136,8.85733 4.61675,2.38499 8.74821,4.48756 9.18103,4.6724 1.90031,0.81154 4.03311,1.82819 5.24625,2.50074 0.72138,0.39967 2.00776,1.04503 2.85852,1.43348 1.83048,0.83577 5.53556,4.22651 5.53556,5.06593 0,1.24684 -2.06545,1.75402 -4.87806,1.19783 -17.31847,-2.54257 -5.19624,0.52484 -8.28806,4.4712 -0.51554,0.62101 -1.2523,0.71767 -3.31223,0.43437 -3.49452,-0.48084 -5.11073,-1.08691 -12.90085,-4.83983 -6.92672,-3.33682 -9.44333,-4.12457 -9.44333,-2.9558 0,0.97475 7.33618,6.54873 16.52582,12.55614 13.51467,8.83484 14.98694,9.87577 18.4493,13.04418 3.20683,2.93462 5.4213,6.16189 5.4213,7.90079 0,2.05442 -7.57585,1.67867 -21.24748,-1.05376 -12.53204,-2.50477 -12.66892,-2.52386 -13.09895,-1.82794 -0.42322,0.68483 1.04199,3.17492 1.86815,3.17492 0.30177,0 1.61034,1.0918 2.87843,1.96426 1.26803,0.87245 7.01389,3.66108 12.79743,6.65896 12.56178,6.51143 18.12492,10.11626 22.19174,14.38 4.39394,4.60678 6.90137,10.49671 4.81021,11.29915 -4.43666,0.53729 -8.35372,-2.7084 -12.26194,-2.82463 -0.8776,0 -0.92036,0.21068 -0.43313,2.13131 0.89408,3.52235 0.0558,3.70508 -5.10163,1.11251 -5.35877,-2.69371 -8.2986,-3.76866 -10.30648,-3.76866 -1.88364,0 -1.89802,0.48704 -0.0651,2.20704 2.29546,2.15443 6.18469,4.3179 13.47458,7.49542 7.91888,3.45171 14.48428,6.67656 16.77559,8.23985 2.71682,1.85372 6.60506,5.83634 6.60506,6.76549 0,1.37876 -1.31661,1.43 -9.98198,0.38789 -9.22545,-1.10909 -12.25419,-1.08809 -12.41047,0.0861 -0.0558,0.43313 -0.25653,2.61662 -0.44242,4.85284 -0.31726,3.81563 -0.4133,4.06584 -1.56459,4.06584 -1.33081,0 -2.87526,-1.14082 -8.14066,-6.01312 -3.4421,-3.18514 -6.99605,-5.0246 -7.92092,-4.09979 -0.53661,0.53661 1.55021,3.47928 6.61454,9.32596 4.6113,5.32383 5.81619,7.50552 5.57726,10.09915 -0.0905,0.98089 -3.46757,0.80758 -7.66756,-0.39347 -2.01798,-0.57688 -4.54599,-1.0493 -5.61791,-1.0493 -2.09129,0 -1.99146,-0.1611 -3.32982,5.38245 -0.49696,2.05782 -1.03257,2.19638 -3.53152,0.91316 -2.81918,-1.4476 -6.98905,-5.47898 -10.85313,-10.49262 -3.9569,-5.13409 -5.67764,-6.94326 -6.38118,-6.70872 -0.3154,0.10533 -1.00779,1.33613 -1.539,2.73571 -1.35974,3.58202 -2.97378,5.18081 -4.85117,4.80531 l -1.4828,-0.29681 0.3724,9.11368 c 0.2051,5.01252 0.21316,9.74725 0.0186,10.52162 -0.58556,2.33226 -5.35444,3.67106 -8.52278,2.39243 z"
       id="path16019"
       inkscape:connector-curvature="0"
       sodipodi:nodetypes="csccccscccssssccsccccssscccsccccsccccscscsccscccsccccccccscssccccccccscscccscccsscscccccccccsccccsccssccsccccssccccsscsscscssccscscscscccscccccsccccccccccc" />
  </g>
</svg>
