<?xml version="1.0" encoding="UTF-8" standalone="no"?>
<!-- Created with Inkscape (http://www.inkscape.org/) -->

<svg
   xmlns:dc="http://purl.org/dc/elements/1.1/"
   xmlns:cc="http://creativecommons.org/ns#"
   xmlns:rdf="http://www.w3.org/1999/02/22-rdf-syntax-ns#"
   xmlns:svg="http://www.w3.org/2000/svg"
   xmlns="http://www.w3.org/2000/svg"
   xmlns:sodipodi="http://sodipodi.sourceforge.net/DTD/sodipodi-0.dtd"
   xmlns:inkscape="http://www.inkscape.org/namespaces/inkscape"
   width="210mm"
   height="297mm"
   viewBox="0 0 210 297"
   version="1.1"
   id="svg16055"
   inkscape:version="0.92.3 (2405546, 2018-03-11)"
   sodipodi:docname="sapin0.svg">
  <defs
     id="defs16049" />
  <sodipodi:namedview
     id="base"
     pagecolor="#ffffff"
     bordercolor="#666666"
     borderopacity="1.0"
     inkscape:pageopacity="0.0"
     inkscape:pageshadow="2"
     inkscape:zoom="0.7"
     inkscape:cx="563.63796"
     inkscape:cy="595.56681"
     inkscape:document-units="mm"
     inkscape:current-layer="layer1"
     showgrid="false"
     inkscape:window-width="1920"
     inkscape:window-height="1025"
     inkscape:window-x="1920"
     inkscape:window-y="27"
     inkscape:window-maximized="1" />
  <metadata
     id="metadata16052">
    <rdf:RDF>
      <cc:Work
         rdf:about="">
        <dc:format>image/svg+xml</dc:format>
        <dc:type
           rdf:resource="http://purl.org/dc/dcmitype/StillImage" />
        <dc:title></dc:title>
      </cc:Work>
    </rdf:RDF>
  </metadata>
  <g
     inkscape:label="Calque 1"
     inkscape:groupmode="layer"
     id="layer1">
    <path
       style="fill:#000000;stroke-width:0.5144909"
       d="m 114.48196,284.94021 c -0.87729,-0.38161 -1.76138,-1.12528 -1.96465,-1.65194 -0.20296,-0.52684 -0.32206,-4.89341 -0.26372,-9.70395 0.0874,-7.23232 -0.0182,-8.71751 -0.60786,-8.57988 -0.39255,0.0918 -2.92706,2.49003 -5.63264,5.32996 -5.42336,5.69269 -6.461196,6.10444 -7.528136,2.98645 -0.7687,-2.24625 -0.839,-6.17627 -0.1434,-8.0062 0.29107,-0.76511 0.42232,-1.4979 0.29167,-1.62842 -0.13065,-0.13065 -2.85743,1.04749 -6.0597,2.61788 -9.36372,4.59196 -19.26297,7.3868 -20.78299,5.86758 -0.5463,-0.54569 3.15391,-7.94647 5.27394,-10.54928 2.17903,-2.6752 1.75433,-2.76087 -4.46173,-0.90032 -4.98232,1.49128 -6.59962,1.60163 -7.03016,0.48006 -0.54386,-1.41775 0.9936,-3.36088 5.35312,-6.76503 2.33721,-1.82507 4.24948,-3.56293 4.24948,-3.86202 0,-1.03936 -5.45029,0.003 -10.8564,2.07633 -6.24049,2.3933 -7.906161,2.82492 -9.252509,2.39761 -2.456184,-0.77958 0.01824,-5.32657 4.911889,-9.02008 1.56711,-1.18319 2.84923,-2.33928 2.84923,-2.56921 0,-1.54262 -5.31046,-0.78565 -12.605007,1.79681 -5.047035,1.78678 -9.007806,2.30208 -10.488083,1.36463 -2.046559,-1.29615 2.204733,-6.43689 7.45181,-9.01084 1.669936,-0.8192 6.294635,-2.57049 10.27716,-3.8918 7.90799,-2.62372 11.7953,-4.49443 11.7953,-5.6764 0,-1.135 -2.8242,-1.22074 -6.55119,-0.19871 -1.7733,0.48614 -4.20809,0.98692 -5.41073,1.1127 -1.871247,0.19568 -2.184255,0.0912 -2.17028,-0.72342 0.01216,-0.52381 0.348805,-1.39144 0.755268,-1.92831 1.620222,-2.14045 -0.512264,-2.3846 -7.202726,-0.8246 -2.42715,0.56573 -4.867104,1.02902 -5.422088,1.02902 -3.133618,0 1.745581,-6.0616 8.49311,-10.55128 5.186126,-3.4507 10.726656,-6.08097 21.284676,-10.10464 8.50222,-3.24014 10.19627,-4.21478 8.82896,-5.07936 -1.2578,-0.79538 -3.19967,-0.58154 -7.10349,0.78243 -7.06474,2.46828 -9.0038,1.29918 -4.45779,-2.68766 1.54111,-1.35144 2.80487,-2.65665 2.80846,-2.90039 0.0122,-0.62413 -3.04623,0.0182 -8.73162,1.83747 -9.160026,2.9301 -15.959273,3.46023 -16.379711,1.27719 -0.255828,-1.32714 6.176926,-7.72308 10.994571,-10.93198 3.82878,-2.55032 7.76877,-4.59292 12.79381,-6.63256 1.80221,-0.73151 1.92137,-0.8861 1.12959,-1.46508 -0.52503,-0.38405 -0.75442,-0.98788 -0.56392,-1.48484 0.36521,-0.95154 5.11303,-4.38412 8.28359,-5.98879 2.40891,-1.21916 5.34224,-3.55485 5.34224,-4.25372 0,-0.79198 -5.16936,-0.49586 -9.77528,0.56027 -4.77214,1.09398 -8.06271,1.28284 -9.25185,0.53109 -1.10073,-0.69602 1.38906,-3.17068 5.77903,-5.74372 1.91002,-1.11956 3.47282,-2.16682 3.47282,-2.32731 0,-0.49828 -3.60645,0.35306 -9.25076,2.18311 -6.08882,1.97419 -11.986467,2.43656 -12.54406,0.98338 -0.754052,-1.96495 5.29071,-6.85909 17.16439,-13.89708 4.66901,-2.7675 8.95214,-5.48941 9.51806,-6.04871 1.02696,-1.01493 1.02545,-1.01645 -0.77173,-0.76542 -2.25499,0.31477 -3.08719,0.0243 -3.08603,-1.06852 9.3e-4,-1.10286 2.48183,-2.62627 12.60409,-7.74039 8.04697,-4.06559 11.385916,-6.3246 10.785106,-7.29674 -0.4594,-0.74318 -1.851006,-0.5943 -7.777336,0.83378 -6.44747,1.55338 -7.51708,1.22025 -4.86565,-1.51534 2.16579,-2.23458 1.59665,-2.59133 -3.4668,-2.1729 -3.84452,0.31782 -5.67275,-0.0851 -5.03901,-1.11075 0.17318,-0.28074 4.08096,-2.40679 8.68362,-4.72515 10.50667,-5.29223 13.280176,-7.71451 9.82584,-8.58153 -1.59494,-0.40045 -9.74843,0.90512 -12.83312,2.05471 -1.1632,0.43326 -3.30079,0.94546 -4.75019,1.13772 -3.80412,0.50437 -4.04372,-0.60948 -0.77734,-3.61537 1.37364,-1.26406 2.75511,-2.30749 3.06994,-2.31873 0.31477,-0.0122 1.44631,-0.71498 2.51453,-1.56389 1.06821,-0.84891 2.3451,-1.54347 2.83749,-1.54347 0.49221,0 1.18446,-0.3482 1.53794,-0.77447 0.35366,-0.42597 3.39164,-2.19532 6.75142,-3.931913 6.253136,-3.23212 7.551416,-4.40874 4.278216,-3.87758 -2.111946,0.34272 -3.314516,0.006 -3.314516,-0.92365 0,-0.66096 3.337906,-3.94874 5.628326,-5.54387 1.90632,-1.327565 0.80121,-1.744546 -1.99314,-0.752105 -3.076976,1.092825 -4.664146,1.130805 -4.664146,0.111811 0,-0.424759 -0.35487,-0.771737 -0.78827,-0.771737 -0.43326,0 -1.61943,0.347586 -2.63533,0.771737 -1.01583,0.424759 -2.74482,0.771734 -3.84215,0.771734 -4.29231,0 -1.81631,-3.026663 7.79375,-9.527236 7.156176,-4.840671 11.239406,-9.563941 9.302646,-10.760922 -0.2528,-0.15617 -2.29528,0.102088 -4.53951,0.574245 -6.960886,1.463382 -7.272496,0.343331 -1.34149,-4.822502 6.40073,-5.574794 8.64557,-7.800372 8.25843,-8.187516 -0.21268,-0.212076 -2.17787,0.351231 -4.36778,1.252948 -4.912446,2.022192 -6.296826,2.106597 -6.296826,0.384044 0,-1.511388 2.539016,-4.963905 7.272006,-9.888496 3.47598,-3.616648 4.45523,-5.308999 2.63192,-4.548383 -3.37673,1.408571 -3.72864,1.485258 -4.28113,0.932707 -0.75903,-0.759036 0.3962,-2.995857 4.00526,-7.756802 3.76904,-4.971624 4.68437,-8.065375 5.31324,-17.958367 0.49768,-7.82638 0.9219,-10.0365843 2.06267,-10.7415993 0.79446,-0.490994 1.33401,0.452711 1.7409,3.0452003 0.1823,1.16362 1.3647,5.284692 2.62689,9.157958 2.5779,7.910906 2.85754,9.926596 1.30915,9.435116 -1.83497,-0.582145 -1.57494,0.613804 1.07339,4.937169 4.45115,7.266415 6.06225,10.422331 6.07447,11.898717 0.0122,1.387546 -0.0486,1.41483 -3.07528,1.41483 -1.69782,0 -3.08694,0.146448 -3.08694,0.325102 0,1.116161 2.67865,4.232882 5.99694,6.977651 5.76474,4.768481 6.8126,7.583192 2.55408,6.86098 -5.07116,-0.859969 -5.46408,-0.885187 -5.46408,-0.350623 0,0.623708 2.67593,3.328494 6.77117,6.844269 3.40141,2.920142 5.20423,5.880996 4.03205,6.622046 -0.42355,0.26798 -1.40729,0.490386 -2.18548,0.495247 -0.77817,0.0042 -1.41483,0.187162 -1.41483,0.405921 0,0.21876 2.07932,2.453636 4.6207,4.966337 4.65917,4.606537 5.68661,6.142962 4.74059,7.088977 -0.79951,0.799502 -4.28393,-4.87e-4 -8.22172,-1.887656 -3.60614,-1.728203 -6.79901,-2.699375 -6.79901,-2.068071 7.87816,9.174369 15.13904,10.685939 24.58291,18.035542 3.92559,3.37711 -0.0626,4.43907 -7.19368,1.91549 -2.17921,-0.77119 -4.14508,-1.21923 -4.36863,-0.99572 -0.22363,0.22362 0.80698,1.45189 2.29011,2.72963 2.8914,2.4912 3.30959,3.51013 1.65595,4.03498 -1.23569,0.39193 -3.22149,0.0365 -7.56915,-1.36514 -6.99041,-2.24976 -5.41705,0.16954 4.23993,6.51954 5.52302,3.63166 9.30599,7.05045 8.7668,7.92287 -0.14097,0.22788 -1.64343,0.68721 -3.33919,1.02083 -1.69568,0.3336 -3.23326,0.84952 -3.41672,1.14636 -0.56696,0.91758 3.81202,4.95145 12.09718,11.14351 9.13086,6.82403 11.468,8.83759 13.49809,11.62927 1.71052,2.35216 1.85673,3.71461 0.44664,4.16216 -0.55662,0.17683 -3.6525,-0.27042 -6.87896,-0.99432 -3.22648,-0.72362 -7.11177,-1.30649 -8.63404,-1.29525 l -2.7678,0.0182 2.43785,2.24423 c 1.34075,1.23436 4.00323,3.10408 5.91659,4.15499 1.91336,1.05089 4.68366,2.7097 6.15615,3.68622 6.47384,4.29317 2.55974,6.53934 -7.90555,4.53678 -2.21792,-0.42415 -4.43773,-0.77168 -4.93292,-0.77174 -3.16685,-3e-4 2.09366,2.95064 12.26362,6.87951 8.8198,3.40725 12.52431,5.87286 15.69888,10.44853 1.69673,2.44554 1.90467,3.76777 0.59187,3.76205 -1.11556,-0.005 -5.76311,-1.44411 -11.19018,-3.46533 -4.66572,-1.73769 -7.97459,-2.4684 -7.97459,-1.76114 0,0.26129 2.60459,1.76509 5.78802,3.34107 7.69999,3.8119 10.67568,5.74974 10.67568,6.95232 0,0.88111 -0.55542,0.99255 -6.08123,1.22012 -3.34472,0.13794 -6.49613,0.48249 -7.00317,0.76639 -0.84131,0.47095 -0.79319,0.60585 0.55054,1.54433 0.80978,0.56574 3.32455,2.01952 5.58829,3.23096 7.21725,3.86214 9.83812,5.5991 12.0197,7.96584 2.05683,2.23141 2.59614,3.52641 1.69946,4.0806 -0.23638,0.14584 -3.0723,-0.63671 -6.30253,-1.73926 -6.45269,-2.20249 -11.16946,-3.14425 -10.52503,-2.1015 0.21025,0.3403 3.88973,2.31285 8.17652,4.38365 7.83482,3.78467 13.68045,7.5629 14.7271,9.51855 0.30991,0.57911 0.38161,1.08322 0.1592,1.12054 -0.2224,0.0365 -4.63175,0.0122 -9.79898,-0.0547 -7.75225,-0.1027 -9.34524,-0.002 -9.11068,0.57545 0.6169,1.51796 4.90617,4.0464 10.78832,6.35955 3.39565,1.33528 7.01387,2.85572 8.04059,3.37874 3.7747,1.92284 7.70472,7.83477 6.20506,9.33443 -0.35244,0.35244 -3.06847,0.0863 -8.37152,-0.82072 -4.31759,-0.73819 -7.93685,-1.25537 -8.04289,-1.14934 -0.10573,0.10635 0.065,1.21564 0.3798,2.46579 0.31476,1.25016 0.49889,3.29495 0.40896,4.54388 -0.20115,2.79661 -0.92239,3.05439 -6.7253,2.40387 -2.22837,-0.24975 -4.19824,-0.30748 -4.37744,-0.12821 -0.17926,0.17926 1.6675,2.34438 4.10376,4.8115 4.68613,4.74539 7.60737,8.84744 7.60737,10.68223 0,1.06694 -0.26858,1.11914 -7.3315,1.42601 -4.03229,0.17501 -8.37333,0.10452 -9.6467,-0.15678 -1.27336,-0.26129 -2.45868,-0.48552 -2.63411,-0.49767 -0.17562,-0.0122 -0.43266,0.9615 -0.57121,2.16414 -0.13855,1.20263 -0.69754,3.11271 -1.24153,4.24454 -0.9516,1.97991 -1.07842,2.05508 -3.34155,1.98106 -4.51399,-0.14766 -8.29203,-2.86904 -12.03258,-8.66733 -4.58965,-7.11455 -6.89368,-8.1338 -7.58162,-3.35383 -0.2224,1.54578 -0.61344,3.0195 -0.8689,3.27496 -0.7035,0.7035 -2.83604,-0.0122 -4.69897,-1.58206 l -1.66603,-1.40183 -1.07472,1.50835 c -0.59126,0.82965 -2.08023,2.60719 -3.30923,3.9502 l -2.23457,2.44179 0.37067,6.70469 c 0.26859,4.85792 0.19749,7.12276 -0.25765,8.22245 -1.01322,2.44616 -5.16212,3.35706 -8.55771,1.8789 z M 68.358014,257.86466 c -44.610077,59.88948 -22.305008,29.94471 0,0 z m 13.27726,-111.87407 c -53.461585,134.47215 -26.730821,67.23611 0,0 z M 118.70281,23.145523 c -78.17325,216.368887 -39.086626,108.184447 0,0 z"
       id="path16019"
       inkscape:connector-curvature="0"
       sodipodi:nodetypes="cccccccsssccccscccsscssscccccssscccccccccccscccsccscscscssscsccccccsccssssssssscssccsscccsccccccsscsscccsscsccccccsccccscccccsscssccccscsccccccscsccccccccccscccsccccccscsccccccccccccccc" />
  </g>
</svg>
