<?xml version="1.0" encoding="UTF-8" standalone="no"?>
<!-- Created with Inkscape (http://www.inkscape.org/) -->

<svg
   xmlns:dc="http://purl.org/dc/elements/1.1/"
   xmlns:cc="http://creativecommons.org/ns#"
   xmlns:rdf="http://www.w3.org/1999/02/22-rdf-syntax-ns#"
   xmlns:svg="http://www.w3.org/2000/svg"
   xmlns="http://www.w3.org/2000/svg"
   xmlns:sodipodi="http://sodipodi.sourceforge.net/DTD/sodipodi-0.dtd"
   xmlns:inkscape="http://www.inkscape.org/namespaces/inkscape"
   width="210mm"
   height="297mm"
   viewBox="0 0 210 297"
   version="1.1"
   id="svg16275"
   inkscape:version="0.92.3 (2405546, 2018-03-11)"
   sodipodi:docname="dessin2.svg">
  <defs
     id="defs16269" />
  <sodipodi:namedview
     id="base"
     pagecolor="#ffffff"
     bordercolor="#666666"
     borderopacity="1.0"
     inkscape:pageopacity="0.0"
     inkscape:pageshadow="2"
     inkscape:zoom="0.35"
     inkscape:cx="529.20154"
     inkscape:cy="506.43049"
     inkscape:document-units="mm"
     inkscape:current-layer="layer1"
     showgrid="false"
     inkscape:window-width="1920"
     inkscape:window-height="1025"
     inkscape:window-x="1920"
     inkscape:window-y="27"
     inkscape:window-maximized="1" />
  <metadata
     id="metadata16272">
    <rdf:RDF>
      <cc:Work
         rdf:about="">
        <dc:format>image/svg+xml</dc:format>
        <dc:type
           rdf:resource="http://purl.org/dc/dcmitype/StillImage" />
        <dc:title></dc:title>
      </cc:Work>
    </rdf:RDF>
  </metadata>
  <g
     inkscape:label="Calque 1"
     inkscape:groupmode="layer"
     id="layer1">
    <path
       style="fill:#000000;stroke-width:0.53555816"
       d="m 101.68675,291.96822 c -0.64558,-0.25998 -1.58669,-1.10304 -2.091395,-1.87329 -0.81238,-1.23986 -0.87836,-2.44076 -0.57499,-10.47217 0.28212,-7.46585 0.21317,-9.0717 -0.38712,-9.0717 -0.40103,0 -1.01303,0.34157 -1.35966,0.75938 -1.22329,1.47396 -7.42347,5.17387 -10.45679,6.23997 -4.75007,1.66954 -5.56814,0.34031 -3.46833,-5.63374 1.1167,-3.17716 1.03788,-5.65151 -0.18028,-5.64841 -0.36245,10e-4 -3.25232,1.9282 -6.42164,4.2828 -6.83962,5.08146 -10.35014,7.11067 -14.28435,8.25692 -3.5517,1.03485 -10.01654,1.14592 -10.36198,0.17774 -0.31374,-0.87874 0.68012,-2.79023 3.68594,-7.09005 1.53715,-2.19893 2.56839,-4.31905 2.74646,-5.64632 l 0.28528,-2.12537 -4.22106,0.0126 c -2.32165,0.007 -7.35415,0.6161 -11.18335,1.35024 -9.48747,1.81858 -18.49333,3.01935 -19.94958,2.65993 -2.332843,-0.57561 -1.425894,-2.38249 3.74893,-7.46837 3.17748,-3.1229 7.84614,-6.83799 13.01937,-10.36034 9.08993,-6.18905 12.76991,-9.49468 11.47862,-10.31105 -1.61433,-1.02056 -5.94077,-0.47758 -12.91576,1.62034 -3.91688,1.17825 -8.04243,2.14225 -9.16792,2.14225 -2.77373,0 -3.27369,-1.3226 -1.1656,-3.08349 2.15042,-1.79631 11.22212,-6.07 17.36189,-8.1793 9.61184,-3.3021 14.85814,-6.36484 16.65572,-9.72367 1.49939,-2.80175 -7.08145,-2.26857 -16.38657,1.01803 -9.69261,3.42354 -12.58696,3.90225 -12.58696,2.08165 0,-0.70972 6.42353,-7.06747 9.64004,-9.54137 l 1.87444,-1.44171 -3.07944,-0.0253 c -2.65747,-0.019 -3.07944,-0.16445 -3.07944,-1.04079 0,-1.26788 2.43987,-3.42905 8.44744,-7.48236 2.57055,-1.73438 5.39672,-3.84381 6.28039,-4.6877 1.58017,-1.50894 1.58668,-1.53715 0.39218,-1.71053 -1.73692,-0.25239 -4.33714,0.7077 -11.62859,4.29298 -6.99979,3.44183 -9.50463,3.86355 -9.819,1.6531 -0.25049,-1.76094 2.39667,-5.8858 6.16255,-9.60279 1.83306,-1.80921 7.51702,-6.42739 12.63111,-10.26253 9.26704,-6.94969 12.70495,-10.11041 12.70495,-11.6804 0,-1.04605 -1.58967,-0.7411 -8.5689,1.64412 -6.58603,2.25074 -8.21232,2.54487 -9.37412,1.69536 -2.80175,-2.0487 4.09689,-6.5868 17.15707,-11.28626 7.35402,-2.64627 12.30049,-5.02636 12.30049,-5.91863 0,-0.89936 -3.25295,-0.91151 -8.77985,-0.0316 -8.42986,1.34018 -14.98661,0.92744 -14.38562,-0.90562 0.408,-1.2441 4.5343,-3.58384 10.57584,-5.99676 6.58496,-2.62989 9.20833,-4.32341 10.46666,-6.75676 0.74274,-1.43627 0.74022,-1.61983 -0.0253,-1.91384 -1.50502,-0.57752 -4.74836,0.16762 -8.57452,1.97032 -4.57004,2.15314 -7.93735,2.44209 -8.18531,0.70239 -0.24037,-1.6879 5.54885,-7.66163 9.38595,-9.6849 1.70289,-0.8979 4.78321,-2.23631 6.84513,-2.97424 5.16774,-1.84951 6.58977,-2.54823 6.91597,-3.39837 0.45544,-1.18723 -3.80003,-0.90063 -8.99946,0.60598 -9.62556,2.78935 -11.57324,2.88347 -11.57324,0.55917 0,-2.05553 5.46958,-6.59704 12.28126,-10.19719 3.34384,-1.76735 7.05102,-4.07292 8.23818,-5.12353 2.90227,-2.56833 2.37523,-3.35415 -1.96317,-2.92718 -3.77594,0.37194 -5.23125,-0.20242 -4.32809,-1.70801 0.53134,-0.88557 4.87531,-4.22606 12.52004,-9.62777 3.06495,-2.16573 5.31031,-4.699274 4.703,-5.306585 -0.16066,-0.160667 -2.66335,0.468086 -5.562,1.396542 -5.76828,1.847863 -9.51537,2.469593 -11.65219,1.933263 -2.88455,-0.72396 -1.23821,-3.149971 5.31082,-7.8259 7.48508,-5.344281 8.36242,-7.746955 1.62154,-4.440937 -2.19988,1.078939 -3.10936,1.294132 -3.56093,0.842555 -1.32368,-1.323672 2.09974,-5.194367 10.7761,-12.183787 8.60969,-6.93577 11.31656,-11.40296 5.17754,-8.54466 -3.15768,1.47023 -6.65612,1.72047 -7.12086,0.5092 -0.4858,-1.26547 1.73831,-4.3026 5.78277,-7.89706 3.52038,-3.12877 5.26502,-5.41126 5.26502,-6.88826 0,-0.44722 -0.66639,-0.52059 -2.2761,-0.24922 -5.77846,0.97368 -5.73532,0.97336 -6.09,0.0506 -0.49085,-1.27983 0.26441,-2.65904 4.56024,-8.32516 2.09324,-2.76083 3.80586,-5.21575 3.80586,-5.45536 0,-0.23974 -0.964,-0.43583 -2.14219,-0.43583 -1.90195,0 -2.14226,-0.14358 -2.14226,-1.28041 0,-0.70428 0.8468,-2.4515 1.88171,-3.88283 3.32323,-4.59592 4.00537,-5.79105 4.00745,-7.02073 10e-4,-0.71497 -0.32449,-1.205 -0.80137,-1.205 -1.01708,0 -1.03871,0.1904 0.50034,-4.4071 0.76924,-2.29792 1.44127,-5.86967 1.63964,-8.71406 0.423795,-6.0774 1.214165,-9.74442 2.180255,-10.11515 1.19394,-0.45797 1.74286,1.20722 3.1883,9.67218 1.66354,9.74227 3.3441,14.73352 6.74696,20.03827 1.43817,2.24194 2.61483,4.34884 2.61483,4.682 0,0.59839 -1.14004,0.9874 -3.74892,1.27952 -3.46106,0.38775 -1.18091,5.5405 6.46484,14.61005 2.97981,3.53468 6.3592,7.8498 7.50987,9.58918 4.15048,6.27407 1.98817,7.37995 -6.30234,3.22335 -9.63176,-4.82907 -7.845,-1.45828 2.48415,4.68655 6.26622,3.72781 10.19467,7.02003 10.19467,8.54365 0,0.84035 -0.41242,1.0019 -2.54386,0.99659 -1.39914,-0.003 -4.45201,-0.47442 -6.78416,-1.04725 -2.33214,-0.57246 -4.46275,-0.90354 -4.73469,-0.73547 -0.78999,0.48833 3.0907,4.16692 10.44149,9.897817 8.0483,6.274697 12.3201,10.390694 12.06739,11.627322 -0.2701,1.32178 -4.59914,1.03637 -9.94658,-0.65576 -4.5195,-1.430129 -7.60406,-1.802384 -7.60406,-0.917637 0,0.896827 4.48332,3.807187 10.93689,7.099607 7.3265,3.73779 9.35832,5.38033 8.27312,6.68794 -0.55981,0.67455 -1.35809,0.77531 -3.99898,0.50477 -3.00663,-0.30805 -3.32455,-0.24226 -3.58175,0.74135 -0.32006,1.22442 -2.52747,1.4591 -4.97424,0.52881 -4.19196,-1.59377 -0.75336,1.90752 8.34061,8.49273 3.09284,2.2396 7.24863,5.37129 9.23509,6.9593 3.72704,2.97944 7.36717,7.35649 7.36717,8.85854 0,1.49465 -2.65709,1.60781 -9.48621,0.4042 -3.64576,-0.64267 -6.88068,-1.01271 -7.18867,-0.82238 -0.77665,0.4801 2.46151,3.7278 9.17709,9.20454 10.00838,8.16203 14.97895,13.52946 14.2612,15.39985 -0.43836,1.14263 -1.53735,0.99582 -7.08241,-0.94611 -2.72615,-0.95477 -5.12541,-1.56714 -5.33163,-1.36093 -0.2062,0.20622 0.99292,1.62515 2.66481,3.15313 2.15142,1.96628 2.99284,3.10753 2.87898,3.90486 -0.14295,1.00246 -0.46745,1.11044 -2.94237,0.97963 -1.52988,-0.081 -3.7894,-0.50288 -5.02129,-0.93725 -2.45588,-0.86647 -4.78289,-1.0384 -4.78289,-0.3536 0,0.24037 1.13257,1.56942 2.51678,2.95363 1.85375,1.85381 4.6739,3.5906 10.70545,6.59318 8.81356,4.38749 12.73239,7.54884 12.38436,9.99074 -0.22582,1.58422 -2.36725,1.40647 -7.5181,-0.62433 -4.58117,-1.80599 -8.71336,-2.5481 -9.26039,-1.66303 -0.5946,0.96249 1.63217,2.91668 9.22852,8.09815 7.61126,5.19164 12.09509,9.50948 11.82663,11.3886 -0.14927,1.04548 -0.57815,1.13574 -6.58647,1.3861 -4.54981,0.18977 -6.4267,0.4586 -6.4267,0.92043 0,1.5653 6.60476,7.89705 16.17794,15.50921 10.05589,7.99612 13.54554,11.53067 13.54554,13.71986 0,1.01607 -0.25682,1.05326 -5.22169,0.75672 -2.8719,-0.17142 -8.23421,-0.93092 -11.91615,-1.68751 -8.92261,-1.83344 -14.46008,-2.33183 -14.46008,-1.30147 0,1.16901 6.19563,5.81945 15.24867,11.44559 8.56308,5.3217 12.0648,8.43119 12.0648,10.71336 0,2.38857 -3.91725,1.83692 -14.85168,-2.09133 -2.12998,-0.7652 -4.41526,-1.3913 -5.07823,-1.3913 -1.04175,0 -0.93396,0.18471 0.79328,1.35822 2.10702,1.4317 2.54715,2.60123 1.1768,3.12706 -1.1804,0.45291 -5.84552,-0.64804 -9.03129,-2.13143 -1.50281,-0.69973 -3.21436,-1.26928 -3.80345,-1.26561 -0.97963,0.006 -0.95667,0.0949 0.26757,1.03612 0.73641,0.56613 3.94761,2.41203 7.13603,4.10189 6.195,3.28318 10.0018,6.75157 10.0018,9.11257 0,1.24649 -0.0746,1.26345 -5.56415,1.26345 -3.06033,0 -7.57914,-0.38459 -10.04171,-0.85515 -4.44385,-0.84868 -10.3745,-1.19197 -10.93355,-0.63292 -0.16067,0.16066 0.32893,1.20557 1.08716,2.32284 0.75824,1.11734 1.29331,2.29033 1.18894,2.60674 -0.30995,0.94041 -6.46446,0.95793 -10.10807,0.0317 -1.86198,-0.47505 -5.01529,-1.6075 -7.00732,-2.51705 -1.99202,-0.90948 -3.77081,-1.50464 -3.95286,-1.32259 -0.18218,0.18217 0.0746,1.1859 0.57056,2.23062 1.25049,2.63526 0.73989,3.1568 -2.69555,2.75304 l -2.86165,-0.33652 0.54526,1.43355 c 0.29983,0.78854 1.41115,2.61344 2.46966,4.05546 2.508,3.41653 2.02688,3.96122 -2.76227,3.12726 -1.95869,-0.34094 -4.7502,-1.0888 -6.20335,-1.66158 l -2.64203,-1.04073 v 5.11517 c 0,2.81339 -0.23594,5.556 -0.52439,6.09481 -0.97596,1.82351 -5.66947,2.72855 -8.41511,1.62261 z"
       id="path16019"
       inkscape:connector-curvature="0"
       sodipodi:nodetypes="ccsscccccccscccccsssssccccscccscccccccsccssccsccsccccssscscscccsccsccsscccsssccssccccssccscscscscssscccsscsscscccccccsssccscccscsccscscscccccssscsscsccccccccccsccc" />
  </g>
</svg>
