<?xml version="1.0" encoding="UTF-8" standalone="no"?><!DOCTYPE svg PUBLIC "-//W3C//DTD SVG 1.1//EN" "http://www.w3.org/Graphics/SVG/1.1/DTD/svg11.dtd"><svg width="100%" height="100%" viewBox="0 0 5120 2880" version="1.1" xmlns="http://www.w3.org/2000/svg" xmlns:xlink="http://www.w3.org/1999/xlink" xml:space="preserve" xmlns:serif="http://www.serif.com/" style="fill-rule:evenodd;clip-rule:evenodd;stroke-linejoin:round;stroke-miterlimit:1.41421;"><path d="M-56.03,2377.55c69.178,0 389.582,-185.689 629.886,-50.973c240.303,134.716 1100.44,323.165 1511,269.431c395.507,-51.764 1288.9,-273.072 1609.3,-222.099c320.405,50.974 637.168,203.894 990.342,127.434c353.173,-76.46 418.71,-294.918 560.708,-243.944c141.997,50.973 225.739,567.99 76.46,640.809c-149.28,72.819 -327.687,18.205 -990.342,25.487c-662.654,7.281 -1248.85,-10.923 -1984.32,-10.923c-735.474,0 -1656.64,14.563 -2024.37,0c-367.737,-14.564 -480.607,0 -513.376,-112.87c-32.769,-112.87 65.537,-422.352 134.716,-422.352Z" style="fill:#cae9ff;"/><path d="M-52.389,2384.11c69.178,0 462.402,-145.638 702.705,-10.923c240.303,134.716 1216.95,334.088 1627.51,280.354c395.507,-51.764 1168.75,-302.199 1489.15,-251.226c320.404,50.974 735.474,200.253 1088.65,123.793c353.173,-76.46 338.609,-283.995 480.607,-233.022c141.997,50.974 225.739,567.99 76.46,640.809c-149.28,72.82 -327.687,18.205 -990.342,25.487c-662.654,7.282 -1248.85,-10.923 -1984.32,-10.923c-735.474,0 -1656.64,14.564 -2024.37,0c-367.737,-14.564 -480.607,0 -513.376,-112.87c-32.769,-112.869 -21.846,-451.479 47.333,-451.479Z" style="fill:#caf0ff;"/></svg>